<svg id="Capa_1" data-name="Capa 1" xmlns="http://www.w3.org/2000/svg" viewBox="0 0 73.74 73.74"><defs><style>.cls-1{fill:#5b5b5b;}.cls-2{fill:#fff;}</style></defs><title>iconoTenL</title><path class="cls-1" d="M50.86,17.1H21.1a1.49,1.49,0,0,0-1.49,1.48v37A1.49,1.49,0,0,0,21.1,57H50.86a1.49,1.49,0,0,0,1.48-1.49V18.58A1.48,1.48,0,0,0,50.86,17.1ZM47.33,50.31H24.63V46.58h22.7Zm0-7.37H24.63V39.21h22.7Zm0-7.37H24.63V31.83h22.7Zm0-7.37H24.63V24.46h22.7Z"/><circle class="cls-1" cx="48.78" cy="51.29" r="9.35"/><path class="cls-2" d="M53.8,49.28,48,55.12c-.27.27-.77.88-1.06.89s-.85-.68-1.09-.92c-.86-.86-1.66-1.62-2.53-2.49-.15-.15-.41-.41-.41-.58,0-.39.51-.8.69-1s.6-.66.91-.67,1,.82,1.23,1.06l1.16,1.12c1.47-1.35,3-3,4.51-4.47a11.5,11.5,0,0,1,1.5-1.47c.34-.21.8.38,1.1.68s.7.62.71.89S54.06,49,53.8,49.28Z"/></svg>