<svg id="Capa_1" data-name="Capa 1" xmlns="http://www.w3.org/2000/svg" viewBox="0 0 73.74 73.74"><defs><style>.cls-1{fill:#5b5b5b;}</style></defs><title>íconos SIGES SALV</title><path class="cls-1" d="M57.57,33.67l-5-1.4v.14a16.47,16.47,0,0,0-.85-2l2.43-4.52a1.47,1.47,0,0,0-.26-1.74l-3.63-3.63a1.47,1.47,0,0,0-1.77-.24l-4.55,2.58L44,23a17.32,17.32,0,0,0-2-.79l-1.47-4.91a1.48,1.48,0,0,0-1.42-1.05H34a1.48,1.48,0,0,0-1.42,1.08l-1.4,5.05h.13a17.2,17.2,0,0,0-2,.85l-4.51-2.43a1.47,1.47,0,0,0-1.74.26l-3.64,3.63a1.48,1.48,0,0,0-.24,1.76L21.75,31l.1-.09a15.12,15.12,0,0,0-.79,2l-4.91,1.47a1.47,1.47,0,0,0-1,1.41v5.14a1.48,1.48,0,0,0,1.08,1.42l5,1.4V43.6a15,15,0,0,0,.86,2l-2.43,4.52a1.47,1.47,0,0,0,.25,1.74l3.63,3.63a1.47,1.47,0,0,0,1.77.24l4.56-2.58-.1-.09a18.06,18.06,0,0,0,2,.79l1.48,4.91a1.47,1.47,0,0,0,1.41,1.05h5.13A1.46,1.46,0,0,0,41.2,58.7l1.4-5h-.13a18.32,18.32,0,0,0,2-.86L49,55.23A1.47,1.47,0,0,0,50.7,55l3.63-3.64a1.45,1.45,0,0,0,.24-1.76L52,45l-.09.09a16.63,16.63,0,0,0,.79-2l4.91-1.47a1.48,1.48,0,0,0,1-1.41V35.09A1.48,1.48,0,0,0,57.57,33.67ZM36.87,46.6A8.6,8.6,0,1,1,45.47,38,8.59,8.59,0,0,1,36.87,46.6Z"/></svg>