<?xml version="1.0" encoding="utf-8"?>
<!-- Generator: Adobe Illustrator 22.1.0, SVG Export Plug-In . SVG Version: 6.00 Build 0)  -->
<svg version="1.1" id="Capa_1" xmlns="http://www.w3.org/2000/svg" xmlns:xlink="http://www.w3.org/1999/xlink" x="0px" y="0px"
	 viewBox="0 0 150 150" style="enable-background:new 0 0 150 150;" xml:space="preserve">
<style type="text/css">
	.st0{fill:#5B5B5B;}
</style>
<g>
	<g>
		<g>
			<g>
				<path class="st0" d="M84.6,99.7c-0.6-0.6-1.3-1.1-2-1.4c-1.6-0.8-3.3-1.3-5-1.8v13.3c2.8-0.3,6-1.3,7.4-3.9l0,0
					c0.7-1.2,0.8-2.8,0.6-4.1C85.4,101,85.1,100.3,84.6,99.7z"/>
			</g>
			<g>
				<path class="st0" d="M85,105.9C85,105.9,85,105.9,85,105.9L85,105.9C85,105.9,85,105.9,85,105.9z"/>
			</g>
			<g>
				<path class="st0" d="M64.6,78.5c-0.5,0.7-0.8,1.5-0.9,2.3c-0.1,0.8,0,1.8,0.3,2.6c0.3,0.8,0.9,1.3,1.6,1.8
					c0.7,0.5,1.6,0.9,2.4,1.2c0.7,0.3,1.5,0.5,2.3,0.8v-12C68.2,75.7,65.8,76.7,64.6,78.5z"/>
			</g>
			<g>
				<path class="st0" d="M85.1,105.8C85.1,105.8,85,105.8,85.1,105.8L85.1,105.8C85,105.8,85.1,105.8,85.1,105.8z"/>
			</g>
			<g>
				<path class="st0" d="M85.1,105.7C85.1,105.7,85.1,105.7,85.1,105.7L85.1,105.7z"/>
			</g>
			<g>
				<path class="st0" d="M82.3,33.5C93.5,24,101.1,2.7,96.4,1.7c-6.2-1.2-19.6,4.2-26,5.2C61.2,8,51.2-3.1,45.6,3.1
					c-4.6,5,3.3,23.2,15.5,31.2c-36.6,18-87.9,108.2,1.7,114.7C186.9,158,124.8,51,82.3,33.5z M92.9,104.6c-0.4,3.5-2.2,6.7-5,8.9
					c-2.9,2.3-6.6,3.3-10.3,3.6v3.9c0,1-0.5,2-1.2,2.7c-1.1,0.9-2.6,1.2-3.9,0.6c-1.3-0.6-2.1-1.9-2.1-3.3v-4.2
					c-0.6-0.1-1.3-0.3-1.9-0.4c-3.4-0.9-6.6-2.8-8.9-5.5c-1.2-1.4-2.1-2.9-2.8-4.5c-0.2-0.4-0.3-0.9-0.5-1.3
					c-0.1-0.4-0.2-0.8-0.3-1.2c-0.1-0.7,0.1-1.4,0.4-2.1c0.7-1.3,2.1-2.1,3.6-1.9c1.4,0.1,2.7,1.1,3.1,2.5c0.1,0.4,0.2,0.9,0.4,1.3
					c0.2,0.4,0.3,0.8,0.6,1.2c0.4,0.8,1,1.4,1.6,2.1c1.3,1.2,2.9,2,4.6,2.5V94.8c-3.3-0.9-6.8-2-9.6-4.1c-1.3-1-2.5-2.3-3.2-3.9
					c-0.8-1.6-1.1-3.4-1.1-5.2c0-1.8,0.3-3.6,1.1-5.3c0.7-1.6,1.7-2.9,3-4.1c2.7-2.5,6.3-3.9,9.8-4.4v-0.3v-3.7c0-1,0.5-2,1.2-2.7
					c1.1-0.9,2.6-1.2,3.9-0.6c1.3,0.6,2.1,1.9,2.1,3.3v3.7v0.3c0.5,0.1,1,0.1,1.4,0.2c3.5,0.6,7,2.1,9.5,4.6
					c1.2,1.2,2.2,2.6,2.9,4.2c0.2,0.4,0.4,0.9,0.5,1.3c0.1,0.4,0.3,0.9,0.3,1.3c0.1,0.7,0,1.4-0.3,2.1c-0.6,1.3-2,2.2-3.5,2.1
					c-1.4-0.1-2.7-1-3.2-2.3c-0.2-0.4-0.2-0.8-0.4-1.2c-0.2-0.4-0.4-0.8-0.6-1.1c-0.5-0.7-1-1.3-1.7-1.8c-1.5-1.1-3.2-1.6-5-2V89
					c2.1,0.5,4.2,1.1,6.2,1.8c3,1.2,5.9,3,7.6,6c-0.3-0.5-0.5-0.9,0,0c0.5,0.9,0.3,0.5,0,0C92.8,99.2,93.2,102,92.9,104.6z"/>
			</g>
			<g>
				<path class="st0" d="M85,106C84.9,106,84.9,106,85,106C84.9,106.1,84.9,106,85,106z"/>
			</g>
		</g>
	</g>
</g>
</svg>
