<?xml version="1.0" encoding="utf-8"?>
<!-- Generator: Adobe Illustrator 22.1.0, SVG Export Plug-In . SVG Version: 6.00 Build 0)  -->
<svg version="1.1" id="Capa_1" xmlns="http://www.w3.org/2000/svg" xmlns:xlink="http://www.w3.org/1999/xlink" x="0px" y="0px"
	 viewBox="0 0 150 150" style="enable-background:new 0 0 150 150;" xml:space="preserve">
<style type="text/css">
	.st0{fill:#5B5B5B;}
</style>
<path class="st0" d="M40.4,71.9c2.4,0,4.5-0.9,6-2.4l8.6,4.2c-0.1,0.3-0.1,0.7-0.1,1.1c0,4.8,3.9,8.6,8.6,8.6c4.7,0,8.6-3.9,8.6-8.6
	c0-1.3-0.3-2.6-0.9-3.7l11.6-11.6c1.1,0.5,2.4,0.9,3.7,0.9c4.8,0,8.6-3.9,8.6-8.6c0-0.9-0.2-1.8-0.4-2.6l10-7.6
	c1.3,0.9,3,1.5,4.8,1.5c4.8,0,8.6-3.9,8.6-8.6s-3.8-8.7-8.6-8.7c-4.8,0-8.6,3.9-8.6,8.6c0,0.9,0.2,1.8,0.4,2.6l-10,7.6
	c-1.3-0.9-3-1.5-4.8-1.5c-4.8,0-8.6,3.9-8.6,8.6c0,1.3,0.3,2.6,0.9,3.7L67.2,67c-1.1-0.5-2.4-0.9-3.7-0.9c-2.4,0-4.5,0.9-6,2.4
	l-8.6-4.2C49,64,49,63.7,49,63.3c0-4.8-3.9-8.6-8.6-8.6s-8.6,3.9-8.6,8.6S35.6,71.9,40.4,71.9z"/>
<path class="st0" d="M121.3,118.4h-3.1V57.5c0-1.6-1.3-2.9-2.9-2.9h-11.5c-1.6,0-2.9,1.3-2.9,2.9v61h-5.8V74.8
	c0-1.6-1.3-2.9-2.9-2.9H80.8c-1.6,0-2.9,1.3-2.9,2.9v43.6h-5.8V97.9c0-1.6-1.3-2.9-2.9-2.9H57.7c-1.6,0-2.9,1.3-2.9,2.9v20.6H49
	V86.3c0-1.6-1.3-2.9-2.9-2.9H34.6c-1.6,0-2.9,1.3-2.9,2.9v32.1h-3c-1.6,0-2.9,1.3-2.9,2.9c0,1.6,1.3,2.9,2.9,2.9h92.6
	c1.6,0,2.9-1.3,2.9-2.9C124.2,119.7,122.9,118.4,121.3,118.4z"/>
<path class="st0" d="M137.9,60"/>
</svg>
