<?xml version="1.0" encoding="utf-8"?>
<!-- Generator: Adobe Illustrator 22.1.0, SVG Export Plug-In . SVG Version: 6.00 Build 0)  -->
<svg version="1.1" id="Capa_1" xmlns="http://www.w3.org/2000/svg" xmlns:xlink="http://www.w3.org/1999/xlink" x="0px" y="0px"
	 viewBox="0 0 150 150" style="enable-background:new 0 0 150 150;" xml:space="preserve">
<style type="text/css">
	.st0{fill:#5B5B5B;}
</style>
<path class="st0" d="M76,25.6c1.9,0.2,3.8,0.3,5.6,0.6c9.2,1.2,17.9,3.6,25.7,8.9c2.6,1.8,5,3.9,6.7,6.6c3.5,5.3,3.3,11-0.4,16.1
	c-3.1,4.2-7.2,7-11.8,9.2c-6.2,3-12.8,4.8-19.7,5.6C72.5,74,63,73.5,53.7,71.1c-6.8-1.8-13.2-4.4-18.6-8.9c-2.7-2.2-4.9-4.8-6.1-8.1
	c-1.9-5.2-0.5-9.8,2.8-13.9c3.1-3.8,7.2-6.5,11.6-8.5c6.9-3.2,14.1-5,21.7-5.7c1.2-0.1,2.4-0.2,3.6-0.4C71.1,25.6,73.5,25.6,76,25.6
	z M53.9,56.8c0,1.7,0,3.3,0,4.9c0,0.7,0.1,1.1,0.9,1.2c3.2,0.4,6.3,0.9,9.5,1.3c1.5,0.2,2.9,0.2,4.5,0.3c0,1,0,1.9,0,2.8
	c0.3,0,0.6,0.1,0.9,0.1c2.1,0,4.1,0,6.3,0c0-1.1,0-2.1,0-2.9c2.3-0.4,4.5-0.7,6.7-1.1c2.6-0.6,5.2-1.4,7.1-3.4
	c2.5-2.5,2.3-6.5-0.4-8.8c-1.6-1.3-3.4-2.2-5.4-2.6c-2.6-0.6-5.3-1-8-1.5c0-2.1,0-4.2,0-6.7c4.3,0.6,8.6,1.1,12.9,1.7
	c0-1.7,0-3.5,0-5.2c0-0.2-0.4-0.6-0.6-0.6c-2.1-0.4-4.2-0.7-6.3-1c-2-0.2-3.9-0.3-6-0.5c0-0.9,0-1.9,0-2.8c-2.5,0-4.8,0-7.3,0
	c0,1,0,2,0,2.9c-1.1,0.1-2.1,0.2-3.1,0.4c-3.2,0.5-6.3,1.2-9.2,2.9c-4.4,2.7-4.8,8.7,0.2,11.3c2.3,1.2,4.7,1.8,7.3,2.2
	c1.6,0.2,3.2,0.4,4.8,0.7c0,2.2,0,4.3,0,6.4C63.7,58.6,58.9,58,53.9,56.8z"/>
<path class="st0" d="M68.7,46.4c-1.5-0.4-2.8-0.7-4.2-1.1C63.7,45,63,44.5,63,43.4c0-1,0.6-1.7,1.4-2c1.4-0.4,2.8-0.7,4.3-1.1
	C68.7,42.5,68.7,44.3,68.7,46.4z"/>
<path class="st0" d="M76.1,58.6c0-2.1,0-3.9,0-5.9c1.4,0.4,2.8,0.7,4.1,1.1c0.8,0.3,1.4,0.9,1.4,1.8c0,0.9-0.6,1.5-1.4,1.8
	C78.9,57.9,77.5,58.2,76.1,58.6z"/>
<g>
	<path class="st0" d="M80.4,115c-0.4-0.6-0.7-1.4-0.7-2.2c0-0.8,0.3-1.6,0.7-2.2c0.1-0.1,0.3-0.4,0.4-0.6c-0.9,0.1-1.7,0.2-2.6,0.2
		c-10.4,0.7-20.6-0.2-30.6-3.5c-7.3-2.4-14-5.9-19.3-11.6c0-0.1-0.2,0-0.4-0.1c0.1,1.5,0,2.9,0.3,4.3c0.6,3.9,2.8,6.9,5.6,9.6
		c4.6,4.3,10.1,6.9,16,8.8c11.6,3.6,23.3,4.2,35.2,2.2C82.8,117.8,81.3,116.2,80.4,115z"/>
</g>
<g>
	<path class="st0" d="M75.6,103.8c-0.5-0.7-0.8-1.5-0.8-2.3v-7.1c-9.3,0.3-18.4-0.8-27.3-3.8c-7.2-2.4-13.8-5.9-19.1-11.5
		C28.4,79,28.3,79,28,78.9c0.1,1.5,0,2.9,0.3,4.3C29,87.7,31.7,91,35,93.8c4.8,4,10.5,6.5,16.4,8.2c8.3,2.4,16.7,3.2,25.2,2.7
		C76.3,104.5,75.9,104.2,75.6,103.8z"/>
</g>
<g>
	<path class="st0" d="M83,88.1c-0.7-1-1.6-2-2.5-3.2c-0.8-0.9-0.9-1.8-0.9-2.4c0-0.7,0.3-1.5,0.8-2.2c0.4-0.5,0.9-1.1,1.5-1.8
		c-1.1,0.1-2.3,0.2-3.4,0.3c-11,0.7-21.7-0.3-32.1-4c-6.4-2.3-12.3-5.4-17.2-10.3c-0.3-0.3-0.6-0.6-1-1c-0.3,2.9,0.3,5.5,1.6,7.9
		c2.1,3.9,5.3,6.8,9,9.1c7.7,4.8,16.2,7,25.1,7.9c6.1,0.7,12.2,0.6,18.3-0.2C82.4,88.2,82.7,88.1,83,88.1z"/>
	<path class="st0" d="M110.5,69c0.7,0.6,1.2,1.4,1.3,2.3l0.5,3.4c0.4-0.5,0.8-0.9,1.2-1.4c2.1-2.9,3.2-6.1,2.9-10
		c-1.9,2.1-4,3.9-6.3,5.4C110.3,68.9,110.4,69,110.5,69z"/>
</g>
<path class="st0" d="M131.2,101.6v-7.8c0-0.3-0.1-0.6-0.3-0.8c-0.2-0.2-0.4-0.4-0.7-0.4l-6.4-1c-0.4-1.1-0.8-2.3-1.4-3.4
	c0.4-0.6,1.1-1.4,1.9-2.5c0.8-1.1,1.4-1.8,1.8-2.3c0.2-0.3,0.3-0.5,0.3-0.8c0-0.3-0.1-0.6-0.2-0.8c-0.8-1.2-2.8-3.2-5.8-6
	c-0.3-0.2-0.6-0.4-0.9-0.4c-0.4,0-0.6,0.1-0.8,0.3l-5,3.8c-1-0.5-2-0.9-3.2-1.3l-1-6.5c0-0.3-0.2-0.6-0.4-0.8
	c-0.2-0.2-0.5-0.3-0.9-0.3h-7.8c-0.7,0-1.1,0.3-1.3,1c-0.3,1.2-0.6,3.4-1,6.5c-1.1,0.4-2.2,0.8-3.2,1.3L90,75.7
	c-0.3-0.2-0.6-0.4-0.9-0.4c-0.5,0-1.6,0.8-3.3,2.5c-1.7,1.7-2.9,2.9-3.5,3.8C82.1,82,82,82.3,82,82.5c0,0.3,0.1,0.6,0.4,0.8
	c1.6,1.9,2.8,3.5,3.8,4.9c-0.6,1.1-1,2.2-1.4,3.2l-6.5,1c-0.3,0-0.5,0.2-0.7,0.5c-0.2,0.3-0.3,0.5-0.3,0.8v7.8
	c0,0.3,0.1,0.6,0.3,0.8c0.2,0.2,0.4,0.4,0.7,0.4l6.4,0.9c0.3,1.1,0.8,2.3,1.4,3.5c-0.4,0.6-1.1,1.4-1.9,2.5
	c-0.8,1.1-1.4,1.8-1.8,2.3c-0.2,0.3-0.3,0.5-0.3,0.8c0,0.3,0.1,0.6,0.2,0.8c0.9,1.3,2.8,3.2,5.8,5.9c0.3,0.3,0.6,0.4,0.9,0.4
	c0.4,0,0.6-0.1,0.9-0.3l5-3.8c1,0.5,2,0.9,3.2,1.3l1,6.5c0,0.3,0.2,0.6,0.4,0.8c0.2,0.2,0.5,0.3,0.9,0.3h7.8c0.7,0,1.1-0.3,1.3-1
	c0.3-1.2,0.6-3.4,1-6.5c1.1-0.4,2.2-0.8,3.2-1.3l4.9,3.8c0.3,0.2,0.6,0.3,0.9,0.3c0.5,0,1.6-0.8,3.3-2.5c1.7-1.7,2.8-2.9,3.5-3.8
	c0.2-0.2,0.3-0.5,0.3-0.8c0-0.3-0.1-0.6-0.4-0.9c-1.7-2.1-2.9-3.7-3.8-4.9c0.5-0.9,0.9-1.9,1.4-3.2l6.5-1c0.3,0,0.5-0.2,0.7-0.5
	C131.2,102.2,131.2,101.9,131.2,101.6z M110.6,104c-1.8,1.8-3.9,2.6-6.4,2.6c-2.5,0-4.6-0.9-6.4-2.6c-1.8-1.8-2.6-3.9-2.6-6.4
	c0-2.5,0.9-4.6,2.6-6.4c1.8-1.8,3.9-2.6,6.4-2.6c2.5,0,4.6,0.9,6.4,2.6c1.8,1.8,2.6,3.9,2.6,6.4C113.2,100.1,112.4,102.2,110.6,104z
	"/>
</svg>
