<?xml version="1.0" encoding="utf-8"?>
<!-- Generator: Adobe Illustrator 22.1.0, SVG Export Plug-In . SVG Version: 6.00 Build 0)  -->
<svg version="1.1" id="Capa_1" xmlns="http://www.w3.org/2000/svg" xmlns:xlink="http://www.w3.org/1999/xlink" x="0px" y="0px"
	 viewBox="0 0 150 150" style="enable-background:new 0 0 150 150;" xml:space="preserve">
<style type="text/css">
	.st0{fill:#5B5B5B;}
</style>
<path class="st0" d="M141.2,54.2"/>
<path class="st0" d="M118.8,48.4l-1.4,0.5l-7.9,0.7l-2.3,3.6l-1.6-0.5l-6.3-5.6L98.3,44l-1.2-3.2l-3.9-3.5l-4.7-0.9l-0.1,2.2
	l4.6,4.5l2.3,2.7l-2.6,1.3l-2-0.6l-3.1-1.2l0.1-2.5l-4-1.6L82.4,47l-4.1,0.9l0.4,3.3l5.3,1l0.9-5.2l4.4,0.6l2,1.2h3.3l2.3,4.5l5.9,6
	l-0.4,2.4l-4.8-0.6l-8.2,4.2l-5.9,7.1l-0.8,3.2h-2.2l-4-1.8l-3.9,1.8l0.9,4.1l1.6-1.9l3-0.1L78,81.3l2.5,0.7l2.5,2.8l4-1.1l4.5,0.7
	l5.3,1.4l2.7,0.3l4.5,5.1l8.6,5.1l-5.5,10.6l-5.9,2.8l-2.3,6.1l-8.5,5.7l-0.9,3.3c21.8-5.2,38-24.8,38-48.2
	C127.2,65.8,124.1,56.4,118.8,48.4z"/>
<path class="st0" d="M68.7,37.3l1.6-1.4l7.1,0.6l8.9-0.8l2.5-2.7l3.5-2.3l4.9,0.7l1.7-0.3c-6.5-3.1-13.6-4.8-21.1-4.8
	c-3.6,0-12.1,1.6-17.6,2.8C64.2,31.7,65.9,33,68.7,37.3z M79.7,31.3l5.1-2.8l3.3,1.8l-4.7,3.6l-4.5,0.4l-2-1.3L79.7,31.3z"/>
<path class="st0" d="M50.9,77.7l0.8,0.8l2-2c0.1-0.1,0.7-0.7,1.7-1.8c4.8-5.5,13.9-17.2,13.9-27.7c0-2.5-0.5-4.8-1.4-6.9l0,0
	c-2.1-5.1-6-7.2-7-8c0,0,0,0,0,0c-2.7-1.6-5.8-2.6-9.1-2.6c-9.7,0-17.6,7.9-17.6,17.6c0,4.4,1.4,8.8,3.5,12.9
	c3.1,5.8,6.9,10.8,9.4,13.8C48.9,75.8,50.4,77.3,50.9,77.7z M44.2,47c0-4.2,3.4-7.6,7.6-7.6s7.6,3.4,7.6,7.6c0,4.2-3.4,7.6-7.6,7.6
	S44.2,51.1,44.2,47z"/>
<path class="st0" d="M85.7,110c-0.1-0.3-2.4-8-2.4-8l-3.6-6.7l3.3-7l-3.3-1L76,83.6l-8.3-1.8L65,76v3.4h-1.2l-4.6-6.2
	c-3.1,3.9-5.7,6.4-5.9,6.7l-1.6,1.6L50,80c-0.6-0.6-12.5-12-17.1-25.1C30.1,61.2,28,68.7,28,76c0,27.4,22.2,49.7,49.7,49.7
	c2.2,0,4.2-0.2,6.2-0.4l-0.5-6C83.4,119.2,85.7,110.3,85.7,110z"/>
<g>
	<path class="st0" d="M44.5,74c1.1,1.3,2.1,2.4,3,3.4C46.6,76.5,45.6,75.3,44.5,74z"/>
	<path class="st0" d="M47.8,77.7c0.2,0.2,0.4,0.4,0.6,0.6C48.2,78.1,48,77.9,47.8,77.7z"/>
	<path class="st0" d="M43.1,72.3c0.4,0.5,0.7,0.9,1.1,1.3C43.8,73.2,43.5,72.8,43.1,72.3z"/>
	<path class="st0" d="M49.2,79.2c-0.1-0.1-0.3-0.3-0.4-0.4C48.9,78.9,49.1,79,49.2,79.2z"/>
	<path class="st0" d="M53.5,79.7c0.1-0.1,0.2-0.2,0.3-0.3C53.6,79.5,53.5,79.6,53.5,79.7z"/>
	<path class="st0" d="M59.2,73.2c-2.3,2.8-4.3,5-5.3,6C54.9,78.2,56.9,76.1,59.2,73.2L59.2,73.2z"/>
	<path class="st0" d="M41.6,70.4c0.4,0.5,0.8,1,1.2,1.5C42.4,71.4,42,70.9,41.6,70.4z"/>
	<path class="st0" d="M34.7,59.2c-0.7-1.4-1.3-2.9-1.8-4.3C33.4,56.3,34.1,57.8,34.7,59.2z"/>
	<path class="st0" d="M49.5,79.5c0.1,0.1,0.2,0.2,0.2,0.2C49.7,79.7,49.6,79.6,49.5,79.5z"/>
	<path class="st0" d="M35,59.8c0.3,0.6,0.6,1.2,0.9,1.8C35.6,61,35.3,60.4,35,59.8z"/>
	<path class="st0" d="M36.3,62.3c0.3,0.6,0.7,1.2,1,1.8C37,63.5,36.7,62.9,36.3,62.3z"/>
	<path class="st0" d="M37.7,64.6c1.2,2,2.5,3.9,3.8,5.6C40.2,68.5,38.9,66.6,37.7,64.6z"/>
</g>
</svg>
