<?xml version="1.0" encoding="utf-8"?>
<!-- Generator: Adobe Illustrator 22.1.0, SVG Export Plug-In . SVG Version: 6.00 Build 0)  -->
<svg version="1.1" id="Capa_1" xmlns="http://www.w3.org/2000/svg" xmlns:xlink="http://www.w3.org/1999/xlink" x="0px" y="0px"
	 viewBox="0 0 150 150" style="enable-background:new 0 0 150 150;" xml:space="preserve">
<style type="text/css">
	.st0{fill:#5B5B5B;}
</style>
<path class="st0" d="M101.1,92.4c-10.7,0-19.3,8.6-19.3,19.3c0,10.7,8.6,19.3,19.3,19.3c10.7,0,19.3-8.6,19.3-19.3
	C120.4,101.1,111.7,92.4,101.1,92.4z M111.5,107.6l-12,12.1c-0.6,0.6-1.6,1.8-2.2,1.8c-0.6,0-1.8-1.4-2.2-1.9
	c-1.8-1.8-3.4-3.3-5.2-5.1c-0.3-0.3-0.8-0.8-0.8-1.2c0-0.8,1.1-1.7,1.4-2.1c0.4-0.4,1.2-1.4,1.9-1.4c0.6,0,2.1,1.7,2.5,2.2l2.4,2.3
	c3-2.8,6.2-6.2,9.3-9.2c0.9-1.1,2-2.1,3.1-3c0.7-0.4,1.7,0.8,2.3,1.4c0.6,0.6,1.4,1.3,1.5,1.8C113.4,105.8,112,107,111.5,107.6z"/>
<path class="st0" d="M79.5,111.7c0-0.7,0-1.4,0.1-2H52.8c-1.3,0-2.3-1-2.3-2.3v-3.1c0-1.3,1-2.3,2.3-2.3h29c1.5-3,3.7-5.5,6.3-7.5
	H52.8c-1.3,0-2.3-1-2.3-2.3v-3.1c0-1.3,1-2.3,2.3-2.3H95c1.3,0,2.3,1,2.3,2.3v1.4c1.2-0.2,2.5-0.3,3.8-0.3c2.3,0,4.5,0.4,6.6,1V44.2
	c0-1.7-1.4-3.1-3.1-3.1H43.2c-1.7,0-3.1,1.4-3.1,3.1v76.4c0.1,1.6,1.4,2.9,3.1,2.9H83C80.8,120.1,79.5,116.1,79.5,111.7z M50.5,58.7
	c0-1.3,1-2.3,2.3-2.3H95c1.3,0,2.3,1,2.3,2.3v3.1c0,1.3-1,2.3-2.3,2.3H52.8c-1.3,0-2.3-1-2.3-2.3V58.7z M50.5,73.9
	c0-1.3,1-2.3,2.3-2.3H95c1.3,0,2.3,1,2.3,2.3V77c0,1.3-1,2.3-2.3,2.3H52.8c-1.3,0-2.3-1-2.3-2.3V73.9z"/>
</svg>
