<?xml version="1.0" encoding="utf-8"?>
<!-- Generator: Adobe Illustrator 22.1.0, SVG Export Plug-In . SVG Version: 6.00 Build 0)  -->
<svg version="1.1" id="Capa_1" xmlns="http://www.w3.org/2000/svg" xmlns:xlink="http://www.w3.org/1999/xlink" x="0px" y="0px"
	 viewBox="0 0 150 150" style="enable-background:new 0 0 150 150;" xml:space="preserve">
<style type="text/css">
	.st0{fill:#5B5B5B;}
	.st1{fill:none;stroke:#5B5B5B;stroke-width:6.3852;stroke-miterlimit:10;}
</style>
<path class="st1" d="M75.6,19.4c-0.3,0-0.6,0-0.9,0c-30.5,0-55.3,24.8-55.3,55.3S44.1,130,74.6,130c30.5,0,55.3-24.8,55.3-55.3
	c0-18-8.6-34-21.9-44.1"/>
<circle class="st0" cx="74.6" cy="19.4" r="11.4"/>
<circle class="st0" cx="114.3" cy="35.9" r="11.4"/>
<circle class="st0" cx="129.9" cy="76.2" r="11.4"/>
<circle class="st0" cx="114.3" cy="114.7" r="11.4"/>
<circle class="st0" cx="74.6" cy="131.5" r="11.4"/>
<circle class="st0" cx="35.3" cy="114.7" r="11.4"/>
<circle class="st0" cx="19.3" cy="74.7" r="11.4"/>
<circle class="st0" cx="35.3" cy="35.9" r="11.4"/>
<circle class="st0" cx="74.6" cy="74.7" r="19.8"/>
<path class="st1" d="M74.6,19.4v55.3V19.4z"/>
<path class="st1" d="M114.3,35.9L74.6,74.7L114.3,35.9z"/>
<path class="st1" d="M129.9,76.2l-55.3-1.5L129.9,76.2z"/>
<path class="st1" d="M74.6,130V74.7V130z"/>
<path class="st1" d="M35.3,114.7l39.4-40L35.3,114.7z"/>
<path class="st1" d="M19.3,74.7h55.3H19.3z"/>
<path class="st1" d="M35.3,35.9l39.4,38.8L35.3,35.9z"/>
</svg>
