<svg id="Capa_1" data-name="Capa 1" xmlns="http://www.w3.org/2000/svg" viewBox="0 0 73.74 73.74"><defs><style>.cls-1{fill:#5b5b5b;}.cls-2{fill:none;stroke:#5b5b5b;stroke-miterlimit:10;stroke-width:1.32px;}</style></defs><title>íconos SIGES SALV</title><path class="cls-1" d="M9,35.18,35.89,46.79a6.27,6.27,0,0,0,5,0l25.05-11a2,2,0,0,0,0-3.64L39.56,20.57a6.32,6.32,0,0,0-5,0L9,31.52A2,2,0,0,0,9,35.18Z"/><path class="cls-1" d="M37.73,36.65H20.56V48.82A2.64,2.64,0,0,0,22,51.19c1.85.91,6.07,2,15.74,2s13.89-1,15.73-2a2.64,2.64,0,0,0,1.43-2.37V36.65Z"/><line class="cls-2" x1="8.68" y1="33.34" x2="8.68" y2="51.97"/><path class="cls-1" d="M7.44,51.91a1.24,1.24,0,0,0,2.48,0,1.24,1.24,0,0,0-2.48,0Z"/><path class="cls-1" d="M9.31,53.14c-.14-.87-1.11-.87-1.26,0L6.7,61.37s-.66,1.68,2,1.68,2-1.68,2-1.68Z"/></svg>