<?xml version="1.0" encoding="utf-8"?>
<!-- Generator: Adobe Illustrator 22.1.0, SVG Export Plug-In . SVG Version: 6.00 Build 0)  -->
<svg version="1.1" id="Layer_1" xmlns="http://www.w3.org/2000/svg" xmlns:xlink="http://www.w3.org/1999/xlink" x="0px" y="0px"
	 viewBox="0 0 512 512" style="enable-background:new 0 0 512 512;" xml:space="preserve">
<style type="text/css">
	.st0{fill:#5B5B5B;}
</style>
<path class="st0" d="M426.5,177.9h41.3c6.9,0,12.4,5.6,12.4,12.4v34.1c0,6.9-5.6,12.4-12.4,12.4h-41.3c-6.9,0-12.4-5.6-12.4-12.4
	v-34.1C414.1,183.5,419.6,177.9,426.5,177.9z"/>
<path class="st0" d="M80,354.1c-13.8,0-25.1,11.2-25.1,25.1c0,13.8,11.2,25.1,25.1,25.1c14,0,25.1-11.4,25.1-25.1
	C105.1,365.4,93.8,354.1,80,354.1z"/>
<path class="st0" d="M405.8,354.1c-13.8,0-25.1,11.2-25.1,25.1c0,13.8,11.2,25.1,25.1,25.1c14,0,25.1-11.4,25.1-25.1
	C430.9,365.4,419.6,354.1,405.8,354.1z"/>
<path class="st0" d="M498.7,275l-1.1-0.9c-5-4.2-11.3-6.6-17.9-6.6h-67.7c-10.6,0-19.2-8.6-19.2-19.2v-82c0-10.6,8.6-19.2,19.2-19.2
	h64.2c2.1,0,3.8-1.7,3.8-3.8c0-19.6-16-35.6-35.6-35.6h-413C14,107.8-0.3,122-0.3,139.6V335c0,10.6,8.6,19.2,19.2,19.2H28
	c1.4,0,2.6-0.8,3.3-2c9.5-17.1,27.9-28.7,48.9-28.7c21,0,39.2,11.6,48.9,28.7c0.7,1.2,1.9,2,3.3,2h221.7c1.4,0,2.6-0.8,3.3-2
	c9.5-17.1,27.9-28.7,48.9-28.7c20.9,0,39.2,11.6,48.9,28.7c0.7,1.2,1.9,2,3.3,2h41.7c6.7,0,12.2-5.5,12.2-12.2v-38.7
	C511.7,292.3,507,282.1,498.7,275z M98.5,218.2c0,11.2-9.1,20.3-20.3,20.3H56.7c-11.2,0-20.3-9.1-20.3-20.3v-21.5
	c0-11.2,9.1-20.3,20.3-20.3h21.5c11.2,0,20.3,9.1,20.3,20.3V218.2z M186.5,218.2c0,11.2-9.1,20.3-20.3,20.3h-21.5
	c-11.2,0-20.3-9.1-20.3-20.3v-21.5c0-11.2,9.1-20.3,20.3-20.3h21.5c11.2,0,20.3,9.1,20.3,20.3V218.2z M274.5,218.2
	c0,11.2-9.1,20.3-20.3,20.3h-21.5c-11.2,0-20.3-9.1-20.3-20.3v-21.5c0-11.2,9.1-20.3,20.3-20.3h21.5c11.2,0,20.3,9.1,20.3,20.3
	V218.2z M361,218.2c0,11.2-9.1,20.3-20.3,20.3h-21.5c-11.2,0-20.3-9.1-20.3-20.3v-21.5c0-11.2,9.1-20.3,20.3-20.3h21.5
	c11.2,0,20.3,9.1,20.3,20.3V218.2z"/>
</svg>
