<?xml version="1.0" encoding="utf-8"?>
<!-- Generator: Adobe Illustrator 22.1.0, SVG Export Plug-In . SVG Version: 6.00 Build 0)  -->
<svg version="1.1" id="Capa_1" xmlns="http://www.w3.org/2000/svg" xmlns:xlink="http://www.w3.org/1999/xlink" x="0px" y="0px"
	 viewBox="0 0 150 150" style="enable-background:new 0 0 150 150;" xml:space="preserve">
<style type="text/css">
	.st0{fill:#5B5B5B;}
</style>
<path class="st0" d="M26.2,54.2"/>
<path class="st0" d="M87.5,111c0-3.5,0.9-6.9,2.5-9.7c-1.4,0-2.4-1.2-2.4-2.7v-4.7c0-1.4,1.2-2.5,2.5-2.7h4.7c1.4,0,2.5,1.1,2.6,2.5
	c3-1.8,6.5-2.8,10.3-2.8c4.5,0,8.7,1.5,12.1,4.1V67.7c0-2.5-2-4.3-4.3-4.3H94.6V50.7c0-1.2-0.6-2.3-1.6-2.9l-17-9.2l-0.2-0.2v-5.3h9
	c0.8,0,1.2-0.6,1.2-1.2v-6.5c0-0.8-0.6-1.2-1.2-1.2h-9v-0.8c0-0.8-0.6-1.2-1.2-1.2s-1.4,0.4-1.4,1.2v15.1l-0.2,0.2l-16.8,9.4
	c-1,0.6-1.6,1.6-1.6,2.9v12.7H33.6c-2.5,0-4.3,1.8-4.3,4.3v46.2c-2.7,1.2-3.9,4.5-2.7,7.2c0.8,1.8,2.7,3.1,4.9,3.1h61.1
	C89.5,120.8,87.5,116.1,87.5,111z M102.5,78.7h0.2c0-1.4,1.2-2.7,2.7-2.7h4.7c1.4,0,2.7,1,2.7,2.5c0,0,0,0,0,0.2v4.7
	c0,1.4-1.2,2.7-2.7,2.7h-4.9c-1.4,0-2.7-1.2-2.7-2.7V78.7z M87.6,78.7c0-1.4,1.2-2.5,2.5-2.7h4.7c1.4,0,2.7,1.2,2.7,2.7v4.7
	c0,1.4-1.2,2.7-2.7,2.7h-4.7c-1.4,0-2.5-1.2-2.5-2.7V78.7z M74.3,50.9c3.9,0,7.2,3.3,7.2,7.2s-3.3,7.2-7.2,7.2
	c-3.9,0-7.2-3.1-7.2-7.2C67.2,54.2,70.4,50.9,74.3,50.9z M46.1,98.8c0,1.4-1,2.5-2.5,2.5h-4.7c-1.4,0-2.7-1.2-2.7-2.7v-4.7
	c0-1.4,1.2-2.7,2.7-2.7h4.7c1.2,0.2,2.5,1.4,2.5,2.9V98.8z M46.1,83.4c0,1.4-1,2.5-2.5,2.5h-4.7c-1.4,0-2.7-1.2-2.7-2.7v-4.7
	c0-1.4,1.2-2.7,2.7-2.7h4.7c1.2,0.4,2.5,1.4,2.5,2.9V83.4z M61.4,98.8c0,1.4-1,2.5-2.5,2.5h-4.7c-1.4,0-2.5-1.2-2.5-2.5v-4.7
	c0-1.4,1-2.5,2.5-2.5H59c1.2-0.2,2.5,1,2.5,2.5V98.8z M61.4,83.4c0,1.4-1,2.5-2.5,2.5h-4.7c-1.4,0-2.5-1.2-2.5-2.5v-4.7
	c0-1.4,1-2.5,2.5-2.5H59c1.2,0,2.5,1,2.5,2.5V83.4z M81.7,112.5c0,0.4-0.2,0.8-0.4,1.2H67.4c-0.2-0.4-0.4-0.8-0.4-1.2v-20
	c0-1.4,1.2-2.5,2.5-2.5h9.4c1.6-0.2,2.9,1,2.9,2.5V112.5z"/>
<g>
	<path class="st0" d="M107.7,92.9c-10,0-18.1,8.1-18.1,18.1s8.1,18.1,18.1,18.1s18.1-8.1,18.1-18.1S117.7,92.9,107.7,92.9z
		 M118,106.8l-11.9,11.9c-0.6,0.6-1.6,1.8-2.2,1.8c0,0,0,0,0,0c0,0,0,0-0.1,0c-0.6,0-1.7-1.4-2.2-1.9c-1.8-1.8-3.4-3.3-5.2-5.1
		c-0.3-0.3-0.8-0.8-0.8-1.2c0-0.8,1-1.6,1.4-2c0.3-0.3,0.9-1,1.4-1.2c0.2-0.1,0.4-0.2,0.5-0.2c0.6,0,2,1.7,2.5,2.2l2.4,2.3
		c3-2.8,6.1-6.1,9.2-9.1c0.9-1.1,2-2.1,3.1-3c0,0,0,0,0.1,0c0,0,0,0,0,0c0.7-0.4,1.6,0.8,2.3,1.4c0.6,0.6,1.4,1.3,1.5,1.8
		C119.9,105.1,118.5,106.3,118,106.8z"/>
</g>
</svg>
