<?xml version="1.0" encoding="utf-8"?>
<!-- Generator: Adobe Illustrator 22.1.0, SVG Export Plug-In . SVG Version: 6.00 Build 0)  -->
<svg version="1.1" id="Capa_1" xmlns="http://www.w3.org/2000/svg" xmlns:xlink="http://www.w3.org/1999/xlink" x="0px" y="0px"
	 viewBox="0 0 150 150" style="enable-background:new 0 0 150 150;" xml:space="preserve">
<style type="text/css">
	.st0{fill:#5B5B5B;}
</style>
<path class="st0" d="M23.7,72.4c3.5,0,6.6-1.4,8.9-3.6l12.7,6.3c-0.1,0.5-0.2,1-0.2,1.6c0,7.1,5.8,12.8,12.8,12.8
	s12.8-5.8,12.8-12.8c0-2-0.5-3.8-1.3-5.5L86.6,54c1.7,0.8,3.5,1.3,5.5,1.3c7.1,0,12.8-5.8,12.8-12.8c0-1.3-0.3-2.6-0.6-3.8
	l14.9-11.2c2,1.4,4.5,2.2,7.1,2.2c7.1,0,12.8-5.8,12.8-12.8S133.4,4,126.3,4s-12.8,5.8-12.8,12.8c0,1.3,0.3,2.6,0.6,3.8L99.2,31.8
	c-2-1.4-4.5-2.2-7.1-2.2c-7.1,0-12.8,5.8-12.8,12.8c0,2,0.5,3.8,1.3,5.5L63.4,65.2c-1.7-0.8-3.5-1.3-5.5-1.3c-3.5,0-6.6,1.4-8.9,3.6
	l-12.7-6.3c0.1-0.5,0.2-1,0.2-1.6c0-7.1-5.8-12.8-12.8-12.8s-12.8,5.8-12.8,12.8S16.6,72.4,23.7,72.4z"/>
<path class="st0" d="M143.7,141.4h-4.6V51.1c0-2.4-1.9-4.3-4.3-4.3h-17.1c-2.4,0-4.3,1.9-4.3,4.3v90.4h-8.6V76.7
	c0-2.4-1.9-4.3-4.3-4.3H83.6c-2.4,0-4.3,1.9-4.3,4.3v64.7h-8.6v-30.5c0-2.4-1.9-4.3-4.3-4.3H49.3c-2.4,0-4.3,1.9-4.3,4.3v30.5h-8.6
	V93.8c0-2.4-1.9-4.3-4.3-4.3H15.1c-2.4,0-4.3,1.9-4.3,4.3v47.6H6.3c-2.4,0-4.3,1.9-4.3,4.3s1.9,4.3,4.3,4.3h137.4
	c2.4,0,4.3-1.9,4.3-4.3S146.1,141.4,143.7,141.4z"/>
<path class="st0" d="M20,54.8"/>
</svg>
