<svg id="Capa_1" data-name="Capa 1" xmlns="http://www.w3.org/2000/svg" viewBox="0 0 88.9 88.9"><defs><style>.cls-1{fill:#5b5b5b;}</style></defs><title>iconoHistorial</title><path class="cls-1" d="M123.36,76.08h-5.17V65.32a4,4,0,0,0-4-4H109.3v-.81a6.37,6.37,0,0,0-2-4.66l-19.22-18a6.45,6.45,0,0,0-4.37-1.72H54.89A4.85,4.85,0,0,0,50,40.94v10H42.22a4,4,0,0,0-4,4v67h.08a3.87,3.87,0,0,0,.7,1.53A3.75,3.75,0,0,0,42,125H108.3a3.76,3.76,0,0,0,3.63-2.69l15.15-41.54v-.26C127.08,77.94,125.51,76.08,123.36,76.08ZM84.11,39.47l.3-.13L106,59.49l-.12.3h-20A1.83,1.83,0,0,1,84.11,58ZM78.58,53.56v2.87a1.28,1.28,0,0,1-1.28,1.28h-16A1.28,1.28,0,0,1,60,56.43V53.56a1.28,1.28,0,0,1,1.28-1.28h16A1.28,1.28,0,0,1,78.58,53.56ZM59.68,43.28A1.27,1.27,0,0,1,61,42H76.9a1.27,1.27,0,0,1,1.28,1.27v2.88a1.28,1.28,0,0,1-1.28,1.28H61a1.28,1.28,0,0,1-1.28-1.28Zm-.08,21.6A1.88,1.88,0,0,1,61.48,63h36.2a1.88,1.88,0,0,1,1.88,1.88v1.67a1.88,1.88,0,0,1-1.88,1.88H61.48a1.88,1.88,0,0,1-1.88-1.88Zm55.62,11.2H57a3.77,3.77,0,0,0-3.63,2.69L41.14,112.43V54.94a1.08,1.08,0,0,1,1.08-1.08H50V82l2.47-6.17a2,2,0,0,1,1.83-1.24h55V64.23h4.84a1.08,1.08,0,0,1,1.08,1.09Z" transform="translate(-38.18 -36.08)"/></svg>