<svg id="Capa_1" data-name="Capa 1" xmlns="http://www.w3.org/2000/svg" viewBox="0 0 73.74 73.74"><defs><style>.cls-1{fill:#5b5b5b;}</style></defs><title>iconoInfraestructura</title><path class="cls-1" d="M59.39,52.42V29.8a2.13,2.13,0,0,0-2.14-2.13H47.11V21.51a1.62,1.62,0,0,0-.83-1.4L38,15.52l-.14-.07V12.83h4.44a.64.64,0,0,0,.64-.64V9a.64.64,0,0,0-.64-.64H37.9V8a.64.64,0,1,0-1.28,0v7.43l-.14.07-8.24,4.59a1.61,1.61,0,0,0-.82,1.4v6.16H17.27a2.13,2.13,0,0,0-2.14,2.13V52.42a2.62,2.62,0,0,0,1.08,5h42.1a2.62,2.62,0,0,0,1.08-5Zm-8.26-17.3a1.25,1.25,0,0,1,1.25-1.25H54.7A1.25,1.25,0,0,1,56,35.12v2.32a1.25,1.25,0,0,1-1.25,1.25H52.38a1.25,1.25,0,0,1-1.25-1.25V35.12Zm0,7.48a1.25,1.25,0,0,1,1.25-1.25H54.7A1.25,1.25,0,0,1,56,42.6v2.32a1.25,1.25,0,0,1-1.25,1.25H52.38a1.25,1.25,0,0,1-1.25-1.25V42.6Zm-7.48-7.48a1.25,1.25,0,0,1,1.24-1.25h2.33a1.25,1.25,0,0,1,1.25,1.25v2.32a1.25,1.25,0,0,1-1.25,1.25H44.89a1.25,1.25,0,0,1-1.24-1.25Zm0,7.48a1.25,1.25,0,0,1,1.24-1.25h2.33a1.25,1.25,0,0,1,1.25,1.25v2.32a1.25,1.25,0,0,1-1.25,1.25H44.89a1.25,1.25,0,0,1-1.24-1.25ZM37.26,21.52A3.53,3.53,0,1,1,33.74,25,3.53,3.53,0,0,1,37.26,21.52ZM33.73,41.76A1.24,1.24,0,0,1,35,40.52h4.57a1.23,1.23,0,0,1,1.24,1.24v9.81a1.3,1.3,0,0,1-.16.62H33.9a1.2,1.2,0,0,1-.17-.62V41.76Zm-7.67-6.64a1.24,1.24,0,0,1,1.24-1.25h2.33a1.24,1.24,0,0,1,1.24,1.25v2.32a1.24,1.24,0,0,1-1.24,1.25H27.3a1.24,1.24,0,0,1-1.24-1.25Zm0,7.48a1.24,1.24,0,0,1,1.24-1.25h2.33a1.24,1.24,0,0,1,1.24,1.25v2.32a1.24,1.24,0,0,1-1.24,1.25H27.3a1.24,1.24,0,0,1-1.24-1.25Zm-7.49-7.48a1.25,1.25,0,0,1,1.25-1.25h2.33a1.24,1.24,0,0,1,1.24,1.25v2.32a1.24,1.24,0,0,1-1.24,1.25H19.82a1.25,1.25,0,0,1-1.25-1.25V35.12Zm0,7.48a1.25,1.25,0,0,1,1.25-1.25h2.33a1.24,1.24,0,0,1,1.24,1.25v2.32a1.24,1.24,0,0,1-1.24,1.25H19.82a1.25,1.25,0,0,1-1.25-1.25V42.6Z"/></svg>