<?xml version="1.0" encoding="utf-8"?>
<!-- Generator: Adobe Illustrator 22.1.0, SVG Export Plug-In . SVG Version: 6.00 Build 0)  -->
<svg version="1.1" id="Capa_1" xmlns="http://www.w3.org/2000/svg" xmlns:xlink="http://www.w3.org/1999/xlink" x="0px" y="0px"
	 viewBox="0 0 150 150" style="enable-background:new 0 0 150 150;" xml:space="preserve">
<style type="text/css">
	.st0{fill:#5B5B5B;}
</style>
<path class="st0" d="M117.9,97.7c-2.3,0-4.4,0.9-6.1,2.3l-17.6-9.9c1-2.5,1.6-5.2,1.6-8c0-5.5-2.1-10.5-5.5-14.3l17.7-20.7
	c1,0.4,2.2,0.6,3.4,0.6c5.2,0,9.4-4.2,9.4-9.4s-4.2-9.6-9.4-9.6c-5.2,0-9.4,4.4-9.4,9.6c0,1.7,0.5,3.3,1.3,4.6L85.7,63.7
	c-3.4-2.2-7.4-3.4-11.7-3.4c-3.4,0-6.5,0.8-9.4,2.2l-8.1-12.2c1.2-1.6,1.9-3.5,1.9-5.6c0-5.2-4.2-9.4-9.4-9.4s-9.4,4.2-9.4,9.4
	S43.8,54,49,54c0.8,0,1.5-0.1,2.3-0.3l8.2,12.2c-4.5,4-7.3,9.7-7.3,16.2c0,2,0.3,3.8,0.8,5.6l-16,6.8c-1.7-1.9-4.1-3-6.9-3
	c-5.2,0-9.4,4.2-9.4,9.4s4.2,9.4,9.4,9.4s9.4-4.2,9.4-9.4c0-0.2,0-0.4-0.1-0.6l16-6.8c3.8,6.3,10.7,10.5,18.6,10.5l1.9,13.8
	c-3,1.6-5,4.7-5,8.3c0,5.2,4.2,9.4,9.4,9.4s9.4-4.2,9.4-9.4c0-4.5-3.2-8.3-7.5-9.2l-2-13.9c4.4-1.3,8.2-3.9,11-7.5l17.6,9.9
	c-0.1,0.5-0.2,1.1-0.2,1.7c0,5.2,4.2,9.4,9.4,9.4s9.4-4.2,9.4-9.4C127.3,101.9,123.1,97.7,117.9,97.7z"/>
</svg>
