<?xml version="1.0" encoding="utf-8"?>
<!-- Generator: Adobe Illustrator 18.0.0, SVG Export Plug-In . SVG Version: 6.00 Build 0)  -->
<!DOCTYPE svg PUBLIC "-//W3C//DTD SVG 1.1//EN" "http://www.w3.org/Graphics/SVG/1.1/DTD/svg11.dtd">
<svg version="1.1" id="Capa_1" xmlns="http://www.w3.org/2000/svg" xmlns:xlink="http://www.w3.org/1999/xlink" x="0px" y="0px"
	 viewBox="200 0 560 560" enable-background="new 200 0 560 560" xml:space="preserve">
<g>
	<path fill="#FFFFFF" d="M482.1,186.7c20.7,0,39.4,6.2,56,18.7l-49.8,49.8l6.2,6.2h147.3V114.1l-6.2-8.3l-49.8,49.8
		c-29-24.9-66.4-37.3-103.7-37.3c-74.7,0-136.9,49.8-155.6,118.2l66.4,18.7C403.3,215.7,438.5,186.7,482.1,186.7z"/>
</g>
<path fill="#FFFFFF" d="M571.3,307c-12.4,39.4-47.7,68.4-89.2,68.4c-20.7,0-39.4-6.2-56-18.7l49.8-49.8l-6.2-6.2H322.4V448l6.2,6.2
	l49.8-49.8c29,22.8,64.3,37.3,103.7,37.3c72.6,0,136.9-47.7,155.6-118.2L571.3,307z"/>
</svg>
