<?xml version="1.0" encoding="utf-8"?>
<!-- Generator: Adobe Illustrator 18.0.0, SVG Export Plug-In . SVG Version: 6.00 Build 0)  -->
<!DOCTYPE svg PUBLIC "-//W3C//DTD SVG 1.1//EN" "http://www.w3.org/Graphics/SVG/1.1/DTD/svg11.dtd">
<svg version="1.1" xmlns="http://www.w3.org/2000/svg" xmlns:xlink="http://www.w3.org/1999/xlink" x="0px" y="0px"
	 viewBox="0 0 27 27" enable-background="new 0 0 27 27" xml:space="preserve">
<g id="Capa_2">
</g>
<g id="Capa_1">
	<path fill="#FFFFFF" d="M17.6,6.7c-2.4-1.5-5.6-0.9-7.1,1.5l-3.4,5.2C7,13.6,7.1,13.9,7.3,14l0.8,0.5c0.2,0.1,0.5,0.1,0.6-0.1
		l3.4-5.2c1-1.5,3-1.9,4.5-0.9c1.5,1,1.9,3,0.9,4.5l-4.2,6.4c-0.4,0.6-1.7,0.7-2.4,0.2c-0.7-0.5-1.1-1.6-0.7-2.2l3.7-5.6
		c0.1-0.1,0.4-0.2,0.6-0.1c0.2,0.1,0.3,0.4,0.2,0.6l-3.1,4.7c-0.1,0.2-0.1,0.5,0.1,0.6l0.8,0.5c0.2,0.1,0.5,0.1,0.6-0.1l3.1-4.7
		c0.7-1,0.3-2.5-0.8-3.2c-1.1-0.7-2.6-0.4-3.2,0.6l-3.7,5.6c-0.5,0.7-0.6,1.7-0.3,2.7c0.3,0.9,0.8,1.7,1.6,2.1
		c0.7,0.5,1.7,0.7,2.6,0.6c1-0.1,1.9-0.6,2.4-1.4l4.2-6.4C20.7,11.5,20,8.3,17.6,6.7z"/>
</g>
</svg>
