<?xml version="1.0" encoding="utf-8"?>
<!-- Generator: Adobe Illustrator 18.0.0, SVG Export Plug-In . SVG Version: 6.00 Build 0)  -->
<!DOCTYPE svg PUBLIC "-//W3C//DTD SVG 1.1//EN" "http://www.w3.org/Graphics/SVG/1.1/DTD/svg11.dtd">
<svg version="1.1" id="Capa_1" xmlns="http://www.w3.org/2000/svg" xmlns:xlink="http://www.w3.org/1999/xlink" x="0px" y="0px"
	 viewBox="200 0 560 560" enable-background="new 200 0 560 560" xml:space="preserve">
<g>
	<path fill="#FFFFFF" d="M596.1,396.1c-64.3,64.3-165.9,64.3-230.2,0s-64.3-165.9,0-230.2c18.7-18.7,39.4-31.1,62.2-39.4v76.7
		c-4.1,4.1-8.3,6.2-12.4,10.4c-37.3,37.3-37.3,95.4,0,132.7s95.4,37.3,132.7,0s37.3-95.4,0-132.7c-4.1-4.1-8.3-8.3-12.4-10.4v-76.7
		c22.8,8.3,43.6,20.7,62.2,39.4C658.4,228.1,658.4,331.9,596.1,396.1z"/>
</g>
<rect x="451" y="101.6" fill="#FFFFFF" width="60.1" height="199.1"/>
</svg>
