<?xml version="1.0" encoding="utf-8"?>
<!-- Generator: Adobe Illustrator 18.0.0, SVG Export Plug-In . SVG Version: 6.00 Build 0)  -->
<!DOCTYPE svg PUBLIC "-//W3C//DTD SVG 1.1//EN" "http://www.w3.org/Graphics/SVG/1.1/DTD/svg11.dtd">
<svg version="1.1" xmlns="http://www.w3.org/2000/svg" xmlns:xlink="http://www.w3.org/1999/xlink" x="0px" y="0px"
	 viewBox="0 0 27 27" enable-background="new 0 0 27 27" xml:space="preserve">
<g id="Capa_2">
</g>
<g id="Capa_1">
	<path fill="#FFFFFF" d="M13.5,5.9c-4.2,0-7.6,3.4-7.6,7.6c0,4.2,3.4,7.6,7.6,7.6c4.2,0,7.6-3.4,7.6-7.6C21.1,9.3,17.7,5.9,13.5,5.9
		z M14.6,18.2h-2.4v-1.8h2.4V18.2z M16.6,12.7c-0.1,0.3-0.3,0.6-0.5,0.8c-0.2,0.2-0.5,0.4-0.8,0.6c-0.3,0.2-0.5,0.3-0.8,0.4v1.2
		h-2.4v-1.9c0.6,0,1.7-0.4,2.1-1.1c0.4-0.5,0.4-1.8-1.2-1.7c-1,0-1.6,0.5-1.9,0.7h-0.2V9.8c0.3-0.1,0.6-0.2,1.2-0.3s1-0.2,1.6-0.2
		c1,0,1.7,0.2,2.3,0.6s0.8,1,0.8,1.7C16.8,12,16.8,12.4,16.6,12.7z"/>
</g>
</svg>
