<?xml version="1.0" encoding="utf-8"?>
<!-- Generator: Adobe Illustrator 18.0.0, SVG Export Plug-In . SVG Version: 6.00 Build 0)  -->
<!DOCTYPE svg PUBLIC "-//W3C//DTD SVG 1.1//EN" "http://www.w3.org/Graphics/SVG/1.1/DTD/svg11.dtd">
<svg version="1.1" xmlns="http://www.w3.org/2000/svg" xmlns:xlink="http://www.w3.org/1999/xlink" x="0px" y="0px"
	 viewBox="0 0 27 27" enable-background="new 0 0 27 27" xml:space="preserve">
<g id="Capa_2">
</g>
<g id="Capa_1">
	<rect x="11.3" y="17.6" fill="#FFFFFF" width="3.6" height="2.7"/>
	<path fill="#FFFFFF" d="M18.1,11.8c-0.2,0.5-0.4,0.9-0.8,1.2c-0.3,0.3-0.7,0.6-1.2,0.9c-0.5,0.3-0.7,0.4-1.3,0.6v1.9h-3.6v-2.9
		c0.8-0.1,2.6-0.7,3.3-1.6c0.6-0.8,0.6-2.7-1.9-2.6c-1.5,0.1-2.5,0.7-2.9,1H9.4V7.4c0.4-0.2,1-0.3,1.8-0.5s1.6-0.3,2.4-0.3
		c1.5,0,2.7,0.3,3.5,1c0.9,0.7,1.3,1.5,1.3,2.6C18.4,10.8,18.3,11.4,18.1,11.8z"/>
</g>
</svg>
