<?xml version="1.0" encoding="utf-8"?>
<!-- Generator: Adobe Illustrator 18.0.0, SVG Export Plug-In . SVG Version: 6.00 Build 0)  -->
<!DOCTYPE svg PUBLIC "-//W3C//DTD SVG 1.1//EN" "http://www.w3.org/Graphics/SVG/1.1/DTD/svg11.dtd">
<svg version="1.1" id="Capa_1" xmlns="http://www.w3.org/2000/svg" xmlns:xlink="http://www.w3.org/1999/xlink" x="0px" y="0px"
	 viewBox="200 0 560 560" enable-background="new 200 0 560 560" xml:space="preserve">
<g>
	<path fill="#FFFFFF" d="M467.6,360.9l-85,85l-62.2-62.2l85-85c6.2,12.4,14.5,24.9,27,37.3C440.6,344.3,453,354.7,467.6,360.9z"/>
</g>
<path fill="#FFFFFF" d="M608.6,155.6c-45.6-45.6-118.2-45.6-163.9,0s-45.6,118.2,0,163.9l0,0c45.6,45.6,118.2,45.6,163.9,0
	C652.1,275.9,652.1,201.2,608.6,155.6z M579.6,292.4c-29,29-78.8,29-107.9,0l0,0l0,0c-29-29-29-78.8,0-107.9s78.8-29,107.9,0
	C610.7,213.6,610.7,261.3,579.6,292.4z"/>
</svg>
