<?xml version="1.0" encoding="utf-8"?>
<!-- Generator: Adobe Illustrator 18.0.0, SVG Export Plug-In . SVG Version: 6.00 Build 0)  -->
<!DOCTYPE svg PUBLIC "-//W3C//DTD SVG 1.1//EN" "http://www.w3.org/Graphics/SVG/1.1/DTD/svg11.dtd">
<svg version="1.1" id="Capa_1" xmlns="http://www.w3.org/2000/svg" xmlns:xlink="http://www.w3.org/1999/xlink" x="0px" y="0px"
	 viewBox="200 0 560 560" enable-background="new 200 0 560 560" xml:space="preserve">
<path fill="#FFFFFF" d="M592,143.1v41.5c0,10.4-8.3,16.6-16.6,16.6h-8.3c-10.4,0-16.6-8.3-16.6-16.6v-41.5
	c0-10.4,8.3-16.6,16.6-16.6h8.3C583.7,124.4,592,132.7,592,143.1z"/>
<g>
	<path fill="#FFFFFF" d="M484.1,354.7h-45.6c2.1-2.1,4.1-4.1,6.2-6.2c2.1-2.1,6.2-4.1,12.4-8.3c10.4-6.2,16.6-12.4,20.7-18.7
		c4.1-6.2,6.2-12.4,6.2-18.7c0-6.2-2.1-12.4-4.1-16.6c-4.1-4.1-8.3-8.3-12.4-10.4c-6.2-2.1-14.5-4.1-24.9-4.1
		c-10.4,0-16.6,2.1-22.8,4.1c-6.2,2.1-10.4,6.2-12.4,10.4c-2.1,4.1-4.1,10.4-6.2,18.7l29,2.1c0-6.2,2.1-10.4,4.1-12.4
		c2.1-2.1,6.2-4.1,8.3-4.1c4.1,0,6.2,2.1,8.3,4.1s4.1,4.1,4.1,8.3c0,2.1-2.1,6.2-4.1,10.4c-2.1,4.1-8.3,8.3-16.6,14.5
		c-14.5,10.4-22.8,18.7-29,27c-4.1,8.3-8.3,16.6-8.3,24.9h87.1L484.1,354.7L484.1,354.7z"/>
</g>
<g>
	<path fill="#FFFFFF" d="M538.1,273.8c-2.1,6.2-8.3,12.4-12.4,16.6c-6.2,4.1-12.4,8.3-22.8,12.4v22.8c6.2-2.1,12.4-4.1,16.6-6.2
		c4.1-2.1,8.3-4.1,14.5-8.3v70.5h29V275.9h-24.9V273.8z"/>
</g>
<path fill="#FFFFFF" d="M612.7,147.3v35.3c0,20.7-16.6,37.3-37.3,37.3h-8.3c-20.7,0-37.3-16.6-37.3-37.3v-35.3h-99.6v35.3
	c0,20.7-16.6,37.3-37.3,37.3h-8.3c-20.7,0-37.3-16.6-37.3-37.3v-35.3h-24.9v294.5h315.3V147.3H612.7z M598.2,406.5H361.8v-168h236.4
	V406.5z"/>
<path fill="#FFFFFF" d="M392.9,124.4h-8.3c-8.3,0-16.6,8.3-16.6,18.7v41.5c0,10.4,8.3,16.6,16.6,16.6h8.3c10.4,0,16.6-8.3,16.6-16.6
	v-41.5C411.6,132.7,403.3,124.4,392.9,124.4z"/>
</svg>
