<?xml version="1.0" encoding="utf-8"?>
<!-- Generator: Adobe Illustrator 18.0.0, SVG Export Plug-In . SVG Version: 6.00 Build 0)  -->
<!DOCTYPE svg PUBLIC "-//W3C//DTD SVG 1.1//EN" "http://www.w3.org/Graphics/SVG/1.1/DTD/svg11.dtd">
<svg version="1.1" id="Capa_1" xmlns="http://www.w3.org/2000/svg" xmlns:xlink="http://www.w3.org/1999/xlink" x="0px" y="0px"
	 viewBox="200 0 560 560" enable-background="new 200 0 560 560" xml:space="preserve">
<path fill="#FFFFFF" d="M650.1,302.8c-12.4,2.1-27-4.1-31.1-18.7c-4.1-12.4,2.1-27,14.5-33.2c-4.1-8.3-10.4-16.6-16.6-24.9
	c-8.3,10.4-24.9,12.4-35.3,4.1c-10.4-8.3-14.5-22.8-8.3-35.3c-8.3-4.1-18.7-6.2-29-8.3c-2.1,14.5-12.4,24.9-27,24.9
	c-14.5,0-24.9-10.4-27-24.9c-10.4,2.1-18.7,4.1-27,8.3c6.2,12.4,4.1,27-8.3,35.3c-10.4,8.3-27,6.2-35.3-4.1
	c-6.2,6.2-12.4,14.5-16.6,22.8c12.4,6.2,18.7,20.7,14.5,33.2c-4.1,12.4-18.7,20.7-31.1,18.7c0,6.2,0,10.4,0,16.6c0,4.1,0,8.3,0,12.4
	c12.4-2.1,27,6.2,31.1,18.7c4.1,12.4-2.1,27-14.5,33.2c4.1,8.3,10.4,16.6,16.6,24.9c10.4-10.4,24.9-12.4,35.3-4.1
	s14.5,22.8,8.3,35.3c8.3,4.1,18.7,6.2,29,10.4c2.1-14.5,12.4-24.9,27-22.8c14.5,0,24.9,10.4,27,24.9c10.4-2.1,18.7-4.1,29-8.3
	c-6.2-12.4-4.1-27,8.3-35.3c10.4-8.3,27-6.2,35.3,4.1c6.2-6.2,12.4-14.5,16.6-22.8c-12.4-6.2-18.7-20.7-14.5-33.2
	c4.1-12.4,18.7-20.7,31.1-18.7c0-4.1,0-10.4,0-14.5C652.1,313.2,652.1,307,650.1,302.8z M517.3,371.3c-31.1,0-53.9-24.9-53.9-53.9
	c0-31.1,24.9-53.9,53.9-53.9c31.1,0,53.9,24.9,53.9,53.9C573.3,346.4,548.4,371.3,517.3,371.3z"/>
<path fill="#FFFFFF" d="M434.4,165.9c-6.2,2.1-12.4-2.1-14.5-8.3s0-12.4,6.2-16.6c-2.1-4.1-4.1-8.3-8.3-10.4
	c-4.1,4.1-10.4,6.2-16.6,2.1c-4.1-4.1-6.2-10.4-4.1-16.6c-4.1-2.1-8.3-4.1-12.4-4.1c0,6.2-6.2,10.4-12.4,10.4s-12.4-4.1-12.4-10.4
	c-6.2,0-10.4,2.1-14.5,4.1c4.1,6.2,2.1,12.4-4.1,16.6c-4.1,4.1-12.4,2.1-16.6-2.1c-2.1,4.1-6.2,6.2-8.3,10.4
	c6.2,4.1,10.4,10.4,8.3,16.6c-2.1,6.2-10.4,10.4-16.6,8.3c0,2.1,0,4.1,0,8.3c0,2.1,0,4.1,0,6.2c6.2-2.1,12.4,2.1,14.5,8.3
	c2.1,6.2,0,12.4-6.2,16.6c2.1,4.1,4.1,8.3,8.3,12.4c4.1-4.1,12.4-6.2,16.6-2.1c6.2,4.1,6.2,10.4,4.1,16.6c4.1,2.1,8.3,4.1,12.4,4.1
	c0-6.2,6.2-10.4,12.4-10.4s12.4,4.1,12.4,12.4c4.1,0,8.3-2.1,12.4-4.1c-4.1-6.2-2.1-12.4,4.1-16.6s12.4-2.1,16.6,2.1
	c4.1-4.1,6.2-6.2,8.3-10.4c-6.2-2.1-8.3-10.4-6.2-16.6s8.3-10.4,14.5-8.3c0-2.1,0-4.1,0-8.3C434.4,172.1,434.4,170.1,434.4,165.9z
	 M372.1,199.1c-14.5,0-27-10.4-27-24.9s12.4-27,27-27s27,12.4,27,27C397,188.7,386.7,199.1,372.1,199.1z"/>
</svg>
