<?xml version="1.0" encoding="utf-8"?>
<!-- Generator: Adobe Illustrator 18.0.0, SVG Export Plug-In . SVG Version: 6.00 Build 0)  -->
<!DOCTYPE svg PUBLIC "-//W3C//DTD SVG 1.1//EN" "http://www.w3.org/Graphics/SVG/1.1/DTD/svg11.dtd">
<svg version="1.1" id="Capa_1" xmlns="http://www.w3.org/2000/svg" xmlns:xlink="http://www.w3.org/1999/xlink" x="0px" y="0px"
	 viewBox="200 0 560 560" enable-background="new 200 0 560 560" xml:space="preserve">
<path fill="#FFFFFF" d="M475.9,344.3l35.3,10.4c6.2-20.7,24.9-35.3,45.6-35.3c10.4,0,20.7,4.1,29,8.3l-24.9,24.9l2.1,2.1l2.1,2.1
	l0,0l0,0h76.7V280l-6.2-2.1l-24.9,24.9c-14.5-12.4-33.2-18.7-53.9-18.7C519.4,284.1,486.2,309,475.9,344.3z"/>
<path fill="#FFFFFF" d="M556.7,416.9c-10.4,0-20.7-4.1-29-8.3l24.9-24.9l-2.1-2.1h-76.7v76.7l2.1,2.1l24.9-24.9
	c14.5,12.4,33.2,18.7,53.9,18.7c37.3,0,70.5-24.9,80.9-60.1l-35.3-10.4C598.2,402.4,579.6,416.9,556.7,416.9z"/>
<path fill="#FFFFFF" d="M461.3,340.1c4.1-14.5,12.4-27,22.8-37.3H380.4v-20.7H509c14.5-8.3,31.1-12.4,47.7-12.4c2.1,0,4.1,0,6.2,0
	v-66.4l-80.9-80.9H328.6v315.3h130.7v-78.8h-78.8v-20.7h80.9V340.1z M380.4,224h130.7v20.7H380.4V224z"/>
</svg>
