<?xml version="1.0" encoding="utf-8"?>
<!-- Generator: Adobe Illustrator 18.0.0, SVG Export Plug-In . SVG Version: 6.00 Build 0)  -->
<!DOCTYPE svg PUBLIC "-//W3C//DTD SVG 1.1//EN" "http://www.w3.org/Graphics/SVG/1.1/DTD/svg11.dtd">
<svg version="1.1" id="Capa_1" xmlns="http://www.w3.org/2000/svg" xmlns:xlink="http://www.w3.org/1999/xlink" x="0px" y="0px"
	 viewBox="200 0 560 560" enable-background="new 200 0 560 560" xml:space="preserve">
<path fill="#FFFFFF" d="M480,116.1c-89.2,0-163.9,72.6-163.9,163.9S388.7,443.9,480,443.9S643.9,371.3,643.9,280
	S569.2,116.1,480,116.1z M480,186.7c14.5,0,29,4.1,41.5,10.4L397,321.5c-6.2-12.4-10.4-27-10.4-41.5
	C386.7,228.1,428.1,186.7,480,186.7z M480,373.3c-14.5,0-29-4.1-41.5-10.4L563,238.5c6.2,12.4,10.4,27,10.4,41.5
	C573.3,331.9,531.9,373.3,480,373.3z"/>
</svg>
