<?xml version="1.0" encoding="utf-8"?>
<!-- Generator: Adobe Illustrator 18.0.0, SVG Export Plug-In . SVG Version: 6.00 Build 0)  -->
<!DOCTYPE svg PUBLIC "-//W3C//DTD SVG 1.1//EN" "http://www.w3.org/Graphics/SVG/1.1/DTD/svg11.dtd">
<svg version="1.1" id="Capa_1" xmlns="http://www.w3.org/2000/svg" xmlns:xlink="http://www.w3.org/1999/xlink" x="0px" y="0px"
	 viewBox="200 0 560 560" enable-background="new 200 0 560 560" xml:space="preserve">
<path fill="#FFFFFF" d="M552.6,126.5c-49.8,0-91.3,41.5-91.3,91.3v56H314.1v168h232.3v-168h-43.6v-56c0-27,22.8-49.8,49.8-49.8
	s49.8,22.8,49.8,49.8v31.1h41.5v-31.1C645.9,168,604.4,126.5,552.6,126.5z M440.6,360.9v39.4h-20.7v-39.4c-4.1-4.1-8.3-8.3-8.3-14.5
	c0-10.4,8.3-18.7,18.7-18.7c10.4,0,18.7,8.3,18.7,18.7C448.9,352.6,444.7,358.8,440.6,360.9z"/>
</svg>
