<?xml version="1.0" encoding="utf-8"?>
<!-- Generator: Adobe Illustrator 18.0.0, SVG Export Plug-In . SVG Version: 6.00 Build 0)  -->
<!DOCTYPE svg PUBLIC "-//W3C//DTD SVG 1.1//EN" "http://www.w3.org/Graphics/SVG/1.1/DTD/svg11.dtd">
<svg version="1.1" id="Capa_1" xmlns="http://www.w3.org/2000/svg" xmlns:xlink="http://www.w3.org/1999/xlink" x="0px" y="0px"
	 viewBox="200 0 560 560" enable-background="new 200 0 560 560" xml:space="preserve">
<g>
	<path fill="#FFFFFF" d="M403.3,240.6c6.2,31.1,31.1,60.1,53.9,60.1c24.9,0,45.6-27,53.9-60.1c0-2.1,4.1-4.1,6.2-12.4
		c2.1-8.3,2.1-16.6,0-18.7l0,0c-4.1-2.1-2.1-2.1-2.1-2.1s6.2-29,2.1-41.5c-6.2-20.7-49.8-35.3-58.1-37.3c0,0-4.1-2.1-6.2-2.1
		c0,0-6.2-2.1-14.5,2.1c-6.2,2.1-31.1,14.5-39.4,37.3c-4.1,12.4,2.1,41.5,2.1,41.5s0,0-2.1,2.1l0,0c-2.1,2.1-2.1,10.4,0,18.7
		C399.1,236.4,403.3,238.5,403.3,240.6z"/>
</g>
<g>
	<path fill="#FFFFFF" d="M556.7,300.7c-12.4,0-22.8,2.1-33.2,8.3c0,0-2.1,0-2.1,2.1c-16.6-8.3-24.9-16.6-24.9-16.6l-2.1,2.1
		c-12.4,8.3-24.9,14.5-35.3,14.5h-2.1c-12.4,0-24.9-6.2-35.3-16.6l-2.1-2.1c0,0-16.6,16.6-53.9,29c-58.1,20.7-39.4,107.9-39.4,109.9
		c2.1,10.4,2.1,12.4,4.1,12.4c43.6,18.7,136.9,24.9,203.3,14.5c8.3,2.1,16.6,4.1,24.9,4.1c43.6,0,80.9-35.3,80.9-80.9
		C637.6,336,600.3,300.7,556.7,300.7z M556.7,443.9c-35.3,0-64.3-29-64.3-64.3s29-64.3,64.3-64.3s64.3,29,64.3,64.3
		C621,414.8,592,443.9,556.7,443.9z"/>
</g>
<g>
	<path fill="#FFFFFF" d="M575.4,340.1l-18.7,18.7l-18.7-18.7c-2.1-2.1-6.2-2.1-8.3,0l-14.5,14.5c0,0-2.1,2.1-2.1,4.1
		c0,2.1,0,2.1,2.1,4.1l18.7,18.7l-18.7,18.7c0,0-2.1,2.1-2.1,4.1c0,2.1,0,2.1,2.1,4.1l14.5,14.5c2.1,2.1,6.2,2.1,8.3,0l18.7-18.7
		l18.7,18.7c2.1,2.1,2.1,2.1,4.1,2.1s2.1,0,4.1-2.1l14.5-14.5c0,0,2.1-2.1,2.1-4.1c0-2.1,0-2.1-2.1-4.1l-18.7-18.7l18.7-18.7
		c0,0,2.1-2.1,2.1-4.1c0-2.1,0-2.1-2.1-4.1l-14.5-14.5C581.6,338.1,577.5,338.1,575.4,340.1z"/>
</g>
</svg>
