<?xml version="1.0" encoding="utf-8"?>
<!-- Generator: Adobe Illustrator 18.0.0, SVG Export Plug-In . SVG Version: 6.00 Build 0)  -->
<!DOCTYPE svg PUBLIC "-//W3C//DTD SVG 1.1//EN" "http://www.w3.org/Graphics/SVG/1.1/DTD/svg11.dtd">
<svg version="1.1" id="Capa_1" xmlns="http://www.w3.org/2000/svg" xmlns:xlink="http://www.w3.org/1999/xlink" x="0px" y="0px"
	 viewBox="200 0 560 560" enable-background="new 200 0 560 560" xml:space="preserve">
<path fill="#FFFFFF" d="M621,165.9l-22.8-22.8c-27-27-72.6-29-95.4-4.1l-43.6,43.6c-12.4,12.4-18.7,29-18.7,47.7
	c0,6.2,2.1,12.4,4.1,18.7c-22.8-8.3-49.8-4.1-68.4,12.4l-43.6,43.6c-12.4,12.4-18.7,29-18.7,47.7s8.3,35.3,20.7,47.7l22.8,22.8
	c14.5,14.5,33.2,22.8,51.9,22.8c16.6,0,33.2-6.2,45.6-18.7l43.6-43.6c18.7-18.7,22.8-43.6,14.5-66.4c8.3,2.1,14.5,4.1,22.8,4.1
	c16.6,0,33.2-6.2,45.6-18.7l43.6-43.6c12.4-12.4,18.7-27,18.7-45.6C643.9,199.1,635.6,180.4,621,165.9z M589.9,238.5L548.4,280
	c-2.1,2.1-6.2,4.1-8.3,6.2l-29,27l0,0l-33.2,33.2c0,4.1-2.1,6.2-6.2,8.3l-41.5,41.5c-4.1,4.1-12.4,6.2-16.6,6.2
	c-8.3,0-16.6-4.1-22.8-10.4l-20.7-20.7c-6.2-6.2-8.3-12.4-10.4-20.7c0-6.2,2.1-12.4,6.2-16.6l41.5-41.5c2.1-2.1,6.2-4.1,8.3-6.2
	l29-29l0,0l33.2-33.2c0-4.1,2.1-6.2,4.1-8.3l41.5-41.5c4.1-4.1,12.4-6.2,16.6-6.2c8.3,0,16.6,4.1,22.8,10.4l20.7,20.7
	c6.2,6.2,10.4,14.5,10.4,22.8C596.1,226.1,596.1,232.3,589.9,238.5z"/>
<path fill="#FFFFFF" d="M542.2,228.1c8.3,8.3,8.3,22.8,0,31.1L451,350.5c-8.3,8.3-22.8,8.3-31.1,0l-4.1-4.1
	c-8.3-8.3-8.3-22.8,0-31.1L507,224c8.3-8.3,22.8-8.3,31.1,0L542.2,228.1z"/>
</svg>
