<?xml version="1.0" encoding="utf-8"?>
<!-- Generator: Adobe Illustrator 18.0.0, SVG Export Plug-In . SVG Version: 6.00 Build 0)  -->
<!DOCTYPE svg PUBLIC "-//W3C//DTD SVG 1.1//EN" "http://www.w3.org/Graphics/SVG/1.1/DTD/svg11.dtd">
<svg version="1.1" id="Capa_1" xmlns="http://www.w3.org/2000/svg" xmlns:xlink="http://www.w3.org/1999/xlink" x="0px" y="0px"
	 viewBox="200 0 560 560" enable-background="new 200 0 560 560" xml:space="preserve">
<path fill="#FFFFFF" d="M544.3,284.1c-47.7,0-87.1,39.4-87.1,87.1s39.4,87.1,87.1,87.1c47.7,0,87.1-39.4,87.1-87.1
	C631.4,321.5,592,284.1,544.3,284.1z M560.9,421h-33.2v-66.4h33.2V421z M560.9,344.3h-33.2v-22.8h33.2V344.3z"/>
<g>
	<path fill="#FFFFFF" d="M442.7,369.2c0-4.1,0-6.2,2.1-10.4h-62.2v-20.7h66.4c4.1-14.5,12.4-27,22.8-37.3h-91.3V280h114.1
		c14.5-8.3,31.1-14.5,49.8-14.5c6.2,0,12.4,0,18.7,2.1v-64.3l-80.9-80.9H328.6v315.3h141C453,419,442.7,396.1,442.7,369.2z
		 M380.4,224h130.7v20.7H380.4V224z"/>
</g>
</svg>
