<?xml version="1.0" encoding="utf-8"?>
<!-- Generator: Adobe Illustrator 18.0.0, SVG Export Plug-In . SVG Version: 6.00 Build 0)  -->
<!DOCTYPE svg PUBLIC "-//W3C//DTD SVG 1.1//EN" "http://www.w3.org/Graphics/SVG/1.1/DTD/svg11.dtd">
<svg version="1.1" id="Capa_1" xmlns="http://www.w3.org/2000/svg" xmlns:xlink="http://www.w3.org/1999/xlink" x="0px" y="0px"
	 viewBox="200 0 560 560" enable-background="new 200 0 560 560" xml:space="preserve">
<rect x="421.9" y="373.3" fill="#FFFFFF" width="116.1" height="20.7"/>
<path fill="#FFFFFF" d="M635.6,257.2c0-24.9-27-41.5-47.7-43.6v-91.3H372.1v91.3l0,0c-22.8,0-45.6,20.7-45.6,43.6
	c-2.1,22.8-2.1,136.9-2.1,136.9h47.7v43.6h217.8v-43.6h45.6C635.6,394.1,635.6,282.1,635.6,257.2z M390.8,141h178.4v72.6H390.8V141z
	 M569.2,419H390.8v-74.7h178.4V419z M606.5,292.4h-29v-29h29V292.4z"/>
</svg>
