<?xml version="1.0" encoding="utf-8"?>
<!-- Generator: Adobe Illustrator 18.0.0, SVG Export Plug-In . SVG Version: 6.00 Build 0)  -->
<!DOCTYPE svg PUBLIC "-//W3C//DTD SVG 1.1//EN" "http://www.w3.org/Graphics/SVG/1.1/DTD/svg11.dtd">
<svg version="1.1" id="Capa_1" xmlns="http://www.w3.org/2000/svg" xmlns:xlink="http://www.w3.org/1999/xlink" x="0px" y="0px"
	 viewBox="200 0 560 560" enable-background="new 200 0 560 560" xml:space="preserve">
<g id="Capa_2">
</g>
<g id="Capa_1_1_">
	<path fill="#005F7A" d="M480,8.6c-150.8,0-273.2,122.3-273.2,273.1S329,554.9,480,554.9c150.8,0,273.2-122.3,273.2-273.2
		C753.2,130.9,630.8,8.6,480,8.6z M529.6,432.9c0,8.6-7.1,15.7-15.7,15.7h-67.8c-8.6,0-15.7-7.1-15.7-15.7V225
		c0-8.6,7.1-15.7,15.7-15.7H514c8.6,0,15.7,7.1,15.7,15.7L529.6,432.9L529.6,432.9z M529.6,160.1c0,8.6-7.1,15.7-15.7,15.7h-67.8
		c-8.6,0-15.7-7.1-15.7-15.7v-29.7c0-8.6,7.1-15.7,15.7-15.7H514c8.6,0,15.7,7.1,15.7,15.7L529.6,160.1L529.6,160.1z"/>
</g>
<g id="Capa_3">
</g>
</svg>
