<?xml version="1.0" encoding="utf-8"?>
<!-- Generator: Adobe Illustrator 18.0.0, SVG Export Plug-In . SVG Version: 6.00 Build 0)  -->
<!DOCTYPE svg PUBLIC "-//W3C//DTD SVG 1.1//EN" "http://www.w3.org/Graphics/SVG/1.1/DTD/svg11.dtd">
<svg version="1.1" xmlns="http://www.w3.org/2000/svg" xmlns:xlink="http://www.w3.org/1999/xlink" x="0px" y="0px"
	 viewBox="0 0 442 404" enable-background="new 0 0 442 404" xml:space="preserve">
<g id="Capa_2">
</g>
<g id="Capa_1">
	<path fill="#80C41C" d="M221,6.2C112.2,6.2,23.9,94.4,23.9,203.2c0,108.8,88.2,197.1,197.1,197.1c108.8,0,197.1-88.2,197.1-197.1
		C418.1,94.4,329.8,6.2,221,6.2z M322.7,144.1L209.5,292c-3.8,5-6.9,9-7,8.9c0,0-0.1,0-0.1,0c0,0-3.7-3.5-8.1-7.9l-74-74.2
		c-4.4-4.4-4.4-11.6,0-16l33.1-33.1c4.4-4.4,11.6-4.4,16,0l25.4,25.4c4.4,4.4,11.9,4.7,16.5,0.6l94.4-82.7
		c4.7-4.1,10.9-2.9,13.7,2.6l4.9,9.5C327.3,130.6,326.5,139.2,322.7,144.1z"/>
</g>
<g id="Capa_3">
</g>
</svg>
