<?xml version="1.0" encoding="utf-8"?>
<!-- Generator: Adobe Illustrator 18.0.0, SVG Export Plug-In . SVG Version: 6.00 Build 0)  -->
<!DOCTYPE svg PUBLIC "-//W3C//DTD SVG 1.1//EN" "http://www.w3.org/Graphics/SVG/1.1/DTD/svg11.dtd">
<svg version="1.1" id="Capa_1" xmlns="http://www.w3.org/2000/svg" xmlns:xlink="http://www.w3.org/1999/xlink" x="0px" y="0px"
	 viewBox="200 0 560 560" enable-background="new 200 0 560 560" xml:space="preserve">
<g id="Capa_2">
</g>
<g id="Capa_1_1_">
	<path fill="#FF0000" d="M480,8.6c-151,0-273.2,122.3-273.2,273.1S329,554.9,480,554.9s273.2-122.3,273.2-273.2
		C753.2,130.9,630.8,8.6,480,8.6z M615,370.8l-45.9,45.9c-6.1,6.1-16.1,6.1-22.2,0l-55.9-55.9c-6.1-6.1-16.1-6.1-22.2,0l-55.7,55.7
		c-6.1,6.1-16.1,6.1-22.2,0l-45.9-45.9c-6.1-6.1-6.1-16.1,0-22.2l55.7-55.7c6.1-6.1,6.1-16.1,0-22.2l-55.7-55.7
		c-6.1-6.1-6.1-16.1,0-22.2l45.9-45.9c6.1-6.1,16.1-6.1,22.2,0l55.7,55.7c6.1,6.1,16.1,6.1,22.2,0l55.7-55.7
		c6.1-6.1,16.1-6.1,22.2,0l45.9,45.9c6.1,6.1,6.1,16.1,0,22.2l-55.7,55.7c-6.1,6.1-6.1,16.1,0,22.2l55.7,55.7
		C621.1,354.7,621.1,364.7,615,370.8z"/>
</g>
<g id="Capa_3">
</g>
</svg>
