<?xml version="1.0" encoding="utf-8"?>
<!-- Generator: Adobe Illustrator 18.0.0, SVG Export Plug-In . SVG Version: 6.00 Build 0)  -->
<!DOCTYPE svg PUBLIC "-//W3C//DTD SVG 1.1//EN" "http://www.w3.org/Graphics/SVG/1.1/DTD/svg11.dtd">
<svg version="1.1" id="Capa_1" xmlns="http://www.w3.org/2000/svg" xmlns:xlink="http://www.w3.org/1999/xlink" x="0px" y="0px"
	 viewBox="167 0 626 560" enable-background="new 167 0 626 560" xml:space="preserve">
<g id="Capa_2">
</g>
<g id="Capa_1_1_">
	<path fill="#E5D100" d="M781.8,520.6L499.3,19.3c-10.7-18.9-28-18.9-38.5,0L178.2,520.6c-10.7,18.9-1.7,34.2,20,34.2h563.3
		C783.3,554.9,792.3,539.5,781.8,520.6z M522.7,474.9c0,8.6-7.1,15.7-15.7,15.7h-53.9c-8.6,0-15.7-7.1-15.7-15.7v-29.7
		c0-8.6,7.1-15.7,15.7-15.7H507c8.6,0,15.7,7.1,15.7,15.7V474.9z M522.7,380.5c0,8.6-7.1,15.7-15.7,15.7h-53.9
		c-8.6,0-15.7-7.1-15.7-15.7V172.6c0-8.6,7.1-15.7,15.7-15.7H507c8.6,0,15.7,7.1,15.7,15.7V380.5z"/>
</g>
<g id="Capa_3">
</g>
</svg>
