<?xml version="1.0" encoding="utf-8"?>
<!-- Generator: Adobe Illustrator 18.0.0, SVG Export Plug-In . SVG Version: 6.00 Build 0)  -->
<!DOCTYPE svg PUBLIC "-//W3C//DTD SVG 1.1//EN" "http://www.w3.org/Graphics/SVG/1.1/DTD/svg11.dtd">
<svg version="1.1" id="Capa_1" xmlns="http://www.w3.org/2000/svg" xmlns:xlink="http://www.w3.org/1999/xlink" x="0px" y="0px"
	 viewBox="200 0 560 560" enable-background="new 200 0 560 560" xml:space="preserve">
<path fill="#FFFFFF" d="M467.6,151.4c-35.3,35.3-39.4,89.2-14.5,128.6l-139,139l10.4,22.8l22.8,10.4l20.7-20.7l29,24.9l14.5-8.3
	l8.3-14.5l-27-27l18.7-18.7l20.7,20.7l14.5-8.3l8.3-14.5L434.4,365l51.9-51.9c39.4,24.9,93.3,18.7,126.5-14.5
	c41.5-41.5,41.5-105.8,0-147.3C573.3,109.9,509,109.9,467.6,151.4z M594.1,209.5c-10.4,10.4-27,10.4-37.3,0
	c-10.4-10.4-10.4-27,0-37.3c10.4-10.4,27-10.4,37.3,0C604.4,180.4,604.4,199.1,594.1,209.5z"/>
</svg>
