<?xml version="1.0" encoding="utf-8"?>
<!-- Generator: Adobe Illustrator 18.0.0, SVG Export Plug-In . SVG Version: 6.00 Build 0)  -->
<!DOCTYPE svg PUBLIC "-//W3C//DTD SVG 1.1//EN" "http://www.w3.org/Graphics/SVG/1.1/DTD/svg11.dtd">
<svg version="1.1" id="Capa_1" xmlns="http://www.w3.org/2000/svg" xmlns:xlink="http://www.w3.org/1999/xlink" x="0px" y="0px"
	 viewBox="200 0 560 560" enable-background="new 200 0 560 560" xml:space="preserve">
<path fill="#FFFFFF" d="M592,263.4v-27c0-68.4-51.9-126.5-116.1-126.5s-116.1,56-116.1,126.5v27h-35.3v186.7h300.7V263.4L592,263.4
	L592,263.4z M405.3,236.4c0-41.5,31.1-74.7,68.4-74.7s68.4,33.2,68.4,74.7v27H405.3V236.4z M490.4,352.6l8.3,60.1H451l8.3-60.1
	c-8.3-6.2-14.5-14.5-14.5-22.8c0-16.6,12.4-29,29-29c16.6,0,29,12.4,29,29C502.8,338.1,496.6,346.4,490.4,352.6z"/>
</svg>
