<?xml version="1.0" encoding="utf-8"?>
<!-- Generator: Adobe Illustrator 18.0.0, SVG Export Plug-In . SVG Version: 6.00 Build 0)  -->
<!DOCTYPE svg PUBLIC "-//W3C//DTD SVG 1.1//EN" "http://www.w3.org/Graphics/SVG/1.1/DTD/svg11.dtd">
<svg version="1.1" id="Capa_1" xmlns="http://www.w3.org/2000/svg" xmlns:xlink="http://www.w3.org/1999/xlink" x="0px" y="0px"
	 viewBox="200 0 560 560" enable-background="new 200 0 560 560" xml:space="preserve">
<path fill="#FFFFFF" d="M492.4,259.3h147.3V112l-4.1-6.2l-49.8,49.8c-29-24.9-66.4-37.3-103.7-37.3c-89.2,0-161.8,72.6-161.8,163.9
	c0,89.2,72.6,163.9,161.8,163.9c72.6,0,136.9-47.7,155.6-118.2L571.3,309c-12.4,39.4-47.7,68.4-89.2,68.4
	c-51.9,0-93.3-41.5-93.3-93.3s41.5-93.3,93.3-93.3c20.7,0,39.4,6.2,56,18.7l-49.8,49.8H492.4z"/>
</svg>
