<?xml version="1.0" encoding="utf-8"?>
<!-- Generator: Adobe Illustrator 18.0.0, SVG Export Plug-In . SVG Version: 6.00 Build 0)  -->
<!DOCTYPE svg PUBLIC "-//W3C//DTD SVG 1.1//EN" "http://www.w3.org/Graphics/SVG/1.1/DTD/svg11.dtd">
<svg version="1.1" id="Capa_1" xmlns="http://www.w3.org/2000/svg" xmlns:xlink="http://www.w3.org/1999/xlink" x="0px" y="0px"
	 viewBox="200 0 560 560" enable-background="new 200 0 560 560" xml:space="preserve">
<circle fill="#FFFFFF" cx="405.3" cy="170.1" r="41.5"/>
<path fill="#FFFFFF" d="M494.5,300.7c-6.2-10.4-10.4-22.8-10.4-35.3c0-8.3,2.1-14.5,4.1-20.7c-10.4-12.4-29-20.7-51.9-24.9
	l-22.8,39.4h-14.5l-22.8-39.4c-39.4,6.2-64.3,24.9-64.3,66.4c0,22.8,8.3,39.4,20.7,53.9h107.9C451,319.4,469.6,307,494.5,300.7z"/>
<path fill="#FFFFFF" d="M469.6,443.9h157.6c14.5-12.4,22.8-31.1,22.8-56c0-43.6-27-64.3-68.4-70.5l-22.8,41.5h-16.6l-22.8-41.5
	c-41.5,6.2-68.4,27-68.4,70.5C446.8,410.7,455.1,429.3,469.6,443.9z"/>
<circle fill="#FFFFFF" cx="548.4" cy="263.4" r="43.6"/>
</svg>
