<?xml version="1.0" encoding="utf-8"?>
<!-- Generator: Adobe Illustrator 18.0.0, SVG Export Plug-In . SVG Version: 6.00 Build 0)  -->
<!DOCTYPE svg PUBLIC "-//W3C//DTD SVG 1.1//EN" "http://www.w3.org/Graphics/SVG/1.1/DTD/svg11.dtd">
<svg version="1.1" id="Capa_1" xmlns="http://www.w3.org/2000/svg" xmlns:xlink="http://www.w3.org/1999/xlink" x="0px" y="0px"
	 viewBox="200 0 560 560" enable-background="new 200 0 560 560" xml:space="preserve">
<path fill="#FFFFFF" d="M614.8,348.4c-31.1-10.4-43.6-22.8-43.6-22.8h-2.1c-8.3,8.3-18.7,14.5-29,14.5l0,0c-8.3,0-18.7-4.1-29-14.5
	H509c0,0-12.4,12.4-43.6,22.8c-45.6,16.6-31.1,87.1-31.1,87.1c2.1,8.3,2.1,10.4,2.1,10.4c45.6,20.7,159.7,20.7,205.3,0
	c0,0,2.1-2.1,2.1-10.4C648,435.6,660.4,367.1,614.8,348.4z"/>
<path fill="#FFFFFF" d="M496.6,284.1c6.2,24.9,24.9,47.7,43.6,47.7c18.7,0,37.3-22.8,43.6-47.7c0-2.1,2.1-4.1,4.1-10.4
	c2.1-6.2,2.1-12.4,0-14.5l0,0c-2.1-2.1-2.1-2.1-2.1-2.1s4.1-22.8,0-33.2c-6.2-16.6-39.4-29-45.6-29H536c0,0-6.2-2.1-12.4,2.1
	c-4.1,2.1-24.9,10.4-31.1,29c-4.1,10.4,0,33.2,0,33.2s0,0-2.1,2.1l0,0c-2.1,2.1-2.1,8.3,0,14.5C494.5,282.1,496.6,282.1,496.6,284.1
	z"/>
<path fill="#FFFFFF" d="M453,248.9c-24.9-8.3-33.2-18.7-33.2-18.7l0,0c-6.2,6.2-14.5,10.4-22.8,10.4l0,0c-6.2,0-14.5-4.1-22.8-10.4
	l0,0c0,0-10.4,10.4-33.2,18.7c-35.3,12.4-24.9,66.4-24.9,68.4c2.1,6.2,2.1,8.3,2.1,8.3c35.3,16.6,124.4,16.6,159.7,0
	c0,0,2.1-2.1,2.1-8.3C477.9,315.3,488.3,261.3,453,248.9z"/>
<path fill="#FFFFFF" d="M361.8,199.1c4.1,20.7,18.7,37.3,33.2,37.3s29-16.6,33.2-37.3c0-2.1,2.1-2.1,4.1-8.3
	c2.1-4.1,2.1-10.4,0-10.4l0,0c-2.1-2.1-2.1-2.1-2.1-2.1s4.1-16.6,0-24.9c-4.1-12.4-31.1-22.8-35.3-22.8h-4.1c0,0-4.1,0-8.3,2.1
	c-4.1-2.1-18.7,4.1-24.9,18.7c-2.1,8.3,0,24.9,0,24.9s0,0-2.1,2.1l0,0c-2.1,2.1,0,6.2,0,10.4C359.7,195,359.7,197,361.8,199.1z"/>
</svg>
