<?xml version="1.0" encoding="utf-8"?>
<!-- Generator: Adobe Illustrator 18.0.0, SVG Export Plug-In . SVG Version: 6.00 Build 0)  -->
<!DOCTYPE svg PUBLIC "-//W3C//DTD SVG 1.1//EN" "http://www.w3.org/Graphics/SVG/1.1/DTD/svg11.dtd">
<svg version="1.1" id="Capa_1" xmlns="http://www.w3.org/2000/svg" xmlns:xlink="http://www.w3.org/1999/xlink" x="0px" y="0px"
	 viewBox="200 0 560 560" enable-background="new 200 0 560 560" xml:space="preserve">
<path fill="#FFFFFF" d="M621,253H484.1v56H621v58.1l93.3-85L621,197V253z M598.2,338.1c-8.3,22.8-18.7,43.6-35.3,60.1
	c-66.4,66.4-172.1,66.4-238.5,0s-66.4-172.1,0-238.5s172.1-66.4,238.5,0c18.7,18.7,27,39.4,35.3,60.1h-78.8
	c-2.1-4.1-4.1-6.2-8.3-10.4c-37.3-37.3-99.6-37.3-136.9,0s-37.3,99.6,0,136.9s99.6,37.3,136.9,0c2.1-2.1,6.2-6.2,8.3-10.4h78.8
	V338.1z"/>
</svg>
