<?xml version="1.0" encoding="utf-8"?>
<!-- Generator: Adobe Illustrator 18.0.0, SVG Export Plug-In . SVG Version: 6.00 Build 0)  -->
<!DOCTYPE svg PUBLIC "-//W3C//DTD SVG 1.1//EN" "http://www.w3.org/Graphics/SVG/1.1/DTD/svg11.dtd">
<svg version="1.1" id="Capa_1" xmlns="http://www.w3.org/2000/svg" xmlns:xlink="http://www.w3.org/1999/xlink" x="0px" y="0px"
	 viewBox="200 0 560 560" enable-background="new 200 0 560 560" xml:space="preserve">
<path fill="#FFFFFF" d="M573.3,321.5c-39.4-12.4-53.9-29-53.9-29l-2.1,2.1c-12.4,10.4-24.9,16.6-35.3,16.6H480
	c-12.4,0-24.9-6.2-35.3-16.6l-2.1-2.1c0,0-16.6,16.6-53.9,29c-58.1,20.7-39.4,107.9-39.4,109.9c2.1,10.4,2.1,12.4,4.1,12.4
	c58.1,24.9,199.1,24.9,257.2,0c0,0,2.1-4.1,4.1-12.4C612.7,429.3,629.3,342.2,573.3,321.5z"/>
<path fill="#FFFFFF" d="M426.1,240.6c6.2,31.1,31.1,60.1,53.9,60.1c24.9,0,45.6-27,53.9-60.1c0-2.1,4.1-4.1,6.2-12.4
	c2.1-8.3,2.1-16.6,0-18.7l0,0c-4.1-2.1-4.1-2.1-4.1-2.1s6.2-29,2.1-41.5c-6.2-20.7-49.8-35.3-58.1-37.3c0,0-4.1-2.1-6.2-2.1
	c0,0-6.2-2.1-14.5,2.1c-4.1,2.1-31.1,14.5-37.3,37.3c-4.1,12.4,2.1,41.5,2.1,41.5s0,0-2.1,2.1l0,0c-2.1,2.1-2.1,10.4,0,18.7
	C421.9,236.4,424,238.5,426.1,240.6z"/>
</svg>
