<?xml version="1.0" encoding="utf-8"?>
<!-- Generator: Adobe Illustrator 18.0.0, SVG Export Plug-In . SVG Version: 6.00 Build 0)  -->
<!DOCTYPE svg PUBLIC "-//W3C//DTD SVG 1.1//EN" "http://www.w3.org/Graphics/SVG/1.1/DTD/svg11.dtd">
<svg version="1.1" id="Capa_1" xmlns="http://www.w3.org/2000/svg" xmlns:xlink="http://www.w3.org/1999/xlink" x="0px" y="0px"
	 viewBox="200 0 560 560" enable-background="new 200 0 560 560" xml:space="preserve">
<g>
	<path fill="#FFFFFF" d="M480,211.6c20.7,0,43.6,6.2,58.1,18.7c22.8,16.6,43.6,37.3,56,53.9c-12.4,16.6-33.2,37.3-56,53.9
		c-16.6,12.4-37.3,18.7-58.1,18.7s-43.6-6.2-58.1-18.7c-22.8-16.6-43.6-37.3-56-53.9c12.4-16.6,33.2-37.3,56-53.9
		C436.4,217.8,459.3,211.6,480,211.6 M480,176.3c-31.1,0-58.1,10.4-78.8,24.9c-47.7,33.2-80.9,83-80.9,83s35.3,49.8,80.9,83
		C421.9,381.6,451,392,480,392c29,0,58.1-8.3,78.8-24.9c47.7-33.2,80.9-83,80.9-83s-35.3-49.8-80.9-83
		C538.1,186.7,511.1,176.3,480,176.3z"/>
</g>
<g>
	<path fill="#FFFFFF" d="M480,257.2c-14.5,0-27,12.4-27,27s12.4,27,27,27c14.5,0,27-12.4,27-27S494.5,257.2,480,257.2z"/>
</g>
<g>
	<path fill="#FFFFFF" d="M480,321.5c-20.7,0-39.4-16.6-39.4-39.4c0-20.7,16.6-39.4,39.4-39.4c20.7,0,39.4,16.6,39.4,39.4
		C519.4,304.9,500.7,321.5,480,321.5z M480,259.3c-14.5,0-24.9,12.4-24.9,24.9c0,14.5,12.4,24.9,24.9,24.9
		c14.5,0,24.9-12.4,24.9-24.9C504.9,269.6,494.5,259.3,480,259.3z"/>
</g>
</svg>
