<?xml version="1.0" standalone="no"?>
<!DOCTYPE svg PUBLIC "-//W3C//DTD SVG 1.1//EN" "http://www.w3.org/Graphics/SVG/1.1/DTD/svg11.dtd" >
<svg xmlns="http://www.w3.org/2000/svg" xmlns:xlink="http://www.w3.org/1999/xlink" version="1.1">
<metadata>
Created by FontForge 20170731 at Tue Dec  6 18:58:38 2016
 By Aleksey,,,
Copyright 2016 Adobe Systems Incorporated. All rights reserved.
</metadata>
<defs>
<font id="CiudadelaPro" horiz-adv-x="542" >
  <font-face 
    font-family="Ciudadela Pro"
    font-weight="400"
    font-stretch="normal"
    units-per-em="1000"
    panose-1="0 0 0 0 0 0 0 0 0 0"
    ascent="750"
    descent="-250"
    x-height="479"
    cap-height="680"
    bbox="-148.558 -201 906.025 962"
    underline-thickness="50"
    underline-position="-200"
    unicode-range="U+0020-20AC"
  />
<missing-glyph horiz-adv-x="240" 
 />
    <glyph glyph-name=".notdef" horiz-adv-x="240" 
 />
    <glyph glyph-name=".null" horiz-adv-x="0" 
 />
    <glyph glyph-name="nonmarkingreturn" horiz-adv-x="333" 
 />
    <glyph glyph-name="space" unicode=" " horiz-adv-x="240" 
 />
    <glyph glyph-name="exclam" unicode="!" horiz-adv-x="288" 
d="M145 184h-2q-30 0 -31 30l-14 436q-1 30 29 30h34q30 0 29 -30l-14 -436q-1 -30 -31 -30zM96 30v46q0 30 30 30h36q30 0 30 -30v-46q0 -30 -30 -30h-36q-30 0 -30 30z" />
    <glyph glyph-name="quotedbl" unicode="&#x22;" horiz-adv-x="329" 
d="M232 503h-4q-30 0 -30 30v117q0 30 30 30h4q30 0 30 -30v-117q0 -30 -30 -30zM101 503h-4q-30 0 -30 30v117q0 30 30 30h4q30 0 30 -30v-117q0 -30 -30 -30z" />
    <glyph glyph-name="numbersign" unicode="#" horiz-adv-x="517" 
d="M82 30l25 184h-53q-30 0 -30 30v3q0 30 30 30h61l19 140h-55q-30 0 -30 30v2q0 30 30 30h64l23 171q4 30 34 30h5q30 0 26 -30l-23 -171h133l23 171q4 30 34 30h5q30 0 26 -30l-23 -171h57q30 0 30 -30v-2q0 -30 -30 -30h-66l-19 -140h59q30 0 30 -30v-3q0 -30 -30 -30
h-67l-25 -184q-4 -30 -34 -30h-5q-30 0 -26 30l25 184h-133l-25 -184q-4 -30 -34 -30h-5q-30 0 -26 30zM180 277h133l19 140h-133z" />
    <glyph glyph-name="dollar" unicode="$" 
d="M72 86l13 17q18 23 43 7q61 -39 124 -43v240q-89 16 -134.5 64t-45.5 122q0 83 49.5 136t130.5 61v41q0 20 20 20h9q20 0 20 -20v-41q69 -6 131 -39q25 -15 9 -40l-11 -17q-15 -24 -42 -10q-42 22 -87 27v-230q182 -31 182 -186q0 -84 -48.5 -138.5t-133.5 -64.5v-43
q0 -20 -20 -20h-9q-20 0 -20 20v40q-96 4 -175 56q-24 16 -5 41zM252 390v221q-45 -6 -71.5 -35.5t-26.5 -75.5q0 -43 22.5 -70t75.5 -40zM301 70q47 8 73.5 39t26.5 81q0 85 -100 108v-228z" />
    <glyph glyph-name="percent" unicode="%" horiz-adv-x="778" 
d="M166 15l377 650q14 26 45 26h9q29 0 15 -26l-377 -650q-14 -26 -45 -26h-9q-29 0 -15 26zM198 330q-42 0 -72.5 20.5t-42.5 56.5q-8 25 -8 102t8 102q12 36 42.5 56.5t72.5 20.5t72.5 -20.5t42.5 -56.5q8 -25 8 -102t-8 -102q-12 -36 -42.5 -56.5t-72.5 -20.5zM198 388
q42 0 54 35q5 17 5 86t-5 86q-12 35 -54 35t-54 -35q-5 -17 -5 -86t5 -86q12 -35 54 -35zM465 68q-8 25 -8 102t8 102q12 36 42.5 56.5t72.5 20.5t72.5 -20.5t42.5 -56.5q8 -25 8 -102t-8 -102q-12 -36 -42.5 -56.5t-72.5 -20.5t-72.5 20.5t-42.5 56.5zM526 84
q12 -35 54 -35t54 35q5 17 5 86t-5 86q-12 35 -54 35t-54 -35q-5 -17 -5 -86t5 -86z" />
    <glyph glyph-name="ampersand" unicode="&#x26;" horiz-adv-x="633" 
d="M70 167q0 56 32 105.5t103 107.5q-49 63 -67 96.5t-18 68.5q0 63 44 104.5t112 41.5q70 0 113 -42t43 -104q0 -45 -26.5 -83t-94.5 -93l129 -166l57 70q19 23 42 3l7 -6q22 -20 5 -44l-65 -83l33 -43q19 -24 40 -24h1q30 0 30 -30v-16q0 -30 -30 -30h-13q-30 0 -48 9.5
t-39 37.5l-27 35q-45 -49 -88 -71t-96 -22q-84 0 -131.5 49.5t-47.5 128.5zM267 429q53 41 70 66t17 52q0 31 -21.5 52t-56.5 21t-55 -21t-20 -53q0 -21 13 -43t53 -74zM149 172q0 -51 28 -80t78 -29q35 0 65.5 18t67.5 60l-138 180q-54 -42 -77.5 -77t-23.5 -72z" />
    <glyph glyph-name="quotesingle" unicode="'" horiz-adv-x="198" 
d="M101 503h-4q-30 0 -30 30v117q0 30 30 30h4q30 0 30 -30v-117q0 -30 -30 -30z" />
    <glyph glyph-name="parenleft" unicode="(" horiz-adv-x="285" 
d="M224 -84h-15q-21 0 -33 19q-53 82 -83 186.5t-30 206.5q0 210 113 393q11 19 32 19h16q21 0 11 -19q-41 -82 -66 -187t-25 -206q0 -100 25.5 -207.5t65.5 -185.5q10 -19 -11 -19z" />
    <glyph glyph-name="parenright" unicode=")" horiz-adv-x="285" 
d="M76 -84h-15q-21 0 -11 19q40 78 65.5 185.5t25.5 207.5q0 101 -25 206t-66 187q-10 19 11 19h16q21 0 32 -19q113 -183 113 -393q0 -102 -30 -206.5t-83 -186.5q-12 -19 -33 -19z" />
    <glyph glyph-name="asterisk" unicode="*" horiz-adv-x="342" 
d="M176 396h-10q-20 0 -20 20v79l-68 -40q-16 -9 -26 8l-6 10q-10 17 8 27l67 37l-68 39q-18 11 -8 28l6 10q11 17 27 8l68 -42v80q0 20 20 20h10q20 0 20 -20l-1 -80l69 42q16 9 26 -8l6 -10q11 -18 -7 -28l-68 -39l67 -37q19 -10 9 -28l-6 -10q-11 -17 -27 -8l-69 41
l1 -79q0 -20 -20 -20z" />
    <glyph glyph-name="plus" unicode="+" 
d="M233 95v144h-142q-30 0 -30 30v14q0 30 30 30h142v144q0 30 30 30h16q30 0 30 -30v-144h142q30 0 30 -30v-14q0 -30 -30 -30h-142v-144q0 -30 -30 -30h-16q-30 0 -30 30z" />
    <glyph glyph-name="comma" unicode="," horiz-adv-x="230" 
d="M100 106h30q30 0 30 -30v-56q0 -30 -18 -54l-48 -65q-10 -12 -17 -10t-7 17v168q0 30 30 30z" />
    <glyph glyph-name="hyphen" unicode="-" horiz-adv-x="380" 
d="M47 257v18q0 30 30 30h226q30 0 30 -30v-18q0 -30 -30 -30h-226q-30 0 -30 30z" />
    <glyph glyph-name="period" unicode="." horiz-adv-x="236" 
d="M70 30v46q0 30 30 30h36q30 0 30 -30v-46q0 -30 -30 -30h-36q-30 0 -30 30z" />
    <glyph glyph-name="slash" unicode="/" horiz-adv-x="417" 
d="M67 18l209 644q9 29 39 29h14q30 0 21 -29l-210 -644q-9 -29 -39 -29h-13q-30 0 -21 29z" />
    <glyph glyph-name="zero" unicode="0" 
d="M271 -11q-62 0 -103 24.5t-62 74.5t-28.5 108.5t-7.5 143.5t7.5 143.5t28.5 108.5t62 74.5t103 24.5q50 0 86.5 -17.5t58.5 -46t34.5 -75t17 -96t4.5 -116.5t-4.5 -116.5t-17.5 -96t-35 -75.5t-58 -46t-86 -17zM157 340q0 -51 1 -82.5t4.5 -66.5t11 -54.5t20 -37t32 -25
t45.5 -7.5t45.5 7.5t32 25t20 37t11 54.5t4.5 66.5t1 82.5t-1 82t-4.5 66.5t-11 55t-20 37.5t-31.5 25t-46 7t-46 -7t-31.5 -25t-20 -37.5t-11 -55t-4.5 -66.5t-1 -82z" />
    <glyph glyph-name="one" unicode="1" horiz-adv-x="362" 
d="M136 501h-76q-30 0 -30 30v18q0 30 30 30h76q30 0 30 30v41q0 30 30 30h24q30 0 30 -30v-620q0 -30 -30 -30h-24q-30 0 -30 30v441q0 30 -30 30z" />
    <glyph glyph-name="two" unicode="2" horiz-adv-x="506" 
d="M60 30v9q0 29 19 54l231 295q48 61 48 118q0 47 -29 77t-78 30q-86 0 -107 -83q-4 -14 -11 -19t-22 -2l-23 5q-32 6 -26 30q11 59 59.5 103t131.5 44q87 0 139 -52t52 -133q0 -79 -66 -163l-210 -264v-1h246q30 0 30 -30v-18q0 -30 -30 -30h-324q-30 0 -30 30z" />
    <glyph glyph-name="three" unicode="3" horiz-adv-x="503" 
d="M118 523l-25 5q-17 3 -23 9t-3 21q32 133 178 133q92 0 137.5 -52t45.5 -133q0 -97 -78 -143q45 -20 69 -66t24 -104q0 -94 -48 -149t-150 -55q-159 0 -190 134q-4 25 24 31l25 5q27 5 33 -18q5 -20 13.5 -34t32.5 -27t62 -13q65 0 89 33t24 93q0 59 -24 92t-89 33h-36
q-30 0 -30 30v19q0 30 30 30h36q54 0 76 32t22 77t-22.5 76t-75.5 31q-78 0 -94 -71q-5 -25 -33 -19z" />
    <glyph glyph-name="four" unicode="4" horiz-adv-x="545" 
d="M333 119h-250q-30 0 -30 30v11q0 30 13 57l201 436q13 27 43 27h77q30 0 30 -30v-454h48q30 0 30 -30v-17q0 -30 -30 -30h-48v-89q0 -30 -30 -30h-24q-30 0 -30 30v89zM147 196h186v407l-186 -405v-2z" />
    <glyph glyph-name="five" unicode="5" horiz-adv-x="523" 
d="M103 147l22 6q15 4 23 0.5t13 -17.5q10 -29 36.5 -49t70.5 -20q43 0 68.5 22.5t33 53.5t7.5 76q0 72 -23 112t-86 40q-37 0 -62 -16.5t-34 -37.5q-9 -19 -38 -19h-17q-30 0 -30 30v322q0 30 30 30h302q30 0 30 -30v-18q0 -30 -30 -30h-254v-197h3q34 44 112 44
q183 0 183 -230q0 -104 -47 -167t-148 -63q-75 0 -125 36.5t-63 91.5q-4 23 23 30z" />
    <glyph glyph-name="six" unicode="6" 
d="M162 477v-91h1q35 56 122 56q102 0 144.5 -59t42.5 -167q0 -105 -47.5 -166t-149.5 -61q-198 0 -198 227v256q0 107 55 163t152 56q78 0 139 -33q25 -14 10 -42l-10 -17q-14 -26 -41 -11q-47 25 -98 25q-122 0 -122 -136zM387 216q0 70 -24 109t-89 39q-64 0 -88 -39
t-24 -109q0 -71 24 -110t88 -39q65 0 89 39t24 110z" />
    <glyph glyph-name="seven" unicode="7" horiz-adv-x="472" 
d="M107 28l225 571v3h-263q-30 0 -30 30v18q0 30 30 30h323q30 0 30 -30v-16q0 -30 -11 -58l-217 -548q-11 -28 -41 -28h-27q-30 0 -19 28z" />
    <glyph glyph-name="eight" unicode="8" horiz-adv-x="540" 
d="M270 691q92 0 137.5 -52t45.5 -133q0 -41 -18.5 -80.5t-47.5 -62.5q37 -22 59 -68t22 -102q0 -94 -48 -149t-150 -55t-150 55t-48 149q0 56 21.5 102t59.5 68q-29 23 -47.5 62t-18.5 81q0 81 45.5 133t137.5 52zM270 318q-65 0 -89 -33t-24 -92q0 -60 24 -93t89 -33
t89 33t24 93q0 59 -24 92t-89 33zM270 613q-53 0 -75.5 -31t-22.5 -76t22 -77t76 -32t76 32t22 77t-22.5 76t-75.5 31z" />
    <glyph glyph-name="nine" unicode="9" 
d="M258 -11q-78 0 -139 33q-25 14 -10 42l10 17q14 26 41 11q47 -25 98 -25q122 0 122 136v91h-1q-35 -56 -122 -56q-102 0 -144.5 59t-42.5 167q0 105 47.5 166t149.5 61q198 0 198 -227v-256q0 -107 -55 -163t-152 -56zM155 464q0 -70 24 -109t89 -39q64 0 88 39t24 109
q0 71 -24 110t-88 39q-65 0 -89 -39t-24 -110z" />
    <glyph glyph-name="colon" unicode=":" horiz-adv-x="244" 
d="M74 403v46q0 30 30 30h36q30 0 30 -30v-46q0 -30 -30 -30h-36q-30 0 -30 30zM74 30v46q0 30 30 30h36q30 0 30 -30v-46q0 -30 -30 -30h-36q-30 0 -30 30z" />
    <glyph glyph-name="semicolon" unicode=";" horiz-adv-x="244" 
d="M107 106h30q30 0 30 -30v-56q0 -30 -18 -54l-48 -65q-10 -12 -17 -10t-7 17v168q0 30 30 30zM74 403v46q0 30 30 30h36q30 0 30 -30v-46q0 -30 -30 -30h-36q-30 0 -30 30z" />
    <glyph glyph-name="less" unicode="&#x3c;" 
d="M61 273v6q0 30 28 41l364 150q28 11 28 -19v-21q0 -30 -28 -41l-283 -112v-2l283 -112q28 -11 28 -41v-20q0 -30 -28 -19l-364 149q-28 11 -28 41z" />
    <glyph glyph-name="equal" unicode="=" 
d="M61 369v14q0 30 30 30h360q30 0 30 -30v-14q0 -30 -30 -30h-360q-30 0 -30 30zM61 169v14q0 30 30 30h360q30 0 30 -30v-14q0 -30 -30 -30h-360q-30 0 -30 30z" />
    <glyph glyph-name="greater" unicode="&#x3e;" 
d="M481 279v-6q0 -30 -28 -41l-364 -149q-28 -11 -28 19v20q0 30 28 41l283 112v2l-283 112q-28 11 -28 41v21q0 30 28 19l364 -150q28 -11 28 -41z" />
    <glyph glyph-name="question" unicode="?" horiz-adv-x="456" 
d="M236 182h-26q-30 0 -30 30v21q0 49 30 90l67 92q27 37 37 58.5t10 46.5q0 42 -27 67.5t-70 25.5q-77 0 -100 -79q-4 -14 -11.5 -18t-23.5 -2l-23 4q-16 3 -21.5 10t-3.5 21q15 63 62.5 102.5t122.5 39.5q81 0 131 -47.5t50 -122.5q0 -59 -51 -130l-67 -92
q-26 -35 -26 -75v-12q0 -30 -30 -30zM175 30v46q0 30 30 30h36q30 0 30 -30v-46q0 -30 -30 -30h-36q-30 0 -30 30z" />
    <glyph glyph-name="at" unicode="@" horiz-adv-x="887" 
d="M47 268q0 173 110 282.5t285 109.5q174 0 284 -109.5t110 -282.5q0 -106 -44.5 -159.5t-114.5 -53.5q-88 0 -119 71h-1q-35 -70 -135 -70q-110 0 -143 98q-13 44 -13 109t13 109q33 98 140 98q83 0 115 -54h2v14q0 30 30 30h10q30 0 30 -30v-225q0 -42 20.5 -63.5
t50.5 -21.5q88 0 88 148q0 146 -88 236.5t-235 90.5t-235.5 -90t-88.5 -237q0 -148 88.5 -238t235.5 -90q118 0 200 39q26 12 37 -16l1 -2q11 -28 -14 -41q-88 -45 -224 -45q-175 0 -285 109t-110 284zM347 184q21 -62 90 -62t91 62q8 24 8 79t-8 79q-22 62 -91 62t-90 -62
q-9 -27 -9 -79t9 -79z" />
    <glyph glyph-name="A" unicode="A" horiz-adv-x="585" 
d="M242 680h105q31 0 38 -29l168 -622q7 -29 -22 -29h-33q-30 0 -37 29l-33 128h-268l-34 -128q-7 -29 -38 -29h-33q-31 0 -22 29l171 622q9 29 38 29zM278 602l-97 -363h226l-93 363h-36z" />
    <glyph glyph-name="B" unicode="B" horiz-adv-x="604" 
d="M84 30v620q0 30 30 30h221q101 0 153 -47.5t52 -131.5q0 -112 -91 -148v-2q40 -11 71.5 -52.5t31.5 -104.5q0 -95 -57.5 -144.5t-164.5 -49.5h-216q-30 0 -30 30zM173 386h160q55 0 87 29t32 77q0 49 -31.5 78t-87.5 29h-160v-213zM173 305v-224h165q60 0 92.5 30
t32.5 82q0 51 -32.5 81.5t-92.5 30.5h-165z" />
    <glyph glyph-name="C" unicode="C" horiz-adv-x="566" 
d="M304 -11q-60 0 -104.5 19.5t-70.5 51t-42 78.5t-21.5 94.5t-5.5 107.5q0 59 5 105.5t20.5 94.5t41.5 79.5t71 51.5t106 20q147 0 211 -123q11 -23 -16 -36l-23 -11q-26 -12 -41 12q-46 75 -131 75q-37 0 -64.5 -10.5t-44 -33.5t-26.5 -44t-13.5 -58.5t-4.5 -59t-1 -62.5
t1 -62.5t4.5 -59t13.5 -58.5t26.5 -44t44 -33.5t64.5 -10.5q87 0 132 77q13 23 40 10l23 -11q28 -13 17 -35q-30 -57 -84 -90.5t-128 -33.5z" />
    <glyph glyph-name="D" unicode="D" horiz-adv-x="623" 
d="M84 30v620q0 30 30 30h209q136 0 188 -85t52 -255q0 -63 -5.5 -110.5t-21 -92.5t-41.5 -74t-69.5 -46t-102.5 -17h-209q-30 0 -30 30zM173 597v-514h131q46 0 78 12.5t50 31.5t27 55t11.5 69.5t2.5 88.5t-2.5 88.5t-12 69.5t-27.5 55t-49.5 31.5t-77.5 12.5h-131z" />
    <glyph glyph-name="E" unicode="E" horiz-adv-x="563" 
d="M84 30v620q0 30 30 30h369q30 0 30 -30v-23q0 -30 -30 -30h-310v-212h261q30 0 30 -30v-23q0 -30 -30 -30h-261v-219h310q30 0 30 -30v-23q0 -30 -30 -30h-369q-30 0 -30 30z" />
    <glyph glyph-name="F" unicode="F" horiz-adv-x="556" 
d="M84 30v620q0 30 30 30h369q30 0 30 -30v-23q0 -30 -30 -30h-310v-219h261q30 0 30 -30v-23q0 -30 -30 -30h-261v-265q0 -30 -30 -30h-29q-30 0 -30 30z" />
    <glyph glyph-name="G" unicode="G" horiz-adv-x="619" 
d="M455 51h-3q-20 -29 -58.5 -45.5t-84.5 -16.5q-57 0 -100.5 17.5t-71.5 47.5t-45.5 75.5t-24.5 96.5t-7 114q0 80 11.5 140t38 109.5t77 75.5t122.5 26q85 0 137 -31.5t83 -91.5q12 -22 -16 -35l-23 -11q-27 -13 -40 9q-24 40 -56.5 58.5t-84.5 18.5q-91 0 -125 -66.5
t-34 -201.5q0 -49 3 -84.5t13 -72t27 -59.5t46.5 -37.5t69.5 -14.5q76 0 114.5 43.5t38.5 112.5l1 32h-131q-30 0 -30 30v20q0 30 30 30h181q30 0 30 -30v-280q0 -30 -30 -30h-3q-30 0 -43 27z" />
    <glyph glyph-name="H" unicode="H" horiz-adv-x="653" 
d="M84 30v620q0 30 30 30h29q30 0 30 -30v-265h307v265q0 30 30 30h29q30 0 30 -30v-620q0 -30 -30 -30h-29q-30 0 -30 30v272h-307v-272q0 -30 -30 -30h-29q-30 0 -30 30z" />
    <glyph glyph-name="I" unicode="I" horiz-adv-x="257" 
d="M84 30v620q0 30 30 30h29q30 0 30 -30v-620q0 -30 -30 -30h-29q-30 0 -30 30z" />
    <glyph glyph-name="J" unicode="J" horiz-adv-x="354" 
d="M186 151v499q0 30 30 30h29q30 0 30 -30v-507q0 -76 -33 -115t-112 -39q-31 0 -66 7q-28 5 -23 37l3 20q4 28 36 23q30 -5 51 -5q33 0 44 20.5t11 59.5z" />
    <glyph glyph-name="K" unicode="K" horiz-adv-x="596" 
d="M84 30v620q0 30 30 30h29q30 0 30 -30v-276h101q30 0 43 27l126 252q13 27 43 27h38q30 0 16 -27l-165 -319l181 -308q14 -26 -15 -26h-41q-29 0 -45 26l-136 239q-16 26 -45 26h-101v-261q0 -30 -30 -30h-29q-30 0 -30 30z" />
    <glyph glyph-name="L" unicode="L" horiz-adv-x="538" 
d="M84 30v620q0 30 30 30h29q30 0 30 -30v-567h310q30 0 30 -30v-23q0 -30 -30 -30h-369q-30 0 -30 30z" />
    <glyph glyph-name="M" unicode="M" horiz-adv-x="795" 
d="M72 30l41 620q1 30 31 30h40q33 0 42 -27l172 -522h3l169 521q10 28 42 28h39q31 0 32 -30l41 -620q1 -30 -28 -30h-23q-29 0 -32 30l-35 472h-3l-161 -475q-9 -27 -42 -27h-6q-33 0 -42 27l-160 474h-3l-34 -471q-3 -30 -31 -30h-23q-30 0 -29 30z" />
    <glyph glyph-name="N" unicode="N" horiz-adv-x="654" 
d="M84 30v620q0 30 30 30h25q30 0 46 -26l298 -494h4v490q0 30 30 30h23q30 0 30 -30v-620q0 -30 -30 -30h-25q-30 0 -46 26l-299 492h-3v-488q0 -30 -30 -30h-23q-30 0 -30 30z" />
    <glyph glyph-name="O" unicode="O" horiz-adv-x="619" 
d="M309 -11q-61 0 -107 20.5t-72.5 52.5t-42.5 79.5t-21.5 94t-5.5 104.5t5.5 104.5t21.5 94t42.5 79.5t72.5 52.5t107 20.5q62 0 108 -20.5t72.5 -52.5t42.5 -80t21.5 -94.5t5.5 -103.5q0 -72 -9.5 -128.5t-35 -110t-77.5 -83t-128 -29.5zM309 72q32 0 57.5 8.5t42 22
t28.5 36t18 42.5t9.5 51t4 53t0.5 55q0 39 -1 64t-5.5 60.5t-15.5 57.5t-27.5 43.5t-45 32t-65.5 10.5t-65 -10.5t-45 -32t-27.5 -43.5t-15 -57.5t-5.5 -60.5t-1 -64t1 -64t5.5 -60.5t15 -57.5t27.5 -43.5t45 -32t65 -10.5z" />
    <glyph glyph-name="P" unicode="P" horiz-adv-x="582" 
d="M542 427q0 -92 -59 -147.5t-157 -55.5h-153v-194q0 -30 -30 -30h-29q-30 0 -30 30v620q0 30 30 30h212q98 0 157 -55.5t59 -147.5v-50zM454 427v50q0 56 -35 88t-98 32h-148v-290h148q63 0 98 32t35 88z" />
    <glyph glyph-name="Q" unicode="Q" horiz-adv-x="619" 
d="M265 -69v61q-62 8 -104.5 40t-63.5 83t-29 104t-8 121q0 58 5.5 104.5t21.5 94t42.5 79.5t72.5 52.5t107 20.5q62 0 108 -20.5t72.5 -52.5t42.5 -80t21.5 -94.5t5.5 -103.5q0 -66 -8 -119t-29 -104.5t-63.5 -83.5t-104.5 -41v-61q0 -30 -30 -30h-29q-30 0 -30 30z
M150 340q0 -43 1 -69.5t7.5 -64t18 -60.5t34 -43t54.5 -27v115q0 30 30 30h29q30 0 30 -30v-114q40 9 64.5 34t35 66.5t13 75t2.5 87.5q0 39 -1 64t-5.5 60.5t-15.5 57.5t-27.5 43.5t-45 32t-65.5 10.5t-65 -10.5t-45 -32t-27.5 -43.5t-15 -57.5t-5.5 -60.5t-1 -64z" />
    <glyph glyph-name="R" unicode="R" horiz-adv-x="607" 
d="M446 27l-99 217h-174v-214q0 -30 -30 -30h-29q-30 0 -30 30v620q0 30 30 30h212q98 0 157 -55.5t59 -147.5v-30q0 -62 -28 -109t-79 -71l110 -238q14 -29 -15 -29h-41q-30 0 -43 27zM454 447v30q0 56 -35 88t-98 32h-148v-270h148q63 0 98 32t35 88z" />
    <glyph glyph-name="S" unicode="S" horiz-adv-x="591" 
d="M298 72q70 0 110 32t40 84q0 46 -32 73.5t-110 37.5l-34 5q-200 27 -200 188q0 91 60.5 145t161.5 54q132 0 195 -85q17 -21 -9 -39l-24 -17q-22 -15 -40 6q-45 52 -125 52q-61 0 -95 -30t-34 -80q0 -45 33.5 -72t109.5 -37l33 -5q200 -27 200 -190q0 -92 -64.5 -148.5
t-183.5 -56.5q-159 0 -232 109q-16 22 9 39l27 19q22 15 40 -6q19 -23 35.5 -37t51 -27.5t77.5 -13.5z" />
    <glyph glyph-name="T" unicode="T" horiz-adv-x="537" 
d="M283 0h-29q-30 0 -30 30v567h-172q-30 0 -30 30v23q0 30 30 30h433q30 0 30 -30v-23q0 -30 -30 -30h-172v-567q0 -30 -30 -30z" />
    <glyph glyph-name="U" unicode="U" horiz-adv-x="639" 
d="M320 -11q-114 0 -177.5 64.5t-63.5 183.5v413q0 30 30 30h29q30 0 30 -30v-412q0 -81 41 -123.5t111 -42.5q69 0 110 42.5t41 123.5v412q0 30 30 30h29q30 0 30 -30v-413q0 -119 -63.5 -183.5t-176.5 -64.5z" />
    <glyph glyph-name="V" unicode="V" horiz-adv-x="562" 
d="M335 0h-105q-29 0 -38 29l-168 622q-9 29 22 29h30q29 0 38 -29l149 -573h42l144 573q7 29 37 29h30q31 0 22 -29l-165 -622q-9 -29 -38 -29z" />
    <glyph glyph-name="W" unicode="W" horiz-adv-x="928" 
d="M454 478l-101 -449q-7 -29 -38 -29h-85q-29 0 -38 29l-168 622q-9 29 22 29h30q29 0 38 -29l149 -573h22l98 452q6 29 36 29h92q30 0 37 -29l101 -452h22l144 573q7 29 37 29h30q31 0 22 -29l-165 -622q-9 -29 -38 -29h-85q-31 0 -38 29l-104 449h-20z" />
    <glyph glyph-name="X" unicode="X" horiz-adv-x="558" 
d="M511 0h-41q-31 0 -45 26l-146 242h-1l-146 -242q-16 -26 -46 -26h-39q-29 0 -15 26l197 328l-179 300q-14 26 15 26h40q31 0 45 -26l128 -213h1l129 213q14 26 45 26h40q29 0 15 -26l-180 -300l198 -328q14 -26 -15 -26z" />
    <glyph glyph-name="Y" unicode="Y" horiz-adv-x="526" 
d="M277 0h-28q-30 0 -30 30v248l-193 375q-14 27 16 27h35q30 0 44 -27l143 -274h2l142 274q14 27 44 27h32q30 0 16 -27l-193 -375v-248q0 -30 -30 -30z" />
    <glyph glyph-name="Z" unicode="Z" horiz-adv-x="536" 
d="M437 0h-358q-30 0 -30 30v18q0 30 16 55l320 493v1h-294q-30 0 -30 30v23q0 30 30 30h366q30 0 30 -30v-17q0 -30 -16 -55l-321 -494v-1h317q30 0 20 -28l-10 -27q-10 -28 -40 -28z" />
    <glyph glyph-name="bracketleft" unicode="[" horiz-adv-x="281" 
d="M214 -84h-104q-30 0 -30 30v764q0 30 30 30h104q30 0 30 -30v-8q0 -30 -30 -30h-55v-688h55q30 0 30 -30v-8q0 -30 -30 -30z" />
    <glyph glyph-name="backslash" unicode="\" horiz-adv-x="417" 
d="M329 -11h-14q-30 0 -39 29l-209 644q-9 29 21 29h13q30 0 39 -29l210 -644q9 -29 -21 -29z" />
    <glyph glyph-name="bracketright" unicode="]" horiz-adv-x="281" 
d="M171 -84h-104q-30 0 -30 30v8q0 30 30 30h55v688h-55q-30 0 -30 30v8q0 30 30 30h104q30 0 30 -30v-764q0 -30 -30 -30z" />
    <glyph glyph-name="asciicircum" unicode="^" 
d="M455 272h-18q-31 0 -42 27l-123 275h-2l-123 -275q-11 -27 -42 -27h-18q-29 0 -18 27l159 354q11 27 42 27h2q31 0 42 -27l159 -354q11 -27 -18 -27z" />
    <glyph glyph-name="underscore" unicode="_" horiz-adv-x="476" 
d="M446 -132h-416q-30 0 -30 30v-4q0 30 30 30h416q30 0 30 -30v4q0 -30 -30 -30z" />
    <glyph glyph-name="grave" unicode="`" horiz-adv-x="421" 
d="M268 557h-10q-30 0 -48 24l-72 95q-18 24 12 24h30q30 0 46 -26l56 -91q16 -26 -14 -26z" />
    <glyph glyph-name="a" unicode="a" horiz-adv-x="523" 
d="M360 206h-102q-119 0 -119 -75q0 -33 26 -51.5t74 -18.5q56 0 88.5 25t32.5 69v51zM360 292v30q0 51 -25 72.5t-90 21.5q-54 0 -100 -24q-27 -14 -40 10l-6 10q-15 27 9 43q55 35 145 35q102 0 145 -37.5t43 -125.5v-297q0 -30 -30 -30h-4q-29 0 -40 28l-8 21
q-41 -60 -140 -60q-71 0 -116 36.5t-45 102.5q0 144 187 144h95q20 0 20 20z" />
    <glyph glyph-name="b" unicode="b" horiz-adv-x="538" 
d="M116 0h-4q-30 0 -30 30v620q0 30 30 30h24q30 0 30 -30v-226h1q40 66 136 66q182 0 182 -250q0 -251 -182 -251q-95 0 -136 67h-1l-10 -28q-10 -28 -40 -28zM283 67q37 0 61 14t35.5 40.5t15.5 54t4 64.5t-4 64t-15.5 53.5t-35.5 40.5t-61 14t-61 -13.5t-36 -39.5
t-16 -53.5t-4 -65.5t4 -65.5t16 -54t36 -40t61 -13.5z" />
    <glyph glyph-name="c" unicode="c" horiz-adv-x="468" 
d="M53 240q0 113 48.5 181.5t155.5 68.5q96 0 151 -65q19 -23 -5 -42l-14 -11q-22 -17 -42 3q-37 37 -90 37q-68 0 -93 -47t-25 -125q0 -79 25 -126t93 -47q53 0 90 37q20 20 42 3l15 -12q23 -18 5 -40q-55 -66 -152 -66q-56 0 -96.5 19.5t-63.5 55t-33.5 79t-10.5 97.5z
" />
    <glyph glyph-name="d" unicode="d" horiz-adv-x="538" 
d="M426 0h-4q-30 0 -40 28l-10 28h-1q-41 -67 -136 -67q-182 0 -182 251q0 250 182 250q96 0 136 -66h1v226q0 30 30 30h24q30 0 30 -30v-620q0 -30 -30 -30zM255 67q37 0 61 13.5t36 40t16 54t4 65.5t-4 65.5t-16 53.5t-36 39.5t-61 13.5t-61 -14t-35.5 -40.5t-15.5 -53.5
t-4 -64t4 -64.5t15.5 -54t35.5 -40.5t61 -14z" />
    <glyph glyph-name="e" unicode="e" horiz-adv-x="512" 
d="M139 283h234q0 59 -29 96t-88 37q-56 0 -86.5 -37.5t-30.5 -95.5zM266 -11q-110 -1 -161.5 69t-51.5 182t48.5 181t154.5 69q104 0 152 -66.5t48 -182.5q0 -30 -31 -30h-286v-3q0 -64 33 -102.5t96 -38.5q65 0 107 47q19 21 44 3l14 -10q23 -17 3 -43q-61 -75 -170 -75z
" />
    <glyph glyph-name="f" unicode="f" horiz-adv-x="338" 
d="M172 0h-24q-30 0 -30 30v376h-68q-30 0 -30 30v13q0 30 30 30h68v47q0 83 35 118.5t111 35.5h41q29 0 19 -28l-10 -29q-6 -18 -29 -18h-10q-45 0 -59 -13.5t-14 -58.5v-54h79q30 0 30 -30v-13q0 -30 -30 -30h-79v-376q0 -30 -30 -30z" />
    <glyph glyph-name="g" unicode="g" horiz-adv-x="529" 
d="M238 -191q-47 0 -88 16.5t-66 40.5q-21 21 2 42l13 13q22 20 44 2q46 -36 99 -36q121 0 121 129v56h-1q-36 -66 -133 -66q-177 0 -177 242q0 78 16 126q37 116 161 116q97 0 133 -66h1l10 27q10 28 40 28h4q30 0 30 -30v-428q0 -102 -54 -157t-155 -55zM250 83
q113 0 113 165q0 59 -11 93q-25 71 -102 71q-76 0 -101 -71q-12 -37 -12 -93q0 -165 113 -165z" />
    <glyph glyph-name="h" unicode="h" horiz-adv-x="544" 
d="M437 0h-24q-30 0 -30 30v260q0 122 -107 122q-49 0 -79.5 -32t-30.5 -85v-265q0 -30 -30 -30h-24q-30 0 -30 30v620q0 30 30 30h24q30 0 30 -30v-225h1q40 65 134 65q77 0 121.5 -49t44.5 -131v-280q0 -30 -30 -30z" />
    <glyph glyph-name="i" unicode="i" horiz-adv-x="248" 
d="M141 566h-34q-30 0 -30 30v54q0 30 30 30h34q30 0 30 -30v-54q0 -30 -30 -30zM136 0h-24q-30 0 -30 30v419q0 30 30 30h24q30 0 30 -30v-419q0 -30 -30 -30z" />
    <glyph glyph-name="j" unicode="j" horiz-adv-x="248" 
d="M139 -183l-30 -14q-27 -13 -27 17v629q0 30 30 30h24q30 0 30 -30v-589q0 -30 -27 -43zM141 566h-34q-30 0 -30 30v54q0 30 30 30h34q30 0 30 -30v-54q0 -30 -30 -30z" />
    <glyph glyph-name="k" unicode="k" horiz-adv-x="511" 
d="M457 0h-36q-30 0 -46 26l-110 181q-16 26 -46 26h-53v-203q0 -30 -30 -30h-24q-30 0 -30 30v620q0 30 30 30h24q30 0 30 -30v-339h54q30 0 47 25l79 118q17 25 47 25h35q32 0 15 -25l-124 -180l152 -248q16 -26 -14 -26z" />
    <glyph glyph-name="l" unicode="l" horiz-adv-x="244" 
d="M134 0h-24q-30 0 -30 30v620q0 30 30 30h24q30 0 30 -30v-620q0 -30 -30 -30z" />
    <glyph glyph-name="m" unicode="m" horiz-adv-x="845" 
d="M738 0h-24q-30 0 -30 30v260q0 122 -107 122q-48 0 -79 -32t-31 -85v-265q0 -30 -30 -30h-24q-30 0 -30 30v260q0 122 -107 122q-49 0 -79.5 -32t-30.5 -85v-265q0 -30 -30 -30h-24q-30 0 -30 30v419q0 30 30 30h4q30 0 40 -28l10 -26h1q40 65 134 65q98 0 140 -75h1
q54 75 155 75q82 0 126.5 -48.5t44.5 -131.5v-280q0 -30 -30 -30z" />
    <glyph glyph-name="n" unicode="n" horiz-adv-x="544" 
d="M82 30v419q0 30 30 30h4q30 0 40 -28l10 -26h1q40 65 134 65q77 0 121.5 -49t44.5 -131v-280q0 -30 -30 -30h-24q-30 0 -30 30v260q0 122 -107 122q-49 0 -79.5 -32t-30.5 -85v-265q0 -30 -30 -30h4h2h2h2h2h1h1h1h1h1h1v0h1v0v0v0h-1v0h-1v0h-1v0h-1h-1h-1h-1h-1h-1h-1
h-1h-1h-1h-1h-1h-1h-1h-1h-1h-1h-1h-1h-1h-1h-1h-1h-1h-1h-1h-1h-1h-1h-1h-10q-30 0 -30 30z" />
    <glyph glyph-name="o" unicode="o" horiz-adv-x="516" 
d="M258 -11q-107 0 -156 69.5t-49 181.5q0 53 11 96.5t34 79t64 55t96 19.5t96 -19.5t64 -55t34 -79t11 -96.5q0 -112 -49 -181.5t-156 -69.5zM258 67q37 0 61.5 14t36.5 40t16.5 54t4.5 65q0 36 -4.5 64t-16.5 54t-37 40t-61 14t-61 -14t-37 -40t-16.5 -54t-4.5 -64
q0 -37 4.5 -65t16.5 -54t36.5 -40t61.5 -14z" />
    <glyph glyph-name="p" unicode="p" horiz-adv-x="538" 
d="M136 -180h-24q-30 0 -30 30v599q0 30 30 30h4q30 0 40 -28l10 -27h1q40 66 136 66q182 0 182 -250q0 -251 -182 -251q-95 0 -136 67h-1v-206q0 -30 -30 -30zM283 67q37 0 61 14t35.5 40.5t15.5 54t4 64.5t-4 64t-15.5 53.5t-35.5 40.5t-61 14t-61 -13.5t-36 -39.5
t-16 -53.5t-4 -65.5t4 -65.5t16 -54t36 -40t61 -13.5z" />
    <glyph glyph-name="q" unicode="q" horiz-adv-x="538" 
d="M426 -180h-24q-30 0 -30 30v206h-1q-41 -67 -136 -67q-182 0 -182 251q0 250 182 250q96 0 136 -66h1l10 27q10 28 40 28h4q30 0 30 -30v-599q0 -30 -30 -30zM255 67q37 0 61 13.5t36 40t16 54t4 65.5q0 67 -11 100q-24 72 -106 72q-37 0 -61 -14t-35.5 -40.5
t-15.5 -53.5t-4 -64t4 -64.5t15.5 -54t35.5 -40.5t61 -14z" />
    <glyph glyph-name="r" unicode="r" horiz-adv-x="366" 
d="M315 408h-46q-103 0 -103 -140v-238q0 -30 -30 -30h-24q-30 0 -30 30v419q0 30 30 30h4q30 0 39 -29l11 -34h1q36 70 127 70h21q30 0 30 -30v-18q0 -30 -30 -30z" />
    <glyph glyph-name="s" unicode="s" horiz-adv-x="490" 
d="M252 64q51 0 78 20t27 53q0 30 -19.5 45.5t-73.5 21.5l-51 5q-143 15 -143 135q0 69 47 107.5t131 38.5q57 0 99 -19t62 -46q19 -24 -5 -42l-12 -9q-22 -17 -42 3q-40 40 -107 40q-44 0 -67.5 -18t-23.5 -48q0 -29 21 -44.5t73 -20.5l50 -5q72 -7 108 -41.5t36 -93.5
q0 -72 -50.5 -114.5t-142.5 -42.5q-76 0 -123 26.5t-67 59.5q-17 27 5 42l16 11q26 18 42 -3q46 -61 132 -61z" />
    <glyph glyph-name="t" unicode="t" horiz-adv-x="366" 
d="M110 131v275h-54q-30 0 -30 30v13q0 30 30 30h5h49l12 96q5 34 36 34h6q30 0 30 -30v-100h92q30 0 30 -30v-13q0 -30 -30 -30h-92v-274q0 -35 14 -48t47 -13h27q30 0 30 -30v-16q0 -30 -30 -30h-43q-69 0 -99 32.5t-30 103.5z" />
    <glyph glyph-name="u" unicode="u" horiz-adv-x="539" 
d="M427 0h-4q-30 0 -40 28l-10 27h-1q-41 -66 -131 -66q-78 0 -122 49t-44 132v279q0 30 30 30h24q30 0 30 -30v-259q0 -123 106 -123q49 0 78.5 32t29.5 86v264q0 30 30 30h24q30 0 30 -30v-419q0 -30 -30 -30z" />
    <glyph glyph-name="v" unicode="v" horiz-adv-x="485" 
d="M293 0h-100q-30 0 -39 29l-129 421q-9 29 21 29h35q29 0 38 -29l103 -375h43l103 375q9 29 38 29h33q30 0 21 -29l-128 -421q-9 -29 -39 -29z" />
    <glyph glyph-name="w" unicode="w" horiz-adv-x="745" 
d="M264 0h-78q-29 0 -38 29l-112 421q-9 29 22 29h37q30 0 37 -29l84 -381h19l59 320q6 29 36 29h83q30 0 36 -29l61 -320h19l90 381q7 29 37 29h30q31 0 22 -29l-114 -421q-9 -29 -38 -29h-75q-30 0 -37 29l-68 323h-10l-65 -323q-7 -29 -37 -29z" />
    <glyph glyph-name="x" unicode="x" horiz-adv-x="480" 
d="M427 0h-35q-30 0 -47 25l-105 153h-1l-105 -153q-17 -25 -47 -25h-34q-30 0 -13 25l153 225l-139 204q-17 25 13 25h35q30 0 47 -25l90 -133h1l92 133q17 25 47 25h34q30 0 13 -25l-140 -204l154 -225q17 -25 -13 -25z" />
    <glyph glyph-name="y" unicode="y" horiz-adv-x="477" 
d="M167 29l-137 421q-9 29 21 29h31q31 0 38 -29l111 -376h23l106 376q9 29 38 29h28q30 0 21 -29l-150 -487q-27 -81 -65.5 -112t-96.5 -31h-29q-30 0 -30 30v14q0 30 30 30h21q37 0 58.5 17t35.5 59l10 30h-1h-1h-1h-2h-2h-3h-3h-3h-9q-30 0 -39 29z" />
    <glyph glyph-name="z" unicode="z" horiz-adv-x="477" 
d="M373 0h-288q-30 0 -30 30v9q0 30 19 53l248 309v2h-224q-30 0 -30 30v16q0 30 30 30h294q30 0 30 -30v-12q0 -30 -19 -53l-246 -306v-2h246q30 0 19 -28l-8 -20q-11 -28 -41 -28z" />
    <glyph glyph-name="braceleft" unicode="{" horiz-adv-x="333" 
d="M266 -84h-26q-107 0 -107 113v182q0 81 -62 81q-30 0 -30 30v17q0 30 30 30q62 0 62 80v178q0 113 107 113h26q30 0 30 -30v-8q0 -30 -30 -30h-9q-45 0 -45 -49v-173q0 -55 -14 -81t-48 -38v-1q34 -12 48 -38t14 -81v-178q0 -49 45 -49h9q30 0 30 -30v-8q0 -30 -30 -30z
" />
    <glyph glyph-name="bar" unicode="|" horiz-adv-x="290" 
d="M151 -84h-12q-30 0 -30 30v764q0 30 30 30h12q30 0 30 -30v-764q0 -30 -30 -30z" />
    <glyph glyph-name="braceright" unicode="}" horiz-adv-x="333" 
d="M93 -84h-26q-30 0 -30 30v8q0 30 30 30h9q45 0 45 49v178q0 55 14 81t48 38v1q-34 12 -48 38t-14 81v173q0 49 -45 49h-9q-30 0 -30 30v8q0 30 30 30h26q107 0 107 -113v-178q0 -80 62 -80q30 0 30 -30v-17q0 -30 -30 -30q-62 0 -62 -81v-182q0 -113 -107 -113z" />
    <glyph glyph-name="asciitilde" unicode="~" 
d="M286 307q44 -29 71 -29q36 0 65 39q15 22 40 8l5 -3q14 -9 17 -16.5t-4 -22.5q-43 -75 -124 -75q-44 0 -100 37q-44 29 -71 29q-38 0 -65 -39q-15 -22 -41 -7l-4 2q-27 15 -13 39q43 75 124 75q44 0 100 -37z" />
    <glyph glyph-name="exclamdown" unicode="&#xa1;" horiz-adv-x="288" 
d="M143 295h2q30 0 31 -30l14 -436q1 -30 -29 -30h-34q-30 0 -29 30l14 436q1 30 31 30zM96 403v46q0 30 30 30h36q30 0 30 -30v-46q0 -30 -30 -30h-36q-30 0 -30 30z" />
    <glyph glyph-name="cent" unicode="&#xa2;" 
d="M267 -80v70q-95 8 -138 75.5t-43 174.5q0 106 43 173.5t138 75.5v71q0 20 20 20h6q20 0 20 -20v-71q79 -8 128 -64q19 -23 -5 -42l-14 -11q-22 -17 -42 3q-32 30 -67 35v-342q37 6 67 36q20 20 42 3l15 -12q23 -18 5 -40q-48 -57 -129 -65v-70q0 -20 -20 -20h-6
q-20 0 -20 20zM172 240q0 -157 95 -171v341q-95 -15 -95 -170z" />
    <glyph glyph-name="sterling" unicode="&#xa3;" 
d="M433 0h-305q-30 0 -30 30v14q0 29 16 46q25 29 25 84v111h-34q-30 0 -30 30v7q0 30 30 30h34v6v152q0 86 44 133.5t120 47.5q60 0 98.5 -30.5t53.5 -76.5q7 -25 -22 -32l-23 -6q-28 -7 -36 17q-7 20 -25 35t-46 15q-37 0 -57.5 -23t-20.5 -67v-165v-6h113q30 0 30 -30v-7
q0 -30 -30 -30h-113v-98q0 -71 -28 -108v-1h236q30 0 30 -30v-18q0 -30 -30 -30z" />
    <glyph glyph-name="yen" unicode="&#xa5;" 
d="M283 0h-24q-30 0 -30 30v118h-112q-30 0 -30 30v2q0 30 30 30h112v63h-112q-30 0 -30 30v2q0 30 30 30h88v2l-147 316q-13 27 17 27h30q31 0 42 -27l125 -281h3l121 280q11 28 42 28h29q30 0 17 -27l-147 -316v-2h88q30 0 30 -30v-2q0 -30 -30 -30h-112v-63h112
q30 0 30 -30v-2q0 -30 -30 -30h-112v-118q0 -30 -30 -30z" />
    <glyph glyph-name="dieresis" unicode="&#xa8;" horiz-adv-x="421" 
d="M319 587h-19q-30 0 -30 30v33q0 30 30 30h19q30 0 30 -30v-33q0 -30 -30 -30zM122 587h-19q-30 0 -30 30v33q0 30 30 30h19q30 0 30 -30v-33q0 -30 -30 -30z" />
    <glyph glyph-name="ordfeminine" unicode="&#xaa;" horiz-adv-x="343" 
d="M266 392h-6q-30 0 -30 30h-1q-28 -35 -88 -35q-44 0 -73 22t-29 64q0 93 124 93h60q6 0 6 6v14q0 22 -15 32t-53 10q-29 0 -53 -9q-28 -12 -41 12q-17 27 10 40q36 17 92 17q70 0 98.5 -23.5t28.5 -77.5v-165q0 -30 -30 -30zM159 442q70 0 70 46v22q0 6 -6 6h-55
q-62 0 -62 -38q0 -36 53 -36z" />
    <glyph glyph-name="guillemotleft" unicode="&#xab;" horiz-adv-x="535" 
d="M229 76l-164 167q-21 21 0 42l164 167q21 21 21 -9v-38q0 -30 -21 -51l-91 -90l91 -90q21 -21 21 -51v-38q0 -30 -21 -9zM444 76l-164 167q-21 21 0 42l164 167q21 21 21 -9v-38q0 -30 -21 -51l-91 -90l91 -90q21 -21 21 -51v-38q0 -30 -21 -9z" />
    <glyph glyph-name="degree" unicode="&#xb0;" horiz-adv-x="456" 
d="M228 397q-63 0 -104.5 42t-41.5 104t41.5 104t104.5 42t104.5 -42t41.5 -104t-41.5 -104t-104.5 -42zM228 449q40 0 65.5 26.5t25.5 67.5t-25.5 67.5t-65.5 26.5t-65.5 -26.5t-25.5 -67.5t25.5 -67.5t65.5 -26.5z" />
    <glyph glyph-name="twosuperior" unicode="&#xb2;" horiz-adv-x="341" 
d="M268 430h-196q-30 0 -30 30q0 27 20 50l136 154q31 33 31 64q0 24 -15.5 39t-41.5 15q-44 0 -57 -37q-4 -13 -12 -16.5t-23 -0.5l-5 1q-31 6 -25 30q9 31 39.5 57.5t83.5 26.5q56 0 89.5 -33t33.5 -82q0 -51 -44 -100l-122 -135v-2h138q30 0 30 -30v-1q0 -30 -30 -30z
" />
    <glyph glyph-name="threesuperior" unicode="&#xb3;" horiz-adv-x="341" 
d="M172 423q-51 0 -84.5 21t-45.5 56q-4 13 1.5 18.5t21.5 9.5l4 1q19 4 25.5 1t14.5 -15q23 -31 61 -31q29 0 47 17.5t18 44.5q0 28 -18.5 45t-50.5 17q-36 0 -36 30v1q0 15 9.5 22.5t22.5 7.5q29 0 46 15.5t17 41.5t-15.5 41t-43.5 15q-37 0 -54 -26q-7 -12 -12.5 -14.5
t-23.5 0.5l-4 1q-16 4 -21.5 10.5t-1.5 19.5q10 29 40 49.5t79 20.5q58 0 91.5 -31t33.5 -81q0 -54 -46 -86v-1q21 -9 38 -35t17 -62q0 -56 -35.5 -90t-94.5 -34z" />
    <glyph glyph-name="acute" unicode="&#xb4;" horiz-adv-x="421" 
d="M163 557h-10q-30 0 -14 26l56 91q16 26 46 26h30q30 0 12 -24l-72 -95q-18 -24 -48 -24z" />
    <glyph glyph-name="onesuperior" unicode="&#xb9;" horiz-adv-x="341" 
d="M200 430h-7q-30 0 -30 30v295h-2l-51 -34q-25 -17 -25 13v24q0 22 25 39l33 22q26 17 47 17h14q26 0 26 -30v-346q0 -30 -30 -30z" />
    <glyph glyph-name="ordmasculine" unicode="&#xba;" horiz-adv-x="351" 
d="M175 384q-101 0 -128 84q-9 27 -9 68t9 68q27 84 128 84t129 -84q9 -27 9 -68t-9 -68q-28 -84 -129 -84zM175 447q46 0 61 42q6 18 6 47t-6 47q-15 42 -61 42q-45 0 -60 -42q-6 -18 -6 -47t6 -47q15 -42 60 -42z" />
    <glyph glyph-name="guillemotright" unicode="&#xbb;" horiz-adv-x="535" 
d="M470 243l-164 -167q-21 -21 -21 9v38q0 30 21 51l91 90l-91 90q-21 21 -21 51v38q0 30 21 9l164 -167q21 -21 0 -42zM255 243l-164 -167q-21 -21 -21 9v38q0 30 21 51l91 90l-91 90q-21 21 -21 51v38q0 30 21 9l164 -167q21 -21 0 -42z" />
    <glyph glyph-name="onequarter" unicode="&#xbc;" horiz-adv-x="835" 
d="M209 274h-7q-30 0 -30 30v295h-2l-51 -34q-25 -17 -25 13v24q0 22 25 39l33 22q26 17 47 17h14q26 0 26 -30v-346q0 -30 -30 -30zM205 -11h-7q-29 0 -15 26l376 650q14 26 45 26h8q29 0 15 -26l-377 -650q-14 -26 -45 -26zM669 0h-5q-30 0 -30 30v31q0 6 -6 6h-142
q-30 0 -30 30v-2q0 30 13 57l111 227q13 27 43 27h12q30 0 17 -27l-120 -250v-1h96q6 0 6 6v69q0 30 30 30h5q30 0 30 -30v-69q0 -6 6 -6h6q30 0 30 -30v-1q0 -30 -30 -30h-6q-6 0 -6 -6v-31q0 -30 -30 -30z" />
    <glyph glyph-name="onehalf" unicode="&#xbd;" horiz-adv-x="870" 
d="M209 274h-7q-30 0 -30 30v295h-2l-51 -34q-25 -17 -25 13v24q0 22 25 39l33 22q26 17 47 17h14q26 0 26 -30v-346q0 -30 -30 -30zM746 0h-196q-30 0 -30 30q0 27 20 50l136 154q31 33 31 64q0 24 -15.5 39t-41.5 15q-44 0 -57 -37q-8 -23 -35 -17l-5 1q-31 6 -25 30
q9 31 39.5 57.5t83.5 26.5q56 0 89.5 -33t33.5 -82q0 -51 -44 -100l-122 -135v-2h138q30 0 30 -30v-1q0 -30 -30 -30zM205 -11h-7q-29 0 -15 26l376 650q14 26 45 26h8q29 0 15 -26l-377 -650q-14 -26 -45 -26z" />
    <glyph glyph-name="threequarters" unicode="&#xbe;" horiz-adv-x="906" 
d="M740 0h-5q-30 0 -30 30v31q0 6 -6 6h-142q-30 0 -30 30v-2q0 30 13 57l111 227q13 27 43 27h12q30 0 17 -27l-120 -250v-1h96q6 0 6 6v69q0 30 30 30h5q30 0 30 -30v-69q0 -6 6 -6h6q30 0 30 -30v-1q0 -30 -30 -30h-6q-6 0 -6 -6v-31q0 -30 -30 -30zM229 267
q-51 0 -84.5 21t-45.5 56q-4 13 1.5 18.5t21.5 9.5l4 1q19 4 25.5 1t14.5 -15q23 -31 61 -31q29 0 47 17.5t18 44.5q0 28 -18.5 45t-50.5 17q-36 0 -36 30v1q0 15 9.5 22.5t22.5 7.5q29 0 46 15.5t17 41.5t-15.5 41t-43.5 15q-37 0 -54 -26q-7 -12 -12.5 -14.5t-23.5 0.5
l-4 1q-16 4 -21.5 10.5t-1.5 19.5q10 29 40 49.5t79 20.5q58 0 91.5 -31t33.5 -81q0 -54 -46 -86v-1q21 -9 38 -35t17 -62q0 -56 -35.5 -90t-94.5 -34zM277 -11h-7q-29 0 -15 26l376 650q14 26 45 26h8q29 0 15 -26l-377 -650q-14 -26 -45 -26z" />
    <glyph glyph-name="questiondown" unicode="&#xbf;" horiz-adv-x="456" 
d="M215 509h26q30 0 30 -30v-21q0 -49 -30 -90l-67 -92q-27 -37 -37 -58.5t-10 -46.5q0 -42 27 -67.5t70 -25.5q77 0 100 79q4 14 11.5 18t23.5 2l23 -4q16 -3 21.5 -10t3.5 -21q-15 -63 -62.5 -102.5t-122.5 -39.5q-81 0 -131 47.5t-50 122.5q0 60 51 130l67 92
q26 35 26 75v12q0 30 30 30zM276 661v-46q0 -30 -30 -30h-36q-30 0 -30 30v46q0 30 30 30h36q30 0 30 -30z" />
    <glyph glyph-name="Agrave" unicode="&#xc0;" horiz-adv-x="585" 
d="M242 680h105q31 0 38 -29l168 -622q7 -29 -22 -29h-33q-30 0 -37 29l-33 128h-268l-34 -128q-7 -29 -38 -29h-33q-31 0 -22 29l171 622q9 29 38 29zM278 602l-97 -363h226l-93 363h-36zM307 776h-10q-30 0 -48 24l-72 95q-18 24 12 24h30q30 0 46 -26l56 -91
q16 -26 -14 -26z" />
    <glyph glyph-name="Aacute" unicode="&#xc1;" horiz-adv-x="585" 
d="M242 680h105q31 0 38 -29l168 -622q7 -29 -22 -29h-33q-30 0 -37 29l-33 128h-268l-34 -128q-7 -29 -38 -29h-33q-31 0 -22 29l171 622q9 29 38 29zM278 602l-97 -363h226l-93 363h-36zM299 776h-10q-30 0 -14 26l56 91q16 26 46 26h30q30 0 12 -24l-72 -95
q-18 -24 -48 -24z" />
    <glyph glyph-name="Acircumflex" unicode="&#xc2;" horiz-adv-x="585" 
d="M242 680h105q31 0 38 -29l168 -622q7 -29 -22 -29h-33q-30 0 -37 29l-33 128h-268l-34 -128q-7 -29 -38 -29h-33q-31 0 -22 29l171 622q9 29 38 29zM278 602l-97 -363h226l-93 363h-36zM298 920h-1q30 0 48 -24l75 -96q17 -24 -12 -24h-7q-29 0 -50 22l-52 59h-2l-53 -59
q-21 -22 -50 -22h-7q-30 0 -12 24l75 96q17 24 48 24z" />
    <glyph glyph-name="Atilde" unicode="&#xc3;" horiz-adv-x="585" 
d="M242 680h105q31 0 38 -29l168 -622q7 -29 -22 -29h-33q-30 0 -37 29l-33 128h-268l-34 -128q-7 -29 -38 -29h-33q-31 0 -22 29l171 622q9 29 38 29zM278 602l-97 -363h226l-93 363h-36zM348 778q-26 0 -63 21q-32 18 -53 18q-25 0 -49 -27q-10 -10 -16 -7t-6 17v16
q0 35 20 49q29 20 55 20q28 0 63 -21q32 -18 53 -18q26 0 50 28q7 8 14 6t7 -17v-16q0 -31 -21 -49q-23 -20 -54 -20z" />
    <glyph glyph-name="Adieresis" unicode="&#xc4;" horiz-adv-x="585" 
d="M242 680h105q31 0 38 -29l168 -622q7 -29 -22 -29h-33q-30 0 -37 29l-33 128h-268l-34 -128q-7 -29 -38 -29h-33q-31 0 -22 29l171 622q9 29 38 29zM278 602l-97 -363h226l-93 363h-36zM404 776h-19q-30 0 -30 30v33q0 30 30 30h19q30 0 30 -30v-33q0 -30 -30 -30z
M207 776h-19q-30 0 -30 30v33q0 30 30 30h19q30 0 30 -30v-33q0 -30 -30 -30z" />
    <glyph glyph-name="Aring" unicode="&#xc5;" horiz-adv-x="585" 
d="M242 680h105q31 0 38 -29l168 -622q7 -29 -22 -29h-33q-30 0 -37 29l-33 128h-268l-34 -128q-7 -29 -38 -29h-33q-31 0 -22 29l171 622q9 29 38 29zM278 602l-97 -363h226l-93 363h-36zM296 774q-40 0 -67.5 27t-27.5 67t27.5 67t67.5 27t67.5 -27t27.5 -67t-27.5 -67
t-67.5 -27zM296 815q22 0 36.5 15t14.5 38t-14.5 38t-36.5 15t-36.5 -15t-14.5 -38t14.5 -38t36.5 -15z" />
    <glyph glyph-name="Egrave" unicode="&#xc8;" horiz-adv-x="563" 
d="M84 30v620q0 30 30 30h369q30 0 30 -30v-23q0 -30 -30 -30h-310v-212h261q30 0 30 -30v-23q0 -30 -30 -30h-261v-219h310q30 0 30 -30v-23q0 -30 -30 -30h-369q-30 0 -30 30zM310 776h-10q-30 0 -48 24l-72 95q-18 24 12 24h30q30 0 46 -26l56 -91q16 -26 -14 -26z" />
    <glyph glyph-name="Eacute" unicode="&#xc9;" horiz-adv-x="563" 
d="M84 30v620q0 30 30 30h369q30 0 30 -30v-23q0 -30 -30 -30h-310v-212h261q30 0 30 -30v-23q0 -30 -30 -30h-261v-219h310q30 0 30 -30v-23q0 -30 -30 -30h-369q-30 0 -30 30zM282 776h-10q-30 0 -14 26l56 91q16 26 46 26h30q30 0 12 -24l-72 -95q-18 -24 -48 -24z" />
    <glyph glyph-name="Ecircumflex" unicode="&#xca;" horiz-adv-x="563" 
d="M84 30v620q0 30 30 30h369q30 0 30 -30v-23q0 -30 -30 -30h-310v-212h261q30 0 30 -30v-23q0 -30 -30 -30h-261v-219h310q30 0 30 -30v-23q0 -30 -30 -30h-369q-30 0 -30 30zM292 920h-1q30 0 48 -24l75 -96q17 -24 -12 -24h-7q-29 0 -50 22l-52 59h-2l-53 -59
q-21 -22 -50 -22h-7q-30 0 -12 24l75 96q17 24 48 24z" />
    <glyph glyph-name="Edieresis" unicode="&#xcb;" horiz-adv-x="563" 
d="M84 30v620q0 30 30 30h369q30 0 30 -30v-23q0 -30 -30 -30h-310v-212h261q30 0 30 -30v-23q0 -30 -30 -30h-261v-219h310q30 0 30 -30v-23q0 -30 -30 -30h-369q-30 0 -30 30zM407 776h-19q-30 0 -30 30v33q0 30 30 30h19q30 0 30 -30v-33q0 -30 -30 -30zM210 776h-19
q-30 0 -30 30v33q0 30 30 30h19q30 0 30 -30v-33q0 -30 -30 -30z" />
    <glyph glyph-name="Igrave" unicode="&#xcc;" horiz-adv-x="257" 
d="M84 30v620q0 30 30 30h29q30 0 30 -30v-620q0 -30 -30 -30h-29q-30 0 -30 30zM136 776h-10q-30 0 -48 24l-72 95q-18 24 12 24h30q30 0 46 -26l56 -91q16 -26 -14 -26z" />
    <glyph glyph-name="Iacute" unicode="&#xcd;" horiz-adv-x="257" 
d="M84 30v620q0 30 30 30h29q30 0 30 -30v-620q0 -30 -30 -30h-29q-30 0 -30 30zM131 776h-10q-30 0 -14 26l56 91q16 26 46 26h30q30 0 12 -24l-72 -95q-18 -24 -48 -24z" />
    <glyph glyph-name="Icircumflex" unicode="&#xce;" horiz-adv-x="257" 
d="M84 30v620q0 30 30 30h29q30 0 30 -30v-620q0 -30 -30 -30h-29q-30 0 -30 30zM130 920h-1q30 0 48 -24l75 -96q17 -24 -12 -24h-7q-29 0 -50 22l-52 59h-2l-53 -59q-21 -22 -50 -22h-7q-30 0 -12 24l75 96q17 24 48 24z" />
    <glyph glyph-name="Idieresis" unicode="&#xcf;" horiz-adv-x="257" 
d="M84 30v620q0 30 30 30h29q30 0 30 -30v-620q0 -30 -30 -30h-29q-30 0 -30 30zM237 776h-19q-30 0 -30 30v33q0 30 30 30h19q30 0 30 -30v-33q0 -30 -30 -30zM40 776h-19q-30 0 -30 30v33q0 30 30 30h19q30 0 30 -30v-33q0 -30 -30 -30z" />
    <glyph glyph-name="Ntilde" unicode="&#xd1;" horiz-adv-x="654" 
d="M84 30v620q0 30 30 30h25q30 0 46 -26l298 -494h4v490q0 30 30 30h23q30 0 30 -30v-620q0 -30 -30 -30h-25q-30 0 -46 26l-299 492h-3v-488q0 -30 -30 -30h-23q-30 0 -30 30zM386 778q-26 0 -63 21q-32 18 -53 18q-25 0 -49 -27q-10 -10 -16 -7t-6 17v16q0 35 20 49
q29 20 55 20q28 0 63 -21q32 -18 53 -18q26 0 50 28q7 8 14 6t7 -17v-16q0 -31 -21 -49q-23 -20 -54 -20z" />
    <glyph glyph-name="Ograve" unicode="&#xd2;" horiz-adv-x="619" 
d="M309 -11q-61 0 -107 20.5t-72.5 52.5t-42.5 79.5t-21.5 94t-5.5 104.5t5.5 104.5t21.5 94t42.5 79.5t72.5 52.5t107 20.5q62 0 108 -20.5t72.5 -52.5t42.5 -80t21.5 -94.5t5.5 -103.5q0 -72 -9.5 -128.5t-35 -110t-77.5 -83t-128 -29.5zM309 72q32 0 57.5 8.5t42 22
t28.5 36t18 42.5t9.5 51t4 53t0.5 55q0 39 -1 64t-5.5 60.5t-15.5 57.5t-27.5 43.5t-45 32t-65.5 10.5t-65 -10.5t-45 -32t-27.5 -43.5t-15 -57.5t-5.5 -60.5t-1 -64t1 -64t5.5 -60.5t15 -57.5t27.5 -43.5t45 -32t65 -10.5zM318 776h-10q-30 0 -48 24l-72 95q-18 24 12 24
h30q30 0 46 -26l56 -91q16 -26 -14 -26z" />
    <glyph glyph-name="Oacute" unicode="&#xd3;" horiz-adv-x="619" 
d="M309 -11q-61 0 -107 20.5t-72.5 52.5t-42.5 79.5t-21.5 94t-5.5 104.5t5.5 104.5t21.5 94t42.5 79.5t72.5 52.5t107 20.5q62 0 108 -20.5t72.5 -52.5t42.5 -80t21.5 -94.5t5.5 -103.5q0 -72 -9.5 -128.5t-35 -110t-77.5 -83t-128 -29.5zM309 72q32 0 57.5 8.5t42 22
t28.5 36t18 42.5t9.5 51t4 53t0.5 55q0 39 -1 64t-5.5 60.5t-15.5 57.5t-27.5 43.5t-45 32t-65.5 10.5t-65 -10.5t-45 -32t-27.5 -43.5t-15 -57.5t-5.5 -60.5t-1 -64t1 -64t5.5 -60.5t15 -57.5t27.5 -43.5t45 -32t65 -10.5zM313 776h-10q-30 0 -14 26l56 91q16 26 46 26h30
q30 0 12 -24l-72 -95q-18 -24 -48 -24z" />
    <glyph glyph-name="Ocircumflex" unicode="&#xd4;" horiz-adv-x="619" 
d="M309 -11q-61 0 -107 20.5t-72.5 52.5t-42.5 79.5t-21.5 94t-5.5 104.5t5.5 104.5t21.5 94t42.5 79.5t72.5 52.5t107 20.5q62 0 108 -20.5t72.5 -52.5t42.5 -80t21.5 -94.5t5.5 -103.5q0 -72 -9.5 -128.5t-35 -110t-77.5 -83t-128 -29.5zM309 72q32 0 57.5 8.5t42 22
t28.5 36t18 42.5t9.5 51t4 53t0.5 55q0 39 -1 64t-5.5 60.5t-15.5 57.5t-27.5 43.5t-45 32t-65.5 10.5t-65 -10.5t-45 -32t-27.5 -43.5t-15 -57.5t-5.5 -60.5t-1 -64t1 -64t5.5 -60.5t15 -57.5t27.5 -43.5t45 -32t65 -10.5zM310 920h-1q30 0 48 -24l75 -96q17 -24 -12 -24
h-7q-29 0 -50 22l-52 59h-2l-53 -59q-21 -22 -50 -22h-7q-30 0 -12 24l75 96q17 24 48 24z" />
    <glyph glyph-name="Otilde" unicode="&#xd5;" horiz-adv-x="619" 
d="M309 -11q-61 0 -107 20.5t-72.5 52.5t-42.5 79.5t-21.5 94t-5.5 104.5t5.5 104.5t21.5 94t42.5 79.5t72.5 52.5t107 20.5q62 0 108 -20.5t72.5 -52.5t42.5 -80t21.5 -94.5t5.5 -103.5q0 -72 -9.5 -128.5t-35 -110t-77.5 -83t-128 -29.5zM309 72q32 0 57.5 8.5t42 22
t28.5 36t18 42.5t9.5 51t4 53t0.5 55q0 39 -1 64t-5.5 60.5t-15.5 57.5t-27.5 43.5t-45 32t-65.5 10.5t-65 -10.5t-45 -32t-27.5 -43.5t-15 -57.5t-5.5 -60.5t-1 -64t1 -64t5.5 -60.5t15 -57.5t27.5 -43.5t45 -32t65 -10.5zM365 778q-26 0 -63 21q-32 18 -53 18
q-25 0 -49 -27q-10 -10 -16 -7t-6 17v16q0 35 20 49q29 20 55 20q28 0 63 -21q32 -18 53 -18q26 0 50 28q7 8 14 6t7 -17v-16q0 -31 -21 -49q-23 -20 -54 -20z" />
    <glyph glyph-name="Odieresis" unicode="&#xd6;" horiz-adv-x="619" 
d="M309 -11q-61 0 -107 20.5t-72.5 52.5t-42.5 79.5t-21.5 94t-5.5 104.5t5.5 104.5t21.5 94t42.5 79.5t72.5 52.5t107 20.5q62 0 108 -20.5t72.5 -52.5t42.5 -80t21.5 -94.5t5.5 -103.5q0 -72 -9.5 -128.5t-35 -110t-77.5 -83t-128 -29.5zM309 72q32 0 57.5 8.5t42 22
t28.5 36t18 42.5t9.5 51t4 53t0.5 55q0 39 -1 64t-5.5 60.5t-15.5 57.5t-27.5 43.5t-45 32t-65.5 10.5t-65 -10.5t-45 -32t-27.5 -43.5t-15 -57.5t-5.5 -60.5t-1 -64t1 -64t5.5 -60.5t15 -57.5t27.5 -43.5t45 -32t65 -10.5zM417 776h-19q-30 0 -30 30v33q0 30 30 30h19
q30 0 30 -30v-33q0 -30 -30 -30zM220 776h-19q-30 0 -30 30v33q0 30 30 30h19q30 0 30 -30v-33q0 -30 -30 -30z" />
    <glyph glyph-name="multiply" unicode="&#xd7;" 
d="M116 110l-11 11q-21 21 0 42l112 112l-113 113q-21 21 0 42l11 11q21 21 42 0l113 -113l113 113q21 21 42 0l11 -11q21 -21 0 -42l-113 -113l112 -112q21 -21 0 -42l-11 -11q-21 -21 -42 0l-112 112l-112 -112q-21 -21 -42 0z" />
    <glyph glyph-name="Ugrave" unicode="&#xd9;" horiz-adv-x="639" 
d="M320 -11q-114 0 -177.5 64.5t-63.5 183.5v413q0 30 30 30h29q30 0 30 -30v-412q0 -81 41 -123.5t111 -42.5q69 0 110 42.5t41 123.5v412q0 30 30 30h29q30 0 30 -30v-413q0 -119 -63.5 -183.5t-176.5 -64.5zM343 776h-10q-30 0 -48 24l-72 95q-18 24 12 24h30
q30 0 46 -26l56 -91q16 -26 -14 -26z" />
    <glyph glyph-name="Uacute" unicode="&#xda;" horiz-adv-x="639" 
d="M320 -11q-114 0 -177.5 64.5t-63.5 183.5v413q0 30 30 30h29q30 0 30 -30v-412q0 -81 41 -123.5t111 -42.5q69 0 110 42.5t41 123.5v412q0 30 30 30h29q30 0 30 -30v-413q0 -119 -63.5 -183.5t-176.5 -64.5zM320 776h-10q-30 0 -14 26l56 91q16 26 46 26h30q30 0 12 -24
l-72 -95q-18 -24 -48 -24z" />
    <glyph glyph-name="Ucircumflex" unicode="&#xdb;" horiz-adv-x="639" 
d="M320 -11q-114 0 -177.5 64.5t-63.5 183.5v413q0 30 30 30h29q30 0 30 -30v-412q0 -81 41 -123.5t111 -42.5q69 0 110 42.5t41 123.5v412q0 30 30 30h29q30 0 30 -30v-413q0 -119 -63.5 -183.5t-176.5 -64.5zM320 920h-1q30 0 48 -24l75 -96q17 -24 -12 -24h-7
q-29 0 -50 22l-52 59h-2l-53 -59q-21 -22 -50 -22h-7q-30 0 -12 24l75 96q17 24 48 24z" />
    <glyph glyph-name="Udieresis" unicode="&#xdc;" horiz-adv-x="639" 
d="M320 -11q-114 0 -177.5 64.5t-63.5 183.5v413q0 30 30 30h29q30 0 30 -30v-412q0 -81 41 -123.5t111 -42.5q69 0 110 42.5t41 123.5v412q0 30 30 30h29q30 0 30 -30v-413q0 -119 -63.5 -183.5t-176.5 -64.5zM427 776h-19q-30 0 -30 30v33q0 30 30 30h19q30 0 30 -30v-33
q0 -30 -30 -30zM230 776h-19q-30 0 -30 30v33q0 30 30 30h19q30 0 30 -30v-33q0 -30 -30 -30z" />
    <glyph glyph-name="agrave" unicode="&#xe0;" horiz-adv-x="523" 
d="M360 206h-102q-119 0 -119 -75q0 -33 26 -51.5t74 -18.5q56 0 88.5 25t32.5 69v51zM360 292v30q0 51 -25 72.5t-90 21.5q-54 0 -100 -24q-27 -14 -40 10l-6 10q-15 27 9 43q55 35 145 35q102 0 145 -37.5t43 -125.5v-297q0 -30 -30 -30h-4q-29 0 -40 28l-8 21
q-41 -60 -140 -60q-71 0 -116 36.5t-45 102.5q0 144 187 144h95q20 0 20 20zM293 557h-10q-30 0 -48 24l-72 95q-18 24 12 24h30q30 0 46 -26l56 -91q16 -26 -14 -26z" />
    <glyph glyph-name="aacute" unicode="&#xe1;" horiz-adv-x="523" 
d="M360 206h-102q-119 0 -119 -75q0 -33 26 -51.5t74 -18.5q56 0 88.5 25t32.5 69v51zM360 292v30q0 51 -25 72.5t-90 21.5q-54 0 -100 -24q-27 -14 -40 10l-6 10q-15 27 9 43q55 35 145 35q102 0 145 -37.5t43 -125.5v-297q0 -30 -30 -30h-4q-29 0 -40 28l-8 21
q-41 -60 -140 -60q-71 0 -116 36.5t-45 102.5q0 144 187 144h95q20 0 20 20zM254 557h-10q-30 0 -14 26l56 91q16 26 46 26h30q30 0 12 -24l-72 -95q-18 -24 -48 -24z" />
    <glyph glyph-name="acircumflex" unicode="&#xe2;" horiz-adv-x="523" 
d="M360 206h-102q-119 0 -119 -75q0 -33 26 -51.5t74 -18.5q56 0 88.5 25t32.5 69v51zM360 292v30q0 51 -25 72.5t-90 21.5q-54 0 -100 -24q-27 -14 -40 10l-6 10q-15 27 9 43q55 35 145 35q102 0 145 -37.5t43 -125.5v-297q0 -30 -30 -30h-4q-29 0 -40 28l-8 21
q-41 -60 -140 -60q-71 0 -116 36.5t-45 102.5q0 144 187 144h95q20 0 20 20zM272 700h-1q30 0 48 -24l75 -96q17 -24 -12 -24h-7q-29 0 -50 22l-52 59h-2l-53 -59q-21 -22 -50 -22h-7q-30 0 -12 24l75 96q17 24 48 24z" />
    <glyph glyph-name="atilde" unicode="&#xe3;" horiz-adv-x="523" 
d="M360 206h-102q-119 0 -119 -75q0 -33 26 -51.5t74 -18.5q56 0 88.5 25t32.5 69v51zM360 292v30q0 51 -25 72.5t-90 21.5q-54 0 -100 -24q-27 -14 -40 10l-6 10q-15 27 9 43q55 35 145 35q102 0 145 -37.5t43 -125.5v-297q0 -30 -30 -30h-4q-29 0 -40 28l-8 21
q-41 -60 -140 -60q-71 0 -116 36.5t-45 102.5q0 144 187 144h95q20 0 20 20zM327 576q-26 0 -63 21q-32 18 -53 18q-25 0 -49 -27q-10 -10 -16 -7t-6 17v16q0 35 20 49q29 20 55 20q28 0 63 -21q32 -18 53 -18q26 0 50 28q7 8 14 6t7 -17v-16q0 -31 -21 -49q-23 -20 -54 -20
z" />
    <glyph glyph-name="adieresis" unicode="&#xe4;" horiz-adv-x="523" 
d="M360 206h-102q-119 0 -119 -75q0 -33 26 -51.5t74 -18.5q56 0 88.5 25t32.5 69v51zM360 292v30q0 51 -25 72.5t-90 21.5q-54 0 -100 -24q-27 -14 -40 10l-6 10q-15 27 9 43q55 35 145 35q102 0 145 -37.5t43 -125.5v-297q0 -30 -30 -30h-4q-29 0 -40 28l-8 21
q-41 -60 -140 -60q-71 0 -116 36.5t-45 102.5q0 144 187 144h95q20 0 20 20zM379 587h-19q-30 0 -30 30v33q0 30 30 30h19q30 0 30 -30v-33q0 -30 -30 -30zM182 587h-19q-30 0 -30 30v33q0 30 30 30h19q30 0 30 -30v-33q0 -30 -30 -30z" />
    <glyph glyph-name="aring" unicode="&#xe5;" horiz-adv-x="523" 
d="M360 206h-102q-119 0 -119 -75q0 -33 26 -51.5t74 -18.5q56 0 88.5 25t32.5 69v51zM360 292v30q0 51 -25 72.5t-90 21.5q-54 0 -100 -24q-27 -14 -40 10l-6 10q-15 27 9 43q55 35 145 35q102 0 145 -37.5t43 -125.5v-297q0 -30 -30 -30h-4q-29 0 -40 28l-8 21
q-41 -60 -140 -60q-71 0 -116 36.5t-45 102.5q0 144 187 144h95q20 0 20 20zM271 535q-40 0 -67.5 27t-27.5 67t27.5 67t67.5 27t67.5 -27t27.5 -67t-27.5 -67t-67.5 -27zM271 576q22 0 36.5 15t14.5 38t-14.5 38t-36.5 15t-36.5 -15t-14.5 -38t14.5 -38t36.5 -15z" />
    <glyph glyph-name="egrave" unicode="&#xe8;" horiz-adv-x="512" 
d="M139 283h234q0 59 -29 96t-88 37q-56 0 -86.5 -37.5t-30.5 -95.5zM266 -11q-110 -1 -161.5 69t-51.5 182t48.5 181t154.5 69q104 0 152 -66.5t48 -182.5q0 -30 -31 -30h-286v-3q0 -64 33 -102.5t96 -38.5q65 0 107 47q19 21 44 3l14 -10q23 -17 3 -43q-61 -75 -170 -75z
M277 557h-10q-30 0 -48 24l-72 95q-18 24 12 24h30q30 0 46 -26l56 -91q16 -26 -14 -26z" />
    <glyph glyph-name="eacute" unicode="&#xe9;" horiz-adv-x="512" 
d="M139 283h234q0 59 -29 96t-88 37q-56 0 -86.5 -37.5t-30.5 -95.5zM266 -11q-110 -1 -161.5 69t-51.5 182t48.5 181t154.5 69q104 0 152 -66.5t48 -182.5q0 -30 -31 -30h-286v-3q0 -64 33 -102.5t96 -38.5q65 0 107 47q19 21 44 3l14 -10q23 -17 3 -43q-61 -75 -170 -75z
M256 557h-10q-30 0 -14 26l56 91q16 26 46 26h30q30 0 12 -24l-72 -95q-18 -24 -48 -24z" />
    <glyph glyph-name="ecircumflex" unicode="&#xea;" horiz-adv-x="512" 
d="M139 283h234q0 59 -29 96t-88 37q-56 0 -86.5 -37.5t-30.5 -95.5zM266 -11q-110 -1 -161.5 69t-51.5 182t48.5 181t154.5 69q104 0 152 -66.5t48 -182.5q0 -30 -31 -30h-286v-3q0 -64 33 -102.5t96 -38.5q65 0 107 47q19 21 44 3l14 -10q23 -17 3 -43q-61 -75 -170 -75z
M260 700h-1q30 0 48 -24l75 -96q17 -24 -12 -24h-7q-29 0 -50 22l-52 59h-2l-53 -59q-21 -22 -50 -22h-7q-30 0 -12 24l75 96q17 24 48 24z" />
    <glyph glyph-name="edieresis" unicode="&#xeb;" horiz-adv-x="512" 
d="M139 283h234q0 59 -29 96t-88 37q-56 0 -86.5 -37.5t-30.5 -95.5zM266 -11q-110 -1 -161.5 69t-51.5 182t48.5 181t154.5 69q104 0 152 -66.5t48 -182.5q0 -30 -31 -30h-286v-3q0 -64 33 -102.5t96 -38.5q65 0 107 47q19 21 44 3l14 -10q23 -17 3 -43q-61 -75 -170 -75z
M369 587h-19q-30 0 -30 30v33q0 30 30 30h19q30 0 30 -30v-33q0 -30 -30 -30zM172 587h-19q-30 0 -30 30v33q0 30 30 30h19q30 0 30 -30v-33q0 -30 -30 -30z" />
    <glyph glyph-name="igrave" unicode="&#xec;" horiz-adv-x="248" 
d="M136 0h-24q-30 0 -30 30v419q0 30 30 30h24q30 0 30 -30v-419q0 -30 -30 -30zM137 557h-10q-30 0 -48 24l-72 95q-18 24 12 24h30q30 0 46 -26l56 -91q16 -26 -14 -26z" />
    <glyph glyph-name="iacute" unicode="&#xed;" horiz-adv-x="248" 
d="M136 0h-24q-30 0 -30 30v419q0 30 30 30h24q30 0 30 -30v-419q0 -30 -30 -30zM122 557h-10q-30 0 -14 26l56 91q16 26 46 26h30q30 0 12 -24l-72 -95q-18 -24 -48 -24z" />
    <glyph glyph-name="icircumflex" unicode="&#xee;" horiz-adv-x="248" 
d="M136 0h-24q-30 0 -30 30v419q0 30 30 30h24q30 0 30 -30v-419q0 -30 -30 -30zM125 700h-1q30 0 48 -24l75 -96q17 -24 -12 -24h-7q-29 0 -50 22l-52 59h-2l-53 -59q-21 -22 -50 -22h-7q-30 0 -12 24l75 96q17 24 48 24z" />
    <glyph glyph-name="idieresis" unicode="&#xef;" horiz-adv-x="248" 
d="M136 0h-24q-30 0 -30 30v419q0 30 30 30h24q30 0 30 -30v-419q0 -30 -30 -30zM232 587h-19q-30 0 -30 30v33q0 30 30 30h19q30 0 30 -30v-33q0 -30 -30 -30zM35 587h-19q-30 0 -30 30v33q0 30 30 30h19q30 0 30 -30v-33q0 -30 -30 -30z" />
    <glyph glyph-name="ntilde" unicode="&#xf1;" horiz-adv-x="544" 
d="M82 30v419q0 30 30 30h4q30 0 40 -28l10 -26h1q40 65 134 65q77 0 121.5 -49t44.5 -131v-280q0 -30 -30 -30h-24q-30 0 -30 30v260q0 122 -107 122q-49 0 -79.5 -32t-30.5 -85v-265q0 -30 -30 -30h4h2h2h2h2h1h1h1h1h1h1v0h1v0v0v0h-1v0h-1v0h-1v0h-1h-1h-1h-1h-1h-1h-1
h-1h-1h-1h-1h-1h-1h-1h-1h-1h-1h-1h-1h-1h-1h-1h-1h-1h-1h-1h-1h-1h-1h-1h-10q-30 0 -30 30zM342 576q-26 0 -63 21q-32 18 -53 18q-25 0 -49 -27q-10 -10 -16 -7t-6 17v16q0 35 20 49q29 20 55 20q28 0 63 -21q32 -18 53 -18q26 0 50 28q7 8 14 6t7 -17v-16q0 -31 -21 -49
q-23 -20 -54 -20z" />
    <glyph glyph-name="ograve" unicode="&#xf2;" horiz-adv-x="516" 
d="M258 -11q-107 0 -156 69.5t-49 181.5q0 53 11 96.5t34 79t64 55t96 19.5t96 -19.5t64 -55t34 -79t11 -96.5q0 -112 -49 -181.5t-156 -69.5zM258 67q37 0 61.5 14t36.5 40t16.5 54t4.5 65q0 36 -4.5 64t-16.5 54t-37 40t-61 14t-61 -14t-37 -40t-16.5 -54t-4.5 -64
q0 -37 4.5 -65t16.5 -54t36.5 -40t61.5 -14zM273 557h-10q-30 0 -48 24l-72 95q-18 24 12 24h30q30 0 46 -26l56 -91q16 -26 -14 -26z" />
    <glyph glyph-name="oacute" unicode="&#xf3;" horiz-adv-x="516" 
d="M258 -11q-107 0 -156 69.5t-49 181.5q0 53 11 96.5t34 79t64 55t96 19.5t96 -19.5t64 -55t34 -79t11 -96.5q0 -112 -49 -181.5t-156 -69.5zM258 67q37 0 61.5 14t36.5 40t16.5 54t4.5 65q0 36 -4.5 64t-16.5 54t-37 40t-61 14t-61 -14t-37 -40t-16.5 -54t-4.5 -64
q0 -37 4.5 -65t16.5 -54t36.5 -40t61.5 -14zM255 557h-10q-30 0 -14 26l56 91q16 26 46 26h30q30 0 12 -24l-72 -95q-18 -24 -48 -24z" />
    <glyph glyph-name="ocircumflex" unicode="&#xf4;" horiz-adv-x="516" 
d="M258 -11q-107 0 -156 69.5t-49 181.5q0 53 11 96.5t34 79t64 55t96 19.5t96 -19.5t64 -55t34 -79t11 -96.5q0 -112 -49 -181.5t-156 -69.5zM258 67q37 0 61.5 14t36.5 40t16.5 54t4.5 65q0 36 -4.5 64t-16.5 54t-37 40t-61 14t-61 -14t-37 -40t-16.5 -54t-4.5 -64
q0 -37 4.5 -65t16.5 -54t36.5 -40t61.5 -14zM259 700h-1q30 0 48 -24l75 -96q17 -24 -12 -24h-7q-29 0 -50 22l-52 59h-2l-53 -59q-21 -22 -50 -22h-7q-30 0 -12 24l75 96q17 24 48 24z" />
    <glyph glyph-name="otilde" unicode="&#xf5;" horiz-adv-x="516" 
d="M258 -11q-107 0 -156 69.5t-49 181.5q0 53 11 96.5t34 79t64 55t96 19.5t96 -19.5t64 -55t34 -79t11 -96.5q0 -112 -49 -181.5t-156 -69.5zM258 67q37 0 61.5 14t36.5 40t16.5 54t4.5 65q0 36 -4.5 64t-16.5 54t-37 40t-61 14t-61 -14t-37 -40t-16.5 -54t-4.5 -64
q0 -37 4.5 -65t16.5 -54t36.5 -40t61.5 -14zM314 576q-26 0 -63 21q-32 18 -53 18q-25 0 -49 -27q-10 -10 -16 -7t-6 17v16q0 35 20 49q29 20 55 20q28 0 63 -21q32 -18 53 -18q26 0 50 28q7 8 14 6t7 -17v-16q0 -31 -21 -49q-23 -20 -54 -20z" />
    <glyph glyph-name="odieresis" unicode="&#xf6;" horiz-adv-x="516" 
d="M258 -11q-107 0 -156 69.5t-49 181.5q0 53 11 96.5t34 79t64 55t96 19.5t96 -19.5t64 -55t34 -79t11 -96.5q0 -112 -49 -181.5t-156 -69.5zM258 67q37 0 61.5 14t36.5 40t16.5 54t4.5 65q0 36 -4.5 64t-16.5 54t-37 40t-61 14t-61 -14t-37 -40t-16.5 -54t-4.5 -64
q0 -37 4.5 -65t16.5 -54t36.5 -40t61.5 -14zM366 587h-19q-30 0 -30 30v33q0 30 30 30h19q30 0 30 -30v-33q0 -30 -30 -30zM169 587h-19q-30 0 -30 30v33q0 30 30 30h19q30 0 30 -30v-33q0 -30 -30 -30z" />
    <glyph glyph-name="divide" unicode="&#xf7;" 
d="M215 438q0 23 16.5 39.5t39.5 16.5t39.5 -16.5t16.5 -39.5t-16.5 -39.5t-39.5 -16.5t-39.5 16.5t-16.5 39.5zM451 239h-360q-30 0 -30 30v14q0 30 30 30h360q30 0 30 -30v-14q0 -30 -30 -30zM215 114q0 23 16.5 39.5t39.5 16.5t39.5 -16.5t16.5 -39.5t-16.5 -39.5
t-39.5 -16.5t-39.5 16.5t-16.5 39.5z" />
    <glyph glyph-name="ugrave" unicode="&#xf9;" horiz-adv-x="539" 
d="M427 0h-4q-30 0 -40 28l-10 27h-1q-41 -66 -131 -66q-78 0 -122 49t-44 132v279q0 30 30 30h24q30 0 30 -30v-259q0 -123 106 -123q49 0 78.5 32t29.5 86v264q0 30 30 30h24q30 0 30 -30v-419q0 -30 -30 -30zM282 557h-10q-30 0 -48 24l-72 95q-18 24 12 24h30
q30 0 46 -26l56 -91q16 -26 -14 -26z" />
    <glyph glyph-name="uacute" unicode="&#xfa;" horiz-adv-x="539" 
d="M427 0h-4q-30 0 -40 28l-10 27h-1q-41 -66 -131 -66q-78 0 -122 49t-44 132v279q0 30 30 30h24q30 0 30 -30v-259q0 -123 106 -123q49 0 78.5 32t29.5 86v264q0 30 30 30h24q30 0 30 -30v-419q0 -30 -30 -30zM257 557h-10q-30 0 -14 26l56 91q16 26 46 26h30q30 0 12 -24
l-72 -95q-18 -24 -48 -24z" />
    <glyph glyph-name="ucircumflex" unicode="&#xfb;" horiz-adv-x="539" 
d="M427 0h-4q-30 0 -40 28l-10 27h-1q-41 -66 -131 -66q-78 0 -122 49t-44 132v279q0 30 30 30h24q30 0 30 -30v-259q0 -123 106 -123q49 0 78.5 32t29.5 86v264q0 30 30 30h24q30 0 30 -30v-419q0 -30 -30 -30zM270 700h-1q30 0 48 -24l75 -96q17 -24 -12 -24h-7
q-29 0 -50 22l-52 59h-2l-53 -59q-21 -22 -50 -22h-7q-30 0 -12 24l75 96q17 24 48 24z" />
    <glyph glyph-name="udieresis" unicode="&#xfc;" horiz-adv-x="539" 
d="M427 0h-4q-30 0 -40 28l-10 27h-1q-41 -66 -131 -66q-78 0 -122 49t-44 132v279q0 30 30 30h24q30 0 30 -30v-259q0 -123 106 -123q49 0 78.5 32t29.5 86v264q0 30 30 30h24q30 0 30 -30v-419q0 -30 -30 -30zM377 587h-19q-30 0 -30 30v33q0 30 30 30h19q30 0 30 -30v-33
q0 -30 -30 -30zM180 587h-19q-30 0 -30 30v33q0 30 30 30h19q30 0 30 -30v-33q0 -30 -30 -30z" />
    <glyph glyph-name="circumflex" unicode="&#x2c6;" horiz-adv-x="421" 
d="M211 700h-1q30 0 48 -24l75 -96q17 -24 -12 -24h-7q-29 0 -50 22l-52 59h-2l-53 -59q-21 -22 -50 -22h-7q-30 0 -12 24l75 96q17 24 48 24z" />
    <glyph glyph-name="caron" unicode="&#x2c7;" horiz-adv-x="421" 
d="M210 555h1q-31 0 -48 24l-75 96q-18 24 12 24h7q29 0 50 -22l53 -59h2l52 59q21 22 50 22h7q29 0 12 -24l-75 -96q-18 -24 -48 -24z" />
    <glyph glyph-name="ring" unicode="&#x2da;" horiz-adv-x="421" 
d="M211 535q-40 0 -67.5 27t-27.5 67t27.5 67t67.5 27t67.5 -27t27.5 -67t-27.5 -67t-67.5 -27zM211 576q22 0 36.5 15t14.5 38t-14.5 38t-36.5 15t-36.5 -15t-14.5 -38t14.5 -38t36.5 -15z" />
    <glyph glyph-name="tilde" unicode="&#x2dc;" horiz-adv-x="421" 
d="M265 576q-26 0 -63 21q-32 18 -53 18q-25 0 -49 -27q-10 -10 -16 -7t-6 17v16q0 35 20 49q29 20 55 20q28 0 63 -21q32 -18 53 -18q26 0 50 28q7 8 14 6t7 -17v-16q0 -31 -21 -49q-23 -20 -54 -20z" />
    <glyph glyph-name="quoteleft" unicode="&#x2018;" horiz-adv-x="215" 
d="M118 503h-21q-30 0 -30 30v47q0 31 20 52l37 40q10 10 17 6.5t7 -15.5v-130q0 -30 -30 -30z" />
    <glyph glyph-name="quoteright" unicode="&#x2019;" horiz-adv-x="215" 
d="M97 680h21q30 0 30 -30v-47q0 -31 -20 -52l-37 -40q-11 -10 -17.5 -6.5t-6.5 15.5v130q0 30 30 30z" />
    <glyph glyph-name="quotedblleft" unicode="&#x201c;" horiz-adv-x="372" 
d="M118 503h-21q-30 0 -30 30v47q0 31 20 52l37 40q10 10 17 6.5t7 -15.5v-130q0 -30 -30 -30zM275 503h-21q-30 0 -30 30v47q0 31 20 52l37 40q11 10 17.5 6.5t6.5 -15.5v-130q0 -30 -30 -30z" />
    <glyph glyph-name="quotedblright" unicode="&#x201d;" horiz-adv-x="372" 
d="M254 680h21q30 0 30 -30v-47q0 -31 -20 -52l-37 -40q-10 -10 -17 -6.5t-7 15.5v130q0 30 30 30zM97 680h21q30 0 30 -30v-47q0 -31 -20 -52l-37 -40q-11 -10 -17.5 -6.5t-6.5 15.5v130q0 30 30 30z" />
    <glyph glyph-name="guilsinglleft" unicode="&#x2039;" horiz-adv-x="320" 
d="M229 76l-164 167q-21 21 0 42l164 167q21 21 21 -9v-38q0 -30 -21 -51l-91 -90l91 -90q21 -21 21 -51v-38q0 -30 -21 -9z" />
    <glyph glyph-name="guilsinglright" unicode="&#x203a;" horiz-adv-x="320" 
d="M255 243l-164 -167q-21 -21 -21 9v38q0 30 21 51l91 90l-91 90q-21 21 -21 51v38q0 30 21 9l164 -167q21 -21 0 -42z" />
    <glyph glyph-name="fraction" unicode="&#x2044;" horiz-adv-x="155" 
d="M-122 -11h-7q-29 0 -15 26l376 650q14 26 45 26h8q29 0 15 -26l-377 -650q-14 -26 -45 -26z" />
    <glyph glyph-name="Euro" unicode="&#x20ac;" 
d="M309 67q69 0 106 60q15 25 41 11l15 -8q15 -8 18 -15.5t-4 -24.5q-57 -101 -176 -101q-102 0 -154 70.5t-52 182.5v6h-28q-30 0 -30 30v2q0 30 30 30h28v66h-28q-30 0 -30 30v2q0 30 30 30h28v6q0 108 53 177.5t153 69.5q122 0 177 -103q13 -24 -14 -38l-16 -8
q-27 -13 -42 12q-39 59 -105 59q-120 0 -120 -169v-6h181q31 0 22 -29l-1 -4q-7 -29 -37 -29h-165v-66h160q30 0 23 -29l-1 -4q-7 -29 -37 -29h-145v-6q0 -175 120 -175z" />
    </font>
</defs>
</svg>
