<?xml version="1.0" encoding="utf-8"?>
<!-- Generator: Adobe Illustrator 18.0.0, SVG Export Plug-In . SVG Version: 6.00 Build 0)  -->
<!DOCTYPE svg PUBLIC "-//W3C//DTD SVG 1.1//EN" "http://www.w3.org/Graphics/SVG/1.1/DTD/svg11.dtd">
<svg version="1.1" id="Capa_1" xmlns="http://www.w3.org/2000/svg" xmlns:xlink="http://www.w3.org/1999/xlink" x="0px" y="0px"
	 viewBox="0 0 86 40" enable-background="new 0 0 86 40" xml:space="preserve">
<g>
	<g>
		<g>
			<path fill="#005AA9" d="M43,36.1c-29.2-6.2-42.5,0.7-42.5,0.7s17.1-4.8,42.5,0.9c26.9,6.1,42.4-2.9,42.4-2.9S72.3,42.3,43,36.1"
				/>
			<path fill="#1B75BB" d="M43,32.3C13.8,26.1,0.5,33,0.5,33s17.1-4.8,42.5,0.9c26.9,6.1,42.4-2.9,42.4-2.9S72.3,38.5,43,32.3"/>
			<path fill="#005AA9" d="M9.6,20.9c0,0.1,0,0.2,0.1,0.3c0.1,0.1,0.2,0.1,0.3,0.1h4.2c0.1,0,0.2,0,0.3-0.1c0.1-0.1,0.1-0.2,0.1-0.3
				c0-0.1,0-0.2-0.1-0.3c-0.1-0.1-0.2-0.1-0.3-0.1h-3.7v-3.2h2.5c0.1,0,0.2,0,0.3-0.1c0.1-0.1,0.1-0.2,0.1-0.3c0-0.1,0-0.2-0.1-0.3
				c-0.1-0.1-0.2-0.1-0.3-0.1h-2.5v-3.1h3.7c0.1,0,0.2,0,0.3-0.1c0.1-0.1,0.1-0.2,0.1-0.3c0-0.1,0-0.2-0.1-0.3
				c-0.1-0.1-0.2-0.1-0.3-0.1H10c-0.1,0-0.2,0-0.3,0.1c-0.1,0.1-0.1,0.2-0.1,0.3V20.9z"/>
			<path fill="#005AA9" d="M15.6,20.9c0,0.1,0,0.2,0.1,0.3c0.1,0.1,0.2,0.1,0.3,0.1h3.9c0.1,0,0.2,0,0.3-0.1
				c0.1-0.1,0.1-0.2,0.1-0.3c0-0.1,0-0.2-0.1-0.3c-0.1-0.1-0.2-0.1-0.3-0.1h-3.5V13c0-0.1,0-0.2-0.1-0.3c-0.1-0.1-0.2-0.1-0.3-0.1
				c-0.1,0-0.2,0-0.3,0.1c-0.1,0.1-0.1,0.2-0.1,0.3V20.9z"/>
			<path fill="#005AA9" d="M26.6,17.2c0.2,0.1,0.4,0.2,0.6,0.4c0.2,0.1,0.3,0.3,0.4,0.5c0.1,0.2,0.1,0.4,0.1,0.6
				c0,0.2-0.1,0.5-0.2,0.7c-0.1,0.2-0.3,0.4-0.4,0.6s-0.4,0.3-0.6,0.4c-0.2,0.1-0.5,0.1-0.7,0.1c-0.2,0-0.3,0-0.5-0.1
				c-0.2,0-0.4-0.1-0.6-0.2c-0.2-0.1-0.4-0.2-0.5-0.3c-0.2-0.1-0.3-0.3-0.4-0.4c-0.1-0.1-0.2-0.2-0.4-0.2c-0.1,0-0.2,0-0.3,0.1
				C23,19.5,23,19.6,23,19.7c0,0.1,0,0.1,0.1,0.2c0.1,0.2,0.3,0.4,0.5,0.6c0.2,0.2,0.4,0.3,0.7,0.4c0.3,0.1,0.5,0.2,0.8,0.3
				c0.3,0.1,0.5,0.1,0.8,0.1c0.4,0,0.7-0.1,1.1-0.2c0.3-0.1,0.6-0.3,0.9-0.6c0.3-0.2,0.5-0.5,0.6-0.8c0.2-0.3,0.2-0.7,0.2-1
				c0-0.4-0.1-0.7-0.2-1c-0.1-0.3-0.3-0.5-0.5-0.7c-0.2-0.2-0.5-0.4-0.7-0.5c-0.3-0.1-0.6-0.3-0.9-0.4c-0.2-0.1-0.4-0.1-0.6-0.2
				c-0.2-0.1-0.5-0.2-0.7-0.3c-0.2-0.1-0.4-0.2-0.6-0.4c-0.2-0.1-0.2-0.3-0.2-0.5c0-0.3,0.1-0.5,0.2-0.6c0.1-0.2,0.2-0.3,0.4-0.4
				c0.2-0.1,0.4-0.2,0.6-0.2c0.2,0,0.4-0.1,0.6-0.1c0.1,0,0.3,0,0.4,0c0.2,0,0.3,0,0.5,0.1c0.2,0.1,0.3,0.1,0.4,0.2
				c0.1,0.1,0.3,0.3,0.4,0.4c0.1,0.1,0.2,0.2,0.4,0.2c0.1,0,0.2,0,0.3-0.1c0.1-0.1,0.1-0.2,0.1-0.3c0-0.1,0-0.2-0.1-0.3
				c-0.2-0.2-0.3-0.4-0.5-0.6c-0.2-0.1-0.4-0.3-0.6-0.3c-0.2-0.1-0.4-0.1-0.6-0.2c-0.2,0-0.4,0-0.6,0c-0.3,0-0.6,0-0.9,0.1
				c-0.3,0.1-0.6,0.2-0.8,0.4c-0.2,0.2-0.4,0.4-0.6,0.7c-0.2,0.3-0.2,0.6-0.2,0.9c0,0.3,0.1,0.6,0.2,0.8c0.2,0.2,0.4,0.4,0.6,0.6
				c0.3,0.2,0.5,0.3,0.8,0.4c0.3,0.1,0.6,0.2,0.9,0.3C26.1,17,26.4,17.1,26.6,17.2"/>
			<path fill="#005AA9" d="M28.8,20.8c0,0.1,0,0.1,0,0.2c0,0.1,0,0.2,0.1,0.3c0.1,0.1,0.2,0.1,0.3,0.1c0.1,0,0.2,0,0.2-0.1
				c0.1,0,0.1-0.1,0.2-0.2l1.1-2.5h3.9l1.1,2.5c0.1,0.2,0.2,0.3,0.4,0.3c0.1,0,0.2,0,0.3-0.1c0.1-0.1,0.1-0.2,0.1-0.3
				c0-0.1,0-0.1,0-0.2L33,12.9c0-0.1-0.1-0.2-0.2-0.2c-0.1-0.1-0.2-0.1-0.2-0.1c-0.1,0-0.2,0-0.2,0.1c-0.1,0.1-0.1,0.1-0.2,0.2
				L28.8,20.8z M34.1,17.7H31l1.6-3.6L34.1,17.7z"/>
			<path fill="#005AA9" d="M37.3,20.9c0,0.1,0,0.2,0.1,0.3c0.1,0.1,0.2,0.1,0.3,0.1h3.9c0.1,0,0.2,0,0.3-0.1
				c0.1-0.1,0.1-0.2,0.1-0.3c0-0.1,0-0.2-0.1-0.3c-0.1-0.1-0.2-0.1-0.3-0.1h-3.5V13c0-0.1,0-0.2-0.1-0.3c-0.1-0.1-0.2-0.1-0.3-0.1
				c-0.1,0-0.2,0-0.3,0.1c-0.1,0.1-0.1,0.2-0.1,0.3V20.9z"/>
			<path fill="#005AA9" d="M43.4,21.1c0,0.1,0.1,0.1,0.2,0.2c0.1,0.1,0.2,0.1,0.2,0.1c0.1,0,0.2,0,0.2-0.1c0.1-0.1,0.1-0.1,0.2-0.2
				l2.9-7.9c0,0,0-0.1,0-0.2c0-0.1,0-0.2-0.1-0.3c-0.1-0.1-0.2-0.1-0.3-0.1c-0.1,0-0.2,0-0.2,0.1c-0.1,0.1-0.1,0.1-0.2,0.2l-2.6,7
				l-2.6-7c0-0.1-0.1-0.1-0.2-0.2c-0.1-0.1-0.2-0.1-0.2-0.1c-0.1,0-0.2,0-0.3,0.1c-0.1,0.1-0.1,0.2-0.1,0.3c0,0.1,0,0.1,0,0.2
				L43.4,21.1z"/>
			<path fill="#005AA9" d="M45.7,20.8c0,0.1,0,0.1,0,0.2c0,0.1,0,0.2,0.1,0.3c0.1,0.1,0.2,0.1,0.3,0.1c0.1,0,0.2,0,0.2-0.1
				c0.1,0,0.1-0.1,0.2-0.2l1.1-2.5h3.9l1.1,2.5c0.1,0.2,0.2,0.3,0.4,0.3c0.1,0,0.2,0,0.3-0.1c0.1-0.1,0.1-0.2,0.1-0.3
				c0-0.1,0-0.1,0-0.2l-3.4-7.9c0-0.1-0.1-0.2-0.2-0.2c-0.1-0.1-0.2-0.1-0.2-0.1c-0.1,0-0.2,0-0.2,0.1c-0.1,0.1-0.1,0.1-0.2,0.2
				L45.7,20.8z M51,17.7h-3.1l1.6-3.6L51,17.7z"/>
			<path fill="#005AA9" d="M53.9,20.9c0,0.1,0,0.2,0.1,0.3c0.1,0.1,0.2,0.1,0.3,0.1h2.4c0.6,0,1.2-0.1,1.7-0.3
				c0.5-0.2,1-0.5,1.4-0.9c0.4-0.4,0.7-0.9,0.9-1.4c0.2-0.5,0.3-1.1,0.3-1.7c0-0.6-0.1-1.2-0.3-1.7c-0.2-0.5-0.5-1-0.9-1.4
				c-0.4-0.4-0.9-0.7-1.4-0.9c-0.5-0.2-1.1-0.3-1.7-0.3h-2.4c-0.1,0-0.2,0-0.3,0.1c-0.1,0.1-0.1,0.2-0.1,0.3V20.9z M56.7,13.4
				c0.5,0,0.9,0.1,1.4,0.3c0.4,0.2,0.8,0.4,1.1,0.8c0.3,0.3,0.6,0.7,0.8,1.1c0.2,0.4,0.3,0.9,0.3,1.4c0,0.5-0.1,0.9-0.3,1.4
				c-0.2,0.4-0.4,0.8-0.8,1.1c-0.3,0.3-0.7,0.6-1.1,0.8c-0.4,0.2-0.9,0.3-1.4,0.3h-1.9v-7.1H56.7z"/>
			<path fill="#005AA9" d="M64.3,12.9c-0.5,0.2-1,0.5-1.4,0.9c-0.4,0.4-0.7,0.9-0.9,1.4c-0.2,0.5-0.3,1.1-0.3,1.7
				c0,0.6,0.1,1.2,0.3,1.7c0.2,0.5,0.5,1,0.9,1.4c0.4,0.4,0.9,0.7,1.4,0.9c0.5,0.2,1.1,0.3,1.7,0.3c0.6,0,1.2-0.1,1.7-0.3
				c0.5-0.2,1-0.5,1.4-0.9c0.4-0.4,0.7-0.9,0.9-1.4c0.2-0.5,0.3-1.1,0.3-1.7c0-0.6-0.1-1.2-0.3-1.7c-0.2-0.5-0.5-1-0.9-1.4
				c-0.4-0.4-0.9-0.7-1.4-0.9c-0.5-0.2-1.1-0.3-1.7-0.3C65.4,12.6,64.9,12.7,64.3,12.9 M67.4,13.7c0.4,0.2,0.8,0.4,1.1,0.8
				c0.3,0.3,0.6,0.7,0.8,1.1c0.2,0.4,0.3,0.9,0.3,1.4c0,0.5-0.1,0.9-0.3,1.4c-0.2,0.4-0.4,0.8-0.8,1.1c-0.3,0.3-0.7,0.6-1.1,0.8
				c-0.4,0.2-0.9,0.3-1.4,0.3c-0.5,0-0.9-0.1-1.4-0.3c-0.4-0.2-0.8-0.4-1.1-0.8c-0.3-0.3-0.6-0.7-0.7-1.1c-0.2-0.4-0.3-0.9-0.3-1.4
				c0-0.5,0.1-0.9,0.3-1.4c0.2-0.4,0.4-0.8,0.7-1.1c0.3-0.3,0.7-0.6,1.1-0.8c0.4-0.2,0.9-0.3,1.4-0.3C66.5,13.4,67,13.5,67.4,13.7"
				/>
			<path fill="#005AA9" d="M71.2,20.9c0,0.1,0,0.2,0.1,0.3c0.1,0.1,0.2,0.1,0.3,0.1c0.1,0,0.2,0,0.3-0.1c0.1-0.1,0.1-0.2,0.1-0.3
				v-3.7h1.3l2.3,3.9c0,0.1,0.1,0.1,0.2,0.2c0.1,0,0.1,0.1,0.2,0.1c0.1,0,0.2,0,0.3-0.1c0.1-0.1,0.1-0.2,0.1-0.2c0-0.1,0-0.1,0-0.2
				c0-0.1,0-0.1-0.1-0.2l-2.1-3.4c0.3,0,0.5-0.1,0.8-0.3c0.2-0.1,0.5-0.3,0.6-0.5c0.2-0.2,0.3-0.4,0.4-0.7c0.1-0.3,0.2-0.5,0.2-0.8
				c0-0.3-0.1-0.6-0.2-0.9c-0.1-0.3-0.3-0.5-0.5-0.8c-0.2-0.2-0.5-0.4-0.7-0.5c-0.3-0.1-0.6-0.2-0.9-0.2h-2.2c-0.1,0-0.2,0-0.3,0.1
				c-0.1,0.1-0.1,0.2-0.1,0.3V20.9z M73.9,13.4c0.2,0,0.4,0,0.6,0.1c0.2,0.1,0.3,0.2,0.5,0.3c0.1,0.1,0.2,0.3,0.3,0.5
				c0.1,0.2,0.1,0.4,0.1,0.6c0,0.2,0,0.4-0.1,0.6c-0.1,0.2-0.2,0.3-0.3,0.5c-0.1,0.1-0.3,0.2-0.5,0.3c-0.2,0.1-0.4,0.1-0.6,0.1h-1.8
				v-3H73.9z"/>
			<path fill="#808184" d="M11.2,10.5h0.2V9.4h-0.9v0.2h0.7c0,0.4-0.2,0.7-0.7,0.7c-0.5,0-0.7-0.4-0.7-0.8c0-0.4,0.2-0.9,0.7-0.9
				c0.3,0,0.6,0.1,0.6,0.4h0.3c-0.1-0.5-0.4-0.7-0.9-0.7c-0.6,0-1,0.5-1,1.1c0,0.5,0.4,1,1,1c0.2,0,0.5-0.1,0.7-0.3L11.2,10.5z"/>
			<path fill="#808184" d="M12.7,9.5c0,0.6,0.3,1.1,1,1.1c0.6,0,1-0.5,1-1.1c0-0.6-0.3-1.1-1-1.1C13,8.4,12.7,8.9,12.7,9.5 M13,9.5
				c0-0.4,0.2-0.8,0.7-0.8c0.5,0,0.7,0.4,0.7,0.8c0,0.4-0.2,0.8-0.7,0.8C13.2,10.3,13,9.9,13,9.5"/>
			<path fill="#808184" d="M16.3,9.6H17c0.2,0,0.4,0.1,0.4,0.3c0,0.2-0.1,0.4-0.4,0.4h-0.7V9.6z M16.1,10.5h1c0.4,0,0.6-0.3,0.6-0.6
				c0-0.3-0.1-0.4-0.4-0.5v0c0.2-0.1,0.3-0.2,0.3-0.5c0-0.2-0.1-0.3-0.2-0.4c-0.1-0.1-0.4-0.1-0.5-0.1h-0.7V10.5z M16.3,8.7h0.5
				c0.2,0,0.4,0,0.4,0.3c0,0.2-0.1,0.3-0.4,0.3h-0.5V8.7z"/>
			<rect x="19.1" y="8.5" fill="#808184" width="0.3" height="2"/>
			<polygon fill="#808184" points="20.9,10.5 22.4,10.5 22.4,10.3 21.2,10.3 21.2,9.6 22.3,9.6 22.3,9.3 21.2,9.3 21.2,8.7 
				22.4,8.7 22.4,8.5 20.9,8.5 			"/>
			<g>
				<path fill="#808184" d="M24,9.4V8.7h0.7c0.3,0,0.4,0.1,0.4,0.3c0,0.3-0.2,0.4-0.5,0.4H24z M23.8,10.5H24V9.6h0.7
					C25,9.6,25,9.8,25,10c0,0.2,0,0.4,0.1,0.5h0.3c-0.1-0.1-0.1-0.4-0.1-0.6c0-0.2-0.1-0.4-0.3-0.4v0c0.2-0.1,0.4-0.3,0.4-0.5
					c0-0.3-0.2-0.5-0.6-0.5h-1V10.5z"/>
			</g>
			<polygon fill="#808184" points="26.8,10.5 27.1,10.5 27.1,8.9 27.1,8.9 28.1,10.5 28.4,10.5 28.4,8.5 28.2,8.5 28.2,10.1 
				28.2,10.1 27.1,8.5 26.8,8.5 			"/>
			<g>
				<path fill="#808184" d="M29.9,9.5c0,0.6,0.3,1.1,1,1.1c0.6,0,1-0.5,1-1.1c0-0.6-0.3-1.1-1-1.1C30.2,8.4,29.9,8.9,29.9,9.5
					 M30.1,9.5c0-0.4,0.2-0.8,0.7-0.8c0.5,0,0.7,0.4,0.7,0.8c0,0.4-0.2,0.8-0.7,0.8C30.3,10.3,30.1,9.9,30.1,9.5"/>
				<path fill="#808184" d="M35.1,10.5h0.7c0.7,0,1-0.4,1-1.1c0-0.7-0.4-1-1-1h-0.7V10.5z M35.4,8.7h0.5c0.5,0,0.7,0.3,0.7,0.8
					c0,0.8-0.5,0.8-0.7,0.8h-0.5V8.7z"/>
			</g>
			<polygon fill="#808184" points="38.2,10.5 39.6,10.5 39.6,10.3 38.5,10.3 38.5,9.6 39.5,9.6 39.5,9.3 38.5,9.3 38.5,8.7 
				39.6,8.7 39.6,8.5 38.2,8.5 			"/>
			<path fill="#1B75BB" d="M12.4,25.9c0,0.9-0.4,1.4-1.4,1.4c-1,0-1.4-0.5-1.4-1.4V24h0.8V26c0,0.4,0.2,0.6,0.6,0.6
				c0.4,0,0.6-0.2,0.6-0.6V24h0.8V25.9z"/>
			<polygon fill="#1B75BB" points="13.2,24 14.1,24 15.2,26 15.2,26 15.2,24 16,24 16,27.3 15.1,27.3 14,25.3 14,25.3 14,27.3 
				13.2,27.3 			"/>
			<path fill="#1B75BB" d="M17.7,24h0.9l1.2,3.2h-0.9l-0.2-0.6h-1.1l-0.2,0.6h-0.9L17.7,24z M18.9,23.2l-0.7,0.7h-0.5l0.4-0.7H18.9z
				 M17.7,26.1h0.7l-0.4-1.1h0L17.7,26.1z"/>
			<polygon fill="#1B75BB" points="20.3,24 21.5,24 22.1,26.2 22.1,26.2 22.6,24 23.9,24 23.9,27.3 23.1,27.3 23.1,24.8 23.1,24.8 
				22.4,27.3 21.7,27.3 21.1,24.8 21.1,24.8 21.1,27.3 20.3,27.3 			"/>
			<g>
				<path fill="#1B75BB" d="M26.2,24c1,0,1.6,0.7,1.6,1.7c0,0.9-0.6,1.7-1.6,1.7c-1,0-1.6-0.7-1.6-1.7C24.6,24.7,25.2,24,26.2,24
					 M26.2,26.6c0.5,0,0.7-0.5,0.7-1c0-0.5-0.2-1-0.7-1c-0.5,0-0.7,0.5-0.7,1C25.4,26.1,25.6,26.6,26.2,26.6"/>
			</g>
			<polygon fill="#1B75BB" points="28.5,24 29.3,24 30.5,26 30.5,26 30.5,24 31.3,24 31.3,27.3 30.4,27.3 29.3,25.3 29.3,25.3 
				29.3,27.3 28.5,27.3 			"/>
			<g>
				<path fill="#1B75BB" d="M33.6,24c1,0,1.6,0.7,1.6,1.7c0,0.9-0.6,1.7-1.6,1.7c-1,0-1.6-0.7-1.6-1.7C32,24.7,32.6,24,33.6,24
					 M33.6,26.6c0.5,0,0.7-0.5,0.7-1c0-0.5-0.2-1-0.7-1c-0.5,0-0.7,0.5-0.7,1C32.8,26.1,33,26.6,33.6,26.6"/>
				<path fill="#1B75BB" d="M36.5,26.2c0,0.4,0.3,0.5,0.6,0.5c0.3,0,0.5-0.1,0.5-0.3c0-0.3-0.5-0.3-0.9-0.5
					c-0.5-0.1-0.9-0.3-0.9-0.9c0-0.7,0.7-1,1.3-1c0.6,0,1.3,0.3,1.3,1h-0.8c0-0.3-0.3-0.4-0.5-0.4c-0.2,0-0.4,0.1-0.4,0.3
					c0,0.2,0.5,0.3,0.9,0.4c0.5,0.1,0.9,0.3,0.9,0.9c0,0.8-0.7,1.1-1.4,1.1c-0.7,0-1.4-0.3-1.4-1.1H36.5z"/>
				<path fill="#1B75BB" d="M40.9,24h1.5c0.6,0,1.2,0.3,1.2,1c0,0.8-0.5,1.1-1.2,1.1h-0.7v1.1h-0.8V24z M41.7,25.5h0.6
					c0.3,0,0.5-0.1,0.5-0.4c0-0.3-0.2-0.4-0.5-0.4h-0.6V25.5z"/>
			</g>
			<path fill="#1B75BB" d="M44.8,24h0.9l1.2,3.2h-0.9l-0.2-0.6h-1.1l-0.2,0.6h-0.9L44.8,24z M44.8,26.1h0.7l-0.4-1.1h0L44.8,26.1z"
				/>
			<g>
				<path fill="#1B75BB" d="M47.3,24H49c0.6,0,1.1,0.3,1.1,0.9c0,0.3-0.2,0.7-0.5,0.8v0c0.3,0.1,0.4,0.5,0.5,0.8
					c0,0.1,0,0.6,0.1,0.7h-0.8c-0.1-0.1-0.1-0.4-0.1-0.5c0-0.3-0.1-0.7-0.5-0.7h-0.6v1.2h-0.8V24z M48.2,25.4h0.7
					c0.3,0,0.4-0.1,0.4-0.4c0-0.2-0.2-0.3-0.4-0.3h-0.7V25.4z"/>
			</g>
			<path fill="#1B75BB" d="M51.7,24h0.9l1.2,3.2h-0.9l-0.2-0.6h-1.1l-0.2,0.6h-0.9L51.7,24z M51.8,26.1h0.7l-0.4-1.1h0L51.8,26.1z"
				/>
			<g>
				<path fill="#1B75BB" d="M58.1,25.2c0-0.3-0.3-0.5-0.6-0.5c-0.5,0-0.7,0.5-0.7,1c0,0.5,0.2,1,0.7,1c0.4,0,0.6-0.2,0.6-0.6H59
					c0,0.8-0.7,1.3-1.5,1.3c-1,0-1.6-0.7-1.6-1.7c0-0.9,0.6-1.7,1.6-1.7c0.7,0,1.4,0.4,1.5,1.2H58.1z"/>
				<path fill="#1B75BB" d="M59.7,24h1.6c0.6,0,1.1,0.3,1.1,0.9c0,0.3-0.2,0.7-0.5,0.8v0c0.3,0.1,0.4,0.5,0.5,0.8
					c0,0.1,0,0.6,0.1,0.7h-0.8c-0.1-0.1-0.1-0.4-0.1-0.5c0-0.3-0.1-0.7-0.5-0.7h-0.6v1.2h-0.8V24z M60.5,25.4h0.7
					c0.3,0,0.4-0.1,0.4-0.4c0-0.2-0.2-0.3-0.4-0.3h-0.7V25.4z"/>
			</g>
			<polygon fill="#1B75BB" points="63.2,24 65.8,24 65.8,24.7 64.1,24.7 64.1,25.3 65.6,25.3 65.6,25.9 64.1,25.9 64.1,26.5 
				65.8,26.5 65.8,27.3 63.2,27.3 			"/>
			<g>
				<path fill="#1B75BB" d="M68.7,25.2c0-0.3-0.3-0.5-0.6-0.5c-0.5,0-0.7,0.5-0.7,1c0,0.5,0.2,1,0.7,1c0.4,0,0.6-0.2,0.6-0.6h0.8
					c0,0.8-0.7,1.3-1.5,1.3c-1,0-1.6-0.7-1.6-1.7c0-0.9,0.6-1.7,1.6-1.7c0.7,0,1.4,0.4,1.5,1.2H68.7z"/>
			</g>
			<polygon fill="#1B75BB" points="70.3,24 72.8,24 72.8,24.7 71.1,24.7 71.1,25.3 72.7,25.3 72.7,25.9 71.1,25.9 71.1,26.5 
				72.9,26.5 72.9,27.3 70.3,27.3 			"/>
			<g>
				<path fill="#1B75BB" d="M73.6,24h1.6c0.6,0,1.1,0.3,1.1,0.9c0,0.3-0.2,0.7-0.5,0.8v0c0.3,0.1,0.4,0.5,0.5,0.8
					c0,0.1,0,0.6,0.1,0.7h-0.8c-0.1-0.1-0.1-0.4-0.1-0.5c0-0.3-0.1-0.7-0.5-0.7h-0.6v1.2h-0.8V24z M74.5,25.4h0.7
					c0.3,0,0.4-0.1,0.4-0.4c0-0.2-0.2-0.3-0.4-0.3h-0.7V25.4z"/>
			</g>
		</g>
		<g>
			<path fill="#255488" d="M9.7,0.8h0.4l0.7,1.8l0.7-1.8h0.4v2.1h-0.3V1.2h0l-0.7,1.7h-0.2L10,1.2h0v1.7H9.7V0.8z"/>
			<path fill="#255488" d="M12.9,0.8h0.3v2.1h-0.3V0.8z"/>
			<path fill="#255488" d="M14.4,0.8h0.3l1.1,1.7h0V0.8H16v2.1h-0.3l-1.1-1.7h0v1.7h-0.3V0.8z"/>
			<path fill="#255488" d="M17.2,0.8h0.3v2.1h-0.3V0.8z"/>
			<path fill="#255488" d="M19.8,1.5c0-0.3-0.2-0.4-0.5-0.4c-0.2,0-0.5,0.1-0.5,0.4c0,0.3,0.3,0.3,0.7,0.4c0.3,0.1,0.7,0.2,0.7,0.6
				c0,0.4-0.4,0.6-0.8,0.6c-0.5,0-0.9-0.2-0.9-0.7h0.3c0,0.4,0.3,0.5,0.6,0.5c0.3,0,0.5-0.1,0.5-0.4c0-0.3-0.3-0.3-0.7-0.4
				c-0.3-0.1-0.7-0.2-0.7-0.6c0-0.4,0.4-0.6,0.8-0.6c0.4,0,0.8,0.2,0.8,0.7H19.8z"/>
			<path fill="#255488" d="M21.7,1.1H21V0.8h1.7v0.2H22v1.9h-0.3V1.1z"/>
			<path fill="#255488" d="M23.6,0.8H25v0.2h-1.2v0.7H25V2h-1.1v0.7h1.2v0.2h-1.5V0.8z"/>
			<path fill="#255488" d="M26.1,0.8h1c0.4,0,0.6,0.2,0.6,0.6c0,0.3-0.1,0.5-0.4,0.5v0c0.2,0,0.3,0.2,0.3,0.4c0,0.2,0,0.4,0.1,0.6
				h-0.3c-0.1-0.1,0-0.3-0.1-0.5C27.4,2.2,27.3,2,27,2h-0.7v0.9h-0.3V0.8z M26.9,1.8c0.3,0,0.5-0.1,0.5-0.4c0-0.2-0.1-0.4-0.4-0.4
				h-0.7v0.7H26.9z"/>
			<path fill="#255488" d="M28.8,0.8h0.3v2.1h-0.3V0.8z"/>
			<path fill="#255488" d="M31.1,0.8c0.7,0,1,0.5,1,1.1c0,0.6-0.3,1.1-1,1.1c-0.7,0-1-0.5-1-1.1C30.1,1.3,30.4,0.8,31.1,0.8z
				 M31.1,2.8c0.5,0,0.7-0.4,0.7-0.9S31.6,1,31.1,1s-0.7,0.4-0.7,0.9S30.6,2.8,31.1,2.8z"/>
			<path fill="#255488" d="M34.6,0.8h0.7c0.6,0,1,0.3,1,1c0,0.7-0.3,1.1-1,1.1h-0.7V0.8z M34.9,2.7h0.5c0.2,0,0.7-0.1,0.7-0.8
				c0-0.5-0.2-0.8-0.7-0.8h-0.5V2.7z"/>
			<path fill="#255488" d="M37.4,0.8h1.5v0.2h-1.2v0.7h1.1V2h-1.1v0.7h1.2v0.2h-1.5V0.8z"/>
			<path fill="#255488" d="M41.4,0.8h1.5v0.2h-1.2v0.7h1.1V2h-1.1v0.7h1.2v0.2h-1.5V0.8z"/>
			<path fill="#255488" d="M43.9,0.8h0.7c0.6,0,1,0.3,1,1c0,0.7-0.3,1.1-1,1.1h-0.7V0.8z M44.1,2.7h0.5c0.2,0,0.7-0.1,0.7-0.8
				c0-0.5-0.2-0.8-0.7-0.8h-0.5V2.7z"/>
			<path fill="#255488" d="M48.3,2.2C48.3,2.7,48,3,47.5,3c-0.5,0-0.9-0.2-0.9-0.8V0.8h0.3v1.3c0,0.4,0.2,0.6,0.6,0.6
				c0.4,0,0.5-0.2,0.5-0.6V0.8h0.3V2.2z"/>
			<path fill="#255488" d="M50.9,1.5C50.8,1.2,50.6,1,50.3,1c-0.5,0-0.7,0.4-0.7,0.9c0,0.5,0.2,0.9,0.7,0.9c0.4,0,0.6-0.3,0.6-0.6
				h0.3C51.2,2.7,50.8,3,50.3,3c-0.7,0-1-0.5-1-1.1c0-0.6,0.3-1.1,1-1.1c0.4,0,0.8,0.2,0.9,0.7H50.9z"/>
			<path fill="#255488" d="M52.8,0.8h0.3l0.8,2.1h-0.3l-0.2-0.6h-0.9l-0.2,0.6H52L52.8,0.8z M52.6,2.1h0.7l-0.4-1h0L52.6,2.1z"/>
			<path fill="#255488" d="M56.3,1.5C56.2,1.2,56,1,55.7,1C55.2,1,55,1.4,55,1.9c0,0.5,0.2,0.9,0.7,0.9c0.4,0,0.6-0.3,0.6-0.6h0.3
				C56.6,2.7,56.2,3,55.7,3c-0.7,0-1-0.5-1-1.1c0-0.6,0.3-1.1,1-1.1c0.4,0,0.8,0.2,0.9,0.7H56.3z"/>
			<path fill="#255488" d="M57.6,0.8h0.3v2.1h-0.3V0.8z"/>
			<path fill="#255488" d="M60,0.8c0.7,0,1,0.5,1,1.1C61,2.5,60.6,3,60,3c-0.7,0-1-0.5-1-1.1C59,1.3,59.3,0.8,60,0.8z M60,2.8
				c0.5,0,0.7-0.4,0.7-0.9S60.5,1,60,1c-0.5,0-0.7,0.4-0.7,0.9S59.5,2.8,60,2.8z M60,0.3h0.3L60,0.7h-0.2L60,0.3z"/>
			<path fill="#255488" d="M62,0.8h0.3l1.1,1.7h0V0.8h0.3v2.1h-0.3l-1.1-1.7h0v1.7H62V0.8z"/>
		</g>
		<g>
			<rect x="9.6" y="3.7" fill="#255488" width="67.5" height="0.2"/>
		</g>
	</g>
</g>
</svg>
